<svg width="40" height="44" viewBox="0 0 40 44" fill="none" xmlns="http://www.w3.org/2000/svg">
<path d="M37.886 31.67C36.7898 25.127 33.657 19.0968 28.934 14.438C27.9 13.432 27.384 12.93 26.242 12.466C25.1 12 24.118 12 22.156 12H17.844C15.882 12 14.9 12 13.758 12.466C12.618 12.93 12.098 13.432 11.066 14.438C6.34287 19.0968 3.21016 25.127 2.11396 31.67C1.13996 37.546 6.55996 42 12.616 42H27.384C33.442 42 38.864 37.546 37.884 31.67" stroke="#941D58" stroke-width="3" stroke-linecap="round" stroke-linejoin="round"/>
<path d="M23.2539 23.838C22.8219 22.24 20.6199 20.8 17.9779 21.878C15.3359 22.956 14.9179 26.422 18.9119 26.792C20.7199 26.958 21.8959 26.598 22.9739 27.616C24.0539 28.632 24.2539 31.462 21.4959 32.224C18.7419 32.986 16.0119 31.796 15.7159 30.104M19.6839 19.984V21.506M19.6839 32.458V33.986M10.5139 6.886C10.0999 6.286 9.50188 5.47 10.7379 5.286C12.0079 5.094 13.3259 5.962 14.6179 5.946C15.7839 5.928 16.3779 5.41 17.0179 4.67C17.6899 3.892 18.7299 2 19.9999 2C21.2699 2 22.3099 3.892 22.9819 4.67C23.6219 5.41 24.2159 5.93 25.3819 5.944C26.6739 5.964 27.9919 5.094 29.2619 5.284C30.4979 5.47 29.8999 6.284 29.4859 6.884L27.6219 9.602C26.8219 10.762 26.4239 11.342 25.5879 11.672C24.7519 12.002 23.6739 12 21.5159 12H18.4839C16.3239 12 15.2459 12 14.4119 11.672C13.5779 11.344 13.1779 10.76 12.3779 9.6L10.5139 6.886Z" stroke="#941D58" stroke-width="3" stroke-linecap="round" stroke-linejoin="round"/>
</svg>
