<svg width="48" height="49" viewBox="0 0 48 49" fill="none" xmlns="http://www.w3.org/2000/svg">
<rect y="0.600098" width="48" height="48" rx="6" fill="#2E8B57" fill-opacity="0.1"/>
<path d="M15.5469 9.47119H32.4453C33.2188 9.47119 33.9258 9.6626 34.5664 10.0454C35.207 10.4204 35.7148 10.9282 36.0898 11.5688C36.4727 12.2095 36.6641 12.9165 36.6641 13.6899V30.5884C36.6641 31.3618 36.4727 32.0688 36.0898 32.7095C35.7148 33.3501 35.207 33.8579 34.5664 34.2329C33.9258 34.6157 33.2188 34.8071 32.4453 34.8071H15.5469C14.7734 34.8071 14.0664 34.6157 13.4258 34.2329C12.7852 33.8579 12.2734 33.3501 11.8906 32.7095C11.5156 32.0688 11.3281 31.3618 11.3281 30.5884V13.6899C11.3281 12.9165 11.5156 12.2095 11.8906 11.5688C12.2734 10.9282 12.7852 10.4204 13.4258 10.0454C14.0664 9.6626 14.7734 9.47119 15.5469 9.47119ZM13.0156 13.6899V30.5884C13.0156 31.1353 13.1719 31.6235 13.4844 32.0532C13.8047 32.4907 14.2109 32.7993 14.7031 32.979V17.2524C14.7031 16.9712 14.8047 16.729 15.0078 16.5259C15.2109 16.3228 15.457 16.2212 15.7461 16.2212H18.7344C19.0234 16.2212 19.2695 16.3228 19.4727 16.5259C19.6758 16.729 19.7773 16.9712 19.7773 17.2524V33.1196H21.4648V24.0142C21.4648 23.7251 21.5664 23.4829 21.7695 23.2876C21.9727 23.0845 22.2148 22.9829 22.4961 22.9829H25.4961C25.7852 22.9829 26.0273 23.0845 26.2227 23.2876C26.4258 23.4829 26.5273 23.7251 26.5273 24.0142V33.1196H28.2266V14.7095C28.2266 14.4282 28.3242 14.1899 28.5195 13.9946C28.7227 13.7915 28.9688 13.6899 29.2578 13.6899H32.2578C32.5391 13.6899 32.7812 13.7915 32.9844 13.9946C33.1875 14.1899 33.2891 14.4282 33.2891 14.7095V32.979C33.7812 32.7993 34.1836 32.4907 34.4961 32.0532C34.8164 31.6235 34.9766 31.1353 34.9766 30.5884V13.6899C34.9766 12.9946 34.7305 12.4009 34.2383 11.9087C33.7461 11.4087 33.1484 11.1587 32.4453 11.1587H15.5469C14.8516 11.1587 14.2539 11.4087 13.7539 11.9087C13.2617 12.4009 13.0156 12.9946 13.0156 13.6899Z" fill="#2E8B57"/>
</svg>
