<svg width="48" height="49" viewBox="0 0 48 49" fill="none" xmlns="http://www.w3.org/2000/svg">
<rect y="0.400391" width="48" height="48" rx="6" fill="#2E8B57" fill-opacity="0.1"/>
<path d="M34.1328 32.0762C34.1328 32.7715 33.8828 33.3652 33.3828 33.8574C32.8906 34.3574 32.2969 34.6074 31.6016 34.6074H16.4023C15.6992 34.6074 15.0977 34.3574 14.5977 33.8574C14.1055 33.3652 13.8594 32.7715 13.8594 32.0762V11.8027C13.8594 11.1074 14.1055 10.5137 14.5977 10.0215C15.0977 9.52148 15.6992 9.27148 16.4023 9.27148H27.3828C27.6094 9.27148 27.8047 9.35352 27.9688 9.51758L33.8867 15.4355C34.0508 15.5996 34.1328 15.7949 34.1328 16.0215V16.7832C34.7578 16.916 35.2617 17.2402 35.6445 17.7559L36.9102 19.4668C37.3242 20.0293 37.4805 20.6582 37.3789 21.3535C37.2773 22.041 36.9453 22.5918 36.3828 23.0059L34.1328 24.6699V32.0762ZM15.5469 32.0762C15.5469 32.3105 15.6289 32.5098 15.793 32.6738C15.9648 32.8379 16.168 32.9199 16.4023 32.9199H31.6016C31.8359 32.9199 32.0352 32.8379 32.1992 32.6738C32.3633 32.5098 32.4453 32.3105 32.4453 32.0762V25.9238L24.3594 31.9121C24.2031 32.0215 24.0352 32.0762 23.8555 32.0762H19.2266C18.9453 32.0762 18.7188 31.959 18.5469 31.7246C18.3828 31.498 18.3398 31.248 18.418 30.9746L19.6367 27.002H18.5117C18.3945 27.002 18.293 26.9629 18.207 26.8848C18.1289 26.7988 18.0898 26.6973 18.0898 26.5801C18.0898 26.4629 18.1289 26.3652 18.207 26.2871C18.293 26.2012 18.3945 26.1582 18.5117 26.1582H20.0352C20.0508 26.1426 20.0625 26.1309 20.0703 26.123L22.3086 24.4707H18.5117C18.3945 24.4707 18.293 24.4316 18.207 24.3535C18.1289 24.2676 18.0898 24.166 18.0898 24.0488C18.0898 23.9316 18.1289 23.834 18.207 23.7559C18.293 23.6699 18.3945 23.627 18.5117 23.627H23.457L25.7305 21.9395H18.5117C18.3945 21.9395 18.293 21.9004 18.207 21.8223C18.1289 21.7363 18.0898 21.6348 18.0898 21.5176C18.0898 21.4004 18.1289 21.3027 18.207 21.2246C18.293 21.1387 18.3945 21.0957 18.5117 21.0957H26.8789L29.1641 19.4082H18.5117C18.3945 19.4082 18.293 19.3691 18.207 19.291C18.1289 19.2051 18.0898 19.1035 18.0898 18.9863C18.0898 18.8691 18.1289 18.7715 18.207 18.6934C18.293 18.6074 18.3945 18.5645 18.5117 18.5645H29.4922C29.7031 18.5645 29.8359 18.666 29.8906 18.8691L32.1055 17.2285C32.2148 17.1504 32.3281 17.0801 32.4453 17.0176V16.877H27.793C27.4414 16.877 27.1406 16.7559 26.8906 16.5137C26.6484 16.2637 26.5273 15.9629 26.5273 15.6113V10.959H16.4023C16.168 10.959 15.9648 11.041 15.793 11.2051C15.6289 11.3691 15.5469 11.5684 15.5469 11.8027V32.0762ZM27.793 16.0215H32.0938L27.3828 11.3105V15.6113C27.3828 15.7285 27.4219 15.8262 27.5 15.9043C27.5781 15.9824 27.6758 16.0215 27.793 16.0215ZM32.6445 23.6738L33.6406 22.9355L31.3672 19.877L30.3828 20.6035L32.6445 23.6738ZM21.9453 26.8379L24.2891 29.8496L31.9648 24.1777L29.7031 21.1074L21.9453 26.8379ZM21.2891 27.377L20.6562 29.4277L21.3711 30.3887H23.5742L23.6094 30.3535L21.2891 27.377Z" fill="#2E8B57"/>
</svg>
