<svg width="24" height="30" viewBox="0 0 24 30" fill="none" xmlns="http://www.w3.org/2000/svg">
<path d="M6.07366 16.3162C5.18966 11.8362 4.74833 9.59622 5.70433 7.77488C6.66033 5.95222 8.71499 5.11755 12.8243 3.44955L13.6603 3.10955C16.7643 1.84822 18.3163 1.21755 19.2537 2.03222C20.1897 2.84555 19.8603 4.53889 19.2003 7.92555L16.2603 23.0002H7.39233L6.07366 16.3162ZM3.83366 27.0002C3.83366 25.1149 3.83366 24.1722 4.42033 23.5869C5.00433 23.0002 5.94699 23.0002 7.83366 23.0002H15.8337C17.719 23.0002 18.6617 23.0002 19.247 23.5869C19.8337 24.1722 19.8337 25.1149 19.8337 27.0002V28.3336H3.83366V27.0002ZM1.16699 28.3336H22.5003H1.16699Z" fill="#1AFF8C"/>
<path d="M1.16699 28.3336H22.5003M6.07366 16.3162C5.18966 11.8362 4.74833 9.59622 5.70433 7.77488C6.66033 5.95222 8.71499 5.11755 12.8243 3.44955L13.6603 3.10955C16.7643 1.84822 18.3163 1.21755 19.2537 2.03222C20.1897 2.84555 19.8603 4.53889 19.2003 7.92555L16.2603 23.0002H7.39233L6.07366 16.3162ZM3.83366 27.0002C3.83366 25.1149 3.83366 24.1722 4.42033 23.5869C5.00433 23.0002 5.94699 23.0002 7.83366 23.0002H15.8337C17.719 23.0002 18.6617 23.0002 19.247 23.5869C19.8337 24.1722 19.8337 25.1149 19.8337 27.0002V28.3336H3.83366V27.0002Z" stroke="#34423B" stroke-width="2" stroke-linecap="round" stroke-linejoin="round"/>
</svg>
