<svg width="34" height="34" viewBox="0 0 34 34" fill="none" xmlns="http://www.w3.org/2000/svg">
<g clip-path="url(#clip0_863_8859)">
<path d="M17.0172 24.5307C21.0081 24.5307 24.2433 21.2954 24.2433 17.3045C24.2433 13.3136 21.0081 10.0784 17.0172 10.0784C13.0263 10.0784 9.79102 13.3136 9.79102 17.3045C9.79102 21.2954 13.0263 24.5307 17.0172 24.5307Z" stroke="#4380BE" stroke-width="2" stroke-linecap="round" stroke-linejoin="round"/>
<path d="M27.3397 27.0895C26.0842 27.8918 24.5973 28.2534 23.1136 28.1173C21.6299 27.9812 20.2336 27.3551 19.1451 26.3378C18.0565 25.3204 17.3375 23.9697 17.1014 22.4986C16.8653 21.0274 17.1256 19.5195 17.8412 18.2127C18.5568 16.9058 19.687 15.8743 21.0536 15.2807C22.4203 14.6872 23.9456 14.5654 25.3891 14.9346C26.8326 15.3037 28.1122 16.1428 29.0261 17.3196C29.94 18.4963 30.4363 19.9438 30.4366 21.4338" stroke="#4380BE" stroke-width="2" stroke-linecap="round" stroke-linejoin="round"/>
<path d="M3.59668 21.4338C3.59703 19.9438 4.09328 18.4963 5.00719 17.3196C5.9211 16.1428 7.20069 15.3037 8.6442 14.9346C10.0877 14.5654 11.613 14.6872 12.9797 15.2807C14.3463 15.8743 15.4765 16.9058 16.1921 18.2127C16.9077 19.5195 17.168 21.0274 16.9319 22.4986C16.6958 23.9697 15.9768 25.3204 14.8882 26.3378C13.7997 27.3551 12.4034 27.9812 10.9197 28.1173C9.43597 28.2534 7.94913 27.8918 6.69361 27.0895" stroke="#4380BE" stroke-width="2" stroke-linecap="round" stroke-linejoin="round"/>
<path d="M20.1136 3.85742C21.4463 4.5508 22.5078 5.67136 23.1281 7.03965C23.7483 8.40795 23.8915 9.94481 23.5346 11.4041C23.1777 12.8634 22.3414 14.1607 21.1596 15.0883C19.9778 16.0159 18.519 16.52 17.0167 16.52C15.5143 16.52 14.0555 16.0159 12.8737 15.0883C11.692 14.1607 10.8557 12.8634 10.4988 11.4041C10.1418 9.94481 10.285 8.40795 10.9052 7.03965C11.5255 5.67136 12.587 4.5508 13.9197 3.85742" stroke="#4380BE" stroke-width="2" stroke-linecap="round" stroke-linejoin="round"/>
</g>
<defs>
<clipPath id="clip0_863_8859">
<rect width="33.0339" height="33.0339" fill="white" transform="translate(0.5 0.271484)"/>
</clipPath>
</defs>
</svg>
