<svg width="32" height="21" viewBox="0 0 32 21" fill="none" xmlns="http://www.w3.org/2000/svg">
<path d="M29.2332 14.5176H9.57026M9.57026 14.5176V2.01758M9.57026 14.5176L2.4916 19.0176M2.4916 6.51758H22.1545M22.1545 6.51758V19.0176M22.1545 6.51758L29.2332 2.01758M30.0197 13.8548V2.31758C30.0197 2.03755 30.0197 1.89754 29.934 1.79058C29.8586 1.6965 29.7383 1.62001 29.5903 1.57207C29.422 1.51758 29.2018 1.51758 28.7613 1.51758H10.6128C10.228 1.51758 10.0357 1.51758 9.85461 1.54521C9.69411 1.5697 9.54067 1.61011 9.39992 1.66494C9.24118 1.72678 9.10515 1.81326 8.83309 1.98621L2.44225 6.04895C2.17019 6.2219 2.03416 6.30838 1.93688 6.40929C1.85063 6.49877 1.78708 6.59631 1.74854 6.69835C1.70508 6.81343 1.70508 6.93573 1.70508 7.18032V18.7176C1.70508 18.9976 1.70508 19.1376 1.7908 19.2446C1.86621 19.3387 1.98653 19.4151 2.13452 19.4631C2.30277 19.5176 2.52302 19.5176 2.96351 19.5176H21.112C21.4968 19.5176 21.6892 19.5176 21.8702 19.4899C22.0307 19.4655 22.1841 19.425 22.3249 19.3702C22.4836 19.3084 22.6197 19.2219 22.8917 19.049L29.2826 14.9862C29.5546 14.8133 29.6906 14.7268 29.7879 14.6259C29.8742 14.5364 29.9377 14.4388 29.9763 14.3368C30.0197 14.2217 30.0197 14.0994 30.0197 13.8548Z" stroke="#00954B" stroke-width="2" stroke-linecap="round" stroke-linejoin="round"/>
</svg>
