<svg width="23" height="20" viewBox="0 0 23 20" fill="none" xmlns="http://www.w3.org/2000/svg">
<path d="M20.9703 14.0039H6.96406M6.96406 14.0039V1.50391M6.96406 14.0039L1.92182 18.5039M1.92182 6.00391H15.9281M15.9281 6.00391V18.5039M15.9281 6.00391L20.9703 1.50391M21.5305 13.3412V1.80391C21.5305 1.52388 21.5305 1.38387 21.4695 1.27691C21.4158 1.18283 21.3301 1.10634 21.2246 1.0584C21.1048 1.00391 20.9479 1.00391 20.6341 1.00391H7.70666C7.4326 1.00391 7.29557 1.00391 7.16661 1.03154C7.05228 1.05603 6.94298 1.09644 6.84273 1.15127C6.72965 1.21311 6.63276 1.29958 6.43897 1.47253L1.88667 5.53528C1.69288 5.70823 1.59598 5.7947 1.52669 5.89562C1.46525 5.98509 1.41998 6.08264 1.39253 6.18467C1.36157 6.29976 1.36157 6.42206 1.36157 6.66665V18.2039C1.36157 18.4839 1.36157 18.6239 1.42264 18.7309C1.47635 18.825 1.56206 18.9015 1.66747 18.9494C1.78732 19.0039 1.9442 19.0039 2.25797 19.0039H15.1854C15.4595 19.0039 15.5965 19.0039 15.7255 18.9763C15.8398 18.9518 15.9491 18.9114 16.0494 18.8565C16.1625 18.7947 16.2594 18.7082 16.4531 18.5353L21.0054 14.4725C21.1992 14.2996 21.2961 14.2131 21.3654 14.1122C21.4269 14.0227 21.4721 13.9252 21.4996 13.8231C21.5305 13.7081 21.5305 13.5858 21.5305 13.3412Z" stroke="#00954B" stroke-width="2" stroke-linecap="round" stroke-linejoin="round"/>
</svg>
