<svg width="25" height="21" viewBox="0 0 25 21" fill="none" xmlns="http://www.w3.org/2000/svg">
<path d="M22.6296 14.3135H7.61168M7.61168 14.3135V1.81348M7.61168 14.3135L2.20521 18.8135M2.20521 6.31348H17.2232M17.2232 6.31348V18.8135M17.2232 6.31348L22.6296 1.81348M23.2304 13.6507V2.11348C23.2304 1.83345 23.2304 1.69344 23.1649 1.58648C23.1073 1.4924 23.0154 1.41591 22.9024 1.36797C22.7739 1.31348 22.6056 1.31348 22.2692 1.31348H8.40792C8.11406 1.31348 7.96713 1.31348 7.82886 1.34111C7.70627 1.3656 7.58908 1.40601 7.48158 1.46084C7.36034 1.52268 7.25644 1.60915 7.04865 1.78211L2.16752 5.84485C1.95973 6.0178 1.85583 6.10427 1.78154 6.20519C1.71566 6.29466 1.66712 6.39221 1.63769 6.49424C1.60449 6.60933 1.60449 6.73163 1.60449 6.97622V18.5135C1.60449 18.7935 1.60449 18.9335 1.66997 19.0405C1.72756 19.1346 1.81946 19.211 1.93249 19.259C2.06099 19.3135 2.22921 19.3135 2.56564 19.3135H16.4269C16.7208 19.3135 16.8677 19.3135 17.006 19.2858C17.1286 19.2613 17.2458 19.2209 17.3533 19.1661C17.4745 19.1043 17.5784 19.0178 17.7862 18.8448L22.6673 14.7821C22.8751 14.6092 22.979 14.5227 23.0533 14.4218C23.1192 14.3323 23.1677 14.2347 23.1972 14.1327C23.2304 14.0176 23.2304 13.8953 23.2304 13.6507Z" stroke="#941D58" stroke-width="2" stroke-linecap="round" stroke-linejoin="round"/>
</svg>
