<svg width="82" height="47" viewBox="0 0 82 47" fill="none" xmlns="http://www.w3.org/2000/svg">
<g clip-path="url(#clip0_602_7051)">
<path d="M20.245 35.7167C20.245 40.893 16.0488 45.0892 10.8725 45.0892C5.69621 45.0892 1.5 40.893 1.5 35.7167C1.5 30.5404 5.69621 26.3442 10.8725 26.3442C16.0488 26.3442 20.245 30.5404 20.245 35.7167Z" stroke="#F99650" stroke-width="2"/>
<path d="M44.5992 29.4016C44.5992 38.0649 37.5762 45.0879 28.9129 45.0879C20.2496 45.0879 13.2266 38.0649 13.2266 29.4016C13.2266 20.7383 20.2496 13.7153 28.9129 13.7153C37.5762 13.7153 44.5992 20.7383 44.5992 29.4016Z" stroke="#F99650" stroke-width="2"/>
<path d="M13.2227 29.4C13.2227 28.4798 13.3018 27.5789 13.4534 26.7033C17.3731 27.8247 20.2423 31.436 20.2423 35.7155C20.2423 37.7399 19.6014 39.6128 18.5106 41.1448C15.2656 38.2698 13.2227 34.0737 13.2227 29.4Z" stroke="#00984C" stroke-width="2"/>
<path d="M79.7734 23.0884C79.7734 35.2386 69.9237 45.0884 57.7734 45.0884C45.6232 45.0884 35.7734 35.2386 35.7734 23.0884C35.7734 10.9381 45.6232 1.08838 57.7734 1.08838C69.9237 1.08838 79.7734 10.9381 79.7734 23.0884Z" stroke="#F99650" stroke-width="2"/>
<path d="M41.8554 38.2708C38.0886 34.3218 35.7773 28.9759 35.7773 23.0888C35.7773 20.5837 36.1957 18.1782 36.9656 15.9371C41.5411 18.6788 44.6009 23.6841 44.6009 29.4026C44.6009 32.6949 43.5877 35.7483 41.8554 38.2708Z" stroke="#00984C" stroke-width="2"/>
</g>
<defs>
<clipPath id="clip0_602_7051">
<rect width="81" height="46" fill="white" transform="translate(0.5 0.0883789)"/>
</clipPath>
</defs>
</svg>
