<svg width="40" height="38" viewBox="0 0 40 38" fill="none" xmlns="http://www.w3.org/2000/svg">
<path d="M2.125 14.4372C2.125 13.0006 2.69568 11.6228 3.7115 10.607C4.72733 9.59119 6.10508 9.02051 7.54167 9.02051H32.4583C33.8949 9.02051 35.2727 9.59119 36.2885 10.607C37.3043 11.6228 37.875 13.0006 37.875 14.4372V30.9168C37.875 32.3534 37.3043 33.7312 36.2885 34.747C35.2727 35.7628 33.8949 36.3335 32.4583 36.3335H7.54167C6.10508 36.3335 4.72733 35.7628 3.7115 34.747C2.69568 33.7312 2.125 32.3534 2.125 30.9168V14.4372Z" stroke="#941D58" stroke-width="3.25" stroke-linecap="round" stroke-linejoin="round"/>
<path d="M32.4583 9.02066H7.54167C6.10508 9.02066 4.72733 9.59134 3.7115 10.6072C2.69568 11.623 2.125 13.0007 2.125 14.4373V15.0938C2.125 16.8177 2.80982 18.471 4.02881 19.69C5.24779 20.909 6.90109 21.5938 8.625 21.5938H31.375C33.0989 21.5938 34.7522 20.909 35.9712 19.69C37.1902 18.471 37.875 16.8177 37.875 15.0938V14.4373C37.875 13.0007 37.3043 11.623 36.2885 10.6072C35.2727 9.59134 33.8949 9.02066 32.4583 9.02066ZM12.6398 4.91699C12.6398 4.05504 12.9822 3.22839 13.5917 2.61889C14.2012 2.0094 15.0279 1.66699 15.8898 1.66699H24.1102C24.9721 1.66699 25.7988 2.0094 26.4083 2.61889C27.0178 3.22839 27.3602 4.05504 27.3602 4.91699V9.02066H12.6398V4.91699Z" stroke="#941D58" stroke-width="3.25" stroke-linecap="round" stroke-linejoin="round"/>
</svg>
