<svg width="60" height="25" viewBox="0 0 60 25" fill="none" xmlns="http://www.w3.org/2000/svg">
<path d="M51.0197 16.1951H19.9101M19.9101 16.1951V3.69507M19.9101 16.1951L8.71069 20.6951M8.71069 8.19507H39.8203M39.8203 8.19507V20.6951M39.8203 8.19507L51.0197 3.69507M52.2641 15.5323V3.99507C52.2641 3.71504 52.2641 3.57503 52.1285 3.46807C52.0092 3.37399 51.8188 3.2975 51.5847 3.24957C51.3185 3.19507 50.97 3.19507 50.2731 3.19507H21.5595C20.9508 3.19507 20.6465 3.19507 20.36 3.2227C20.1061 3.2472 19.8633 3.2876 19.6406 3.34243C19.3895 3.40427 19.1743 3.49075 18.7438 3.6637L8.63262 7.72644C8.20218 7.89939 7.98696 7.98587 7.83305 8.08678C7.6966 8.17626 7.59604 8.2738 7.53507 8.37584C7.46631 8.49092 7.46631 8.61322 7.46631 8.85781V20.3951C7.46631 20.6751 7.46631 20.8151 7.60194 20.9221C7.72124 21.0161 7.91161 21.0926 8.14575 21.1406C8.41194 21.1951 8.7604 21.1951 9.45732 21.1951H38.1709C38.7796 21.1951 39.084 21.1951 39.3704 21.1674C39.6243 21.1429 39.8671 21.1025 40.0898 21.0477C40.3409 20.9859 40.5561 20.8994 40.9866 20.7264L51.0978 16.6637C51.5282 16.4907 51.7434 16.4043 51.8974 16.3034C52.0338 16.2139 52.1344 16.1163 52.1953 16.0143C52.2641 15.8992 52.2641 15.7769 52.2641 15.5323Z" stroke="#00954B" stroke-width="2" stroke-linecap="round" stroke-linejoin="round"/>
</svg>
