<svg width="25" height="25" viewBox="0 0 25 25" fill="none" xmlns="http://www.w3.org/2000/svg">
<path d="M12.9863 3.01766V12.5177M12.9863 12.5177L21.4863 7.79537M12.9863 12.5177L4.48633 7.79537M12.9863 12.5177V22.0177M21.4863 17.2399L13.7634 12.9493C13.4798 12.7918 13.338 12.713 13.1878 12.6821C13.0549 12.6548 12.9178 12.6548 12.7849 12.6821C12.6347 12.713 12.4929 12.7918 12.2093 12.9493L4.48633 17.2399M21.9863 16.5762V8.45911C21.9863 8.11646 21.9863 7.94514 21.9358 7.79235C21.8912 7.65717 21.8182 7.53309 21.7217 7.4284C21.6126 7.31006 21.4629 7.22686 21.1634 7.06046L13.7634 2.94934C13.4798 2.79179 13.338 2.71301 13.1878 2.68212C13.0549 2.65479 12.9178 2.65479 12.7849 2.68212C12.6347 2.71301 12.4929 2.79179 12.2093 2.94935L4.8093 7.06046C4.50978 7.22686 4.36001 7.31006 4.25096 7.4284C4.15449 7.53309 4.08148 7.65717 4.03681 7.79235C3.98633 7.94515 3.98633 8.11647 3.98633 8.45911V16.5762C3.98633 16.9189 3.98633 17.0902 4.03681 17.243C4.08148 17.3782 4.15449 17.5022 4.25096 17.6069C4.36001 17.7253 4.50978 17.8085 4.8093 17.9749L12.2093 22.086C12.4929 22.2435 12.6347 22.3223 12.7849 22.3532C12.9178 22.3805 13.0549 22.3805 13.1878 22.3532C13.338 22.3223 13.4798 22.2435 13.7634 22.086L21.1634 17.9749C21.4629 17.8085 21.6126 17.7253 21.7217 17.6069C21.8182 17.5022 21.8912 17.3782 21.9358 17.243C21.9863 17.0902 21.9863 16.9189 21.9863 16.5762Z" stroke="#00954B" stroke-width="2" stroke-linecap="round" stroke-linejoin="round"/>
</svg>
