<svg width="69" height="69" viewBox="0 0 69 69" fill="none" xmlns="http://www.w3.org/2000/svg">
<path d="M37.3281 18.505H31.6722C23.5407 18.505 18.0584 27.2008 21.2615 35.0177C21.7077 36.1068 22.7314 36.8126 23.8642 36.8126H25.8559C26.5273 36.8126 27.1125 37.2906 27.2753 37.9717L29.8396 48.699C30.3743 50.9359 32.2958 52.505 34.5002 52.505C36.7045 52.505 38.6261 50.9359 39.1607 48.699L41.7249 37.9717C41.8878 37.2906 42.4732 36.8126 43.1444 36.8126H45.1362C46.269 36.8126 47.2927 36.1068 47.7389 35.0177C50.942 27.2008 45.4595 18.505 37.3281 18.505Z" stroke="#F99650" stroke-width="2"/>
<path d="M41.5832 11.4217C41.5832 15.3337 38.4118 18.505 34.4998 18.505C30.5879 18.505 27.4165 15.3337 27.4165 11.4217C27.4165 7.5097 30.5879 4.33838 34.4998 4.33838C38.4118 4.33838 41.5832 7.5097 41.5832 11.4217Z" stroke="#F99650" stroke-width="2"/>
<path d="M20.3333 46.8384H17.5" stroke="#00984C" stroke-width="2" stroke-linecap="round" stroke-linejoin="round"/>
<path d="M34.5 61.005V63.8383" stroke="#00984C" stroke-width="2" stroke-linecap="round" stroke-linejoin="round"/>
<path d="M51.4998 46.8384H48.6665" stroke="#00984C" stroke-width="2" stroke-linecap="round" stroke-linejoin="round"/>
</svg>
