<svg width="20" height="23" viewBox="0 0 20 23" fill="none" xmlns="http://www.w3.org/2000/svg">
<path d="M10 2.00838V11.5084M10 11.5084L18.5 6.78609M10 11.5084L1.5 6.78609M10 11.5084V21.0084M18.5 16.2306L10.777 11.9401C10.4934 11.7825 10.3516 11.7037 10.2015 11.6728C10.0685 11.6455 9.93146 11.6455 9.79855 11.6728C9.64838 11.7037 9.50658 11.7825 9.22297 11.9401L1.5 16.2306M19 15.5669V7.44983C19 7.10719 19 6.93587 18.9495 6.78307C18.9049 6.64789 18.8318 6.52381 18.7354 6.41912C18.6263 6.30078 18.4766 6.21758 18.177 6.05118L10.777 1.94007C10.4934 1.78251 10.3516 1.70373 10.2015 1.67285C10.0685 1.64551 9.93146 1.64551 9.79855 1.67285C9.64838 1.70373 9.50658 1.78251 9.22297 1.94007L1.82297 6.05118C1.52345 6.21758 1.37369 6.30078 1.26463 6.41912C1.16816 6.52381 1.09515 6.64789 1.05048 6.78307C1 6.93587 1 7.10719 1 7.44983V15.5669C1 15.9096 1 16.0809 1.05048 16.2337C1.09515 16.3689 1.16816 16.493 1.26463 16.5977C1.37369 16.716 1.52345 16.7992 1.82297 16.9656L9.22297 21.0767C9.50658 21.2343 9.64838 21.313 9.79855 21.3439C9.93146 21.3713 10.0685 21.3713 10.2015 21.3439C10.3516 21.313 10.4934 21.2343 10.777 21.0767L18.177 16.9656C18.4766 16.7992 18.6263 16.716 18.7354 16.5977C18.8318 16.493 18.9049 16.3689 18.9495 16.2337C19 16.0809 19 15.9096 19 15.5669Z" stroke="#941D58" stroke-width="2" stroke-linecap="round" stroke-linejoin="round"/>
</svg>
