<svg width="27" height="24" viewBox="0 0 27 24" fill="none" xmlns="http://www.w3.org/2000/svg">
<path d="M26.4248 22.0596C26.4248 22.3248 26.3194 22.5791 26.1319 22.7667C25.9444 22.9542 25.69 23.0596 25.4248 23.0596H1.4248C1.15959 23.0596 0.905234 22.9542 0.717698 22.7667C0.530161 22.5791 0.424805 22.3248 0.424805 22.0596C0.424805 21.7944 0.530161 21.54 0.717698 21.3525C0.905234 21.1649 1.15959 21.0596 1.4248 21.0596H2.4248V13.0596C2.4248 12.7944 2.53016 12.54 2.7177 12.3525C2.90523 12.1649 3.15959 12.0596 3.4248 12.0596H6.4248C6.69002 12.0596 6.94438 12.1649 7.13191 12.3525C7.31945 12.54 7.4248 12.7944 7.4248 13.0596V21.0596H9.4248V7.05957C9.4248 6.79435 9.53016 6.54 9.7177 6.35246C9.90523 6.16493 10.1596 6.05957 10.4248 6.05957H14.4248C14.69 6.05957 14.9444 6.16493 15.1319 6.35246C15.3194 6.54 15.4248 6.79435 15.4248 7.05957V21.0596H17.4248V1.05957C17.4248 0.794354 17.5302 0.54 17.7177 0.352464C17.9052 0.164927 18.1596 0.0595703 18.4248 0.0595703H23.4248C23.69 0.0595703 23.9444 0.164927 24.1319 0.352464C24.3194 0.54 24.4248 0.794354 24.4248 1.05957V21.0596H25.4248C25.69 21.0596 25.9444 21.1649 26.1319 21.3525C26.3194 21.54 26.4248 21.7944 26.4248 22.0596Z" fill="#4380BE"/>
</svg>
