<svg width="33" height="28" viewBox="0 0 33 28" fill="none" xmlns="http://www.w3.org/2000/svg">
<g clip-path="url(#clip0_647_2781)">
<path d="M23.5821 0C20.2794 0 18.1946 1.60737 16.9844 3.06069C15.7746 1.60731 13.69 0 10.3861 0C4.7622 0 0.984375 5.20983 0.984375 10.0754C0.984375 17.1589 14.5901 26.652 16.1415 27.7109C16.3956 27.8841 16.69 27.9707 16.9844 27.9707C17.2788 27.9707 17.5733 27.8839 17.8273 27.7109C19.3786 26.6519 32.9844 17.1589 32.9844 10.0754C32.9844 5.20983 29.2061 0 23.5821 0ZM16.9838 24.6531C11.626 20.8426 3.97466 14.0223 3.97466 10.0754C3.97466 7.10491 6.20277 2.98971 10.3861 2.98971C14.1915 2.98971 15.535 6.27611 15.5868 6.40646C15.8053 6.98371 16.3587 7.36137 16.9759 7.36651H16.9864C17.5997 7.36651 18.1531 6.98661 18.379 6.41651C18.4341 6.27634 19.7781 2.98994 23.5821 2.98994C27.7659 2.98994 29.9947 7.10446 29.9947 10.0757C29.9943 14.0178 22.3421 20.8402 16.9839 24.6534L16.9838 24.6531Z" fill="#111111"/>
</g>
<defs>
<clipPath id="clip0_647_2781">
<rect width="32" height="28" fill="white" transform="translate(0.984375)"/>
</clipPath>
</defs>
</svg>
