<svg width="24" height="25" viewBox="0 0 24 25" fill="none" xmlns="http://www.w3.org/2000/svg">
<path d="M12 2.69503V12.195M12 12.195L20.5 7.47274M12 12.195L3.5 7.47274M12 12.195V21.695M20.5 16.9173L12.777 12.6267C12.4934 12.4692 12.3516 12.3904 12.2015 12.3595C12.0685 12.3322 11.9315 12.3322 11.7986 12.3595C11.6484 12.3904 11.5066 12.4692 11.223 12.6267L3.5 16.9173M21 16.2536V8.13648C21 7.79383 21 7.62251 20.9495 7.46971C20.9049 7.33454 20.8318 7.21045 20.7354 7.10576C20.6263 6.98743 20.4766 6.90423 20.177 6.73782L12.777 2.62671C12.4934 2.46916 12.3516 2.39038 12.2015 2.35949C12.0685 2.33216 11.9315 2.33216 11.7986 2.35949C11.6484 2.39038 11.5066 2.46916 11.223 2.62671L3.82297 6.73783C3.52345 6.90423 3.37369 6.98743 3.26463 7.10577C3.16816 7.21046 3.09515 7.33454 3.05048 7.46972C3 7.62251 3 7.79383 3 8.13648V16.2536C3 16.5962 3 16.7675 3.05048 16.9203C3.09515 17.0555 3.16816 17.1796 3.26463 17.2843C3.37369 17.4026 3.52345 17.4858 3.82297 17.6522L11.223 21.7633C11.5066 21.9209 11.6484 21.9997 11.7986 22.0306C11.9315 22.0579 12.0685 22.0579 12.2015 22.0306C12.3516 21.9997 12.4934 21.9209 12.777 21.7633L20.177 17.6522C20.4766 17.4858 20.6263 17.4026 20.7354 17.2843C20.8318 17.1796 20.9049 17.0555 20.9495 16.9203C21 16.7675 21 16.5962 21 16.2536Z" stroke="#00954B" stroke-width="2" stroke-linecap="round" stroke-linejoin="round"/>
</svg>
