<svg width="28" height="52" viewBox="0 0 28 52" fill="none" xmlns="http://www.w3.org/2000/svg">
<g clip-path="url(#clip0_1069_6406)">
<path d="M3.02782 43.4154L3.02859 43.4136L9.3281 28.6997C9.32813 28.6997 9.32817 28.6996 9.3282 28.6995C10.0269 27.0711 10.5747 24.4101 10.5747 22.6388C10.5747 21.5591 10.2454 20.5242 9.64677 19.726C9.04904 18.9291 8.10676 18.2888 6.93716 18.2888C6.5891 18.2888 6.29966 17.9996 6.29966 17.6513C6.29966 17.644 6.30111 17.5177 6.5365 17.3413C6.77111 17.1654 7.1612 17.0138 7.64966 17.0138H20.4747C20.9618 17.0138 21.3518 17.1656 21.5871 17.3422C21.824 17.52 21.8247 17.6467 21.8247 17.6513C21.8247 17.9975 21.5335 18.2888 21.1872 18.2888C20.0176 18.2888 19.0753 18.9291 18.4775 19.726C17.8789 20.5242 17.5497 21.5591 17.5497 22.6388C17.5497 24.4096 18.0971 27.0704 18.7961 28.6975C18.7962 28.6978 18.7964 28.6982 18.7965 28.6985L24.9747 43.1271V43.1322L25.0968 43.4161C25.3771 44.0676 25.6366 44.8185 25.824 45.4926C26.0238 46.2113 26.0997 46.6945 26.0997 46.8676C26.0997 46.8662 26.0996 46.8865 26.092 46.9312C26.0845 46.975 26.0714 47.0332 26.0499 47.1053C26.0065 47.2513 25.937 47.4278 25.8406 47.6209C25.6434 48.0156 25.3767 48.3942 25.114 48.6569C24.9587 48.8123 24.5349 49.076 23.8553 49.3022C23.2089 49.5173 22.4976 49.6426 21.8997 49.6426H6.22466C5.62713 49.6426 4.91528 49.5164 4.26798 49.3004C3.58714 49.0733 3.16299 48.8092 3.00905 48.6557C2.7499 48.3971 2.48335 48.0191 2.28514 47.6223C2.18832 47.4284 2.11832 47.251 2.07459 47.1043C2.05299 47.0318 2.03978 46.9735 2.03229 46.9297C2.02506 46.8874 2.02468 46.8674 2.02466 46.8674L2.02466 46.8676C2.02466 46.6956 2.10038 46.2131 2.3003 45.494C2.48779 44.8197 2.74731 44.0682 3.02782 43.4154ZM17.5928 11.2951L17.5928 11.2944C17.5927 11.1551 17.6475 11.0216 17.748 10.921C17.8475 10.8214 17.9824 10.7655 18.1232 10.7654C18.2639 10.7653 18.3989 10.8212 18.4984 10.9206C18.5979 11.0201 18.6539 11.1549 18.654 11.2955C18.6539 11.4361 18.598 11.5709 18.4986 11.6703C18.3991 11.7698 18.2641 11.8257 18.1234 11.8257C17.9827 11.8257 17.8477 11.7698 17.7482 11.6703C17.6487 11.5708 17.5928 11.4358 17.5928 11.2951ZM15.7201 4.53308L17.0741 5.11292L15.7201 4.53309C15.6417 4.71626 15.5268 4.88156 15.3825 5.01897C15.2382 5.15638 15.0675 5.26301 14.8807 5.33239C14.7224 5.3912 14.5553 5.4222 14.3868 5.42427L14.3129 5.41975C13.9393 5.39697 13.5886 5.23259 13.3321 4.96013C13.0755 4.68766 12.9326 4.32763 12.9324 3.95341C12.9321 3.57919 13.0746 3.21898 13.3308 2.94619C13.585 2.67546 13.9322 2.51107 14.3025 2.48587C14.4987 2.47701 14.6947 2.50755 14.8789 2.57572C15.0658 2.64486 15.2367 2.75128 15.3812 2.8885C15.5257 3.02572 15.6407 3.19088 15.7194 3.37396C15.7981 3.55704 15.8387 3.75419 15.8388 3.95344C15.839 4.1527 15.7986 4.3499 15.7201 4.53308ZM10.2294 10.273C10.3349 10.1675 10.478 10.1082 10.6272 10.1082C10.7763 10.1082 10.9194 10.1675 11.0249 10.273C11.1304 10.3785 11.1897 10.5215 11.1897 10.6707C11.1897 10.8199 11.1304 10.963 11.0249 11.0685C10.9194 11.174 10.7763 11.2332 10.6272 11.2332C10.478 11.2332 10.3349 11.174 10.2294 11.0685C10.1239 10.963 10.0647 10.8199 10.0647 10.6707C10.0647 10.5215 10.1239 10.3785 10.2294 10.273Z" stroke="#941D58" stroke-width="3"/>
</g>
<defs>
<clipPath id="clip0_1069_6406">
<rect width="28" height="52" fill="white"/>
</clipPath>
</defs>
</svg>
