<svg width="546" height="608" viewBox="0 0 546 608" fill="none" xmlns="http://www.w3.org/2000/svg">
<g clip-path="url(#clip0_483_2608)">
<g opacity="0.32">
<path d="M794.23 325.717C713.373 148.293 503.995 70.01 326.57 150.867C149.146 231.724 70.8628 441.102 151.72 618.526C232.577 795.95 441.955 874.234 619.379 793.377C796.803 712.52 875.086 503.142 794.23 325.717Z" stroke="#F99650"/>
<path d="M761.546 340.612C688.915 181.238 500.838 110.919 341.464 183.55C182.09 256.181 111.771 444.258 184.402 603.632C257.033 763.006 445.11 833.325 604.484 760.694C763.858 688.063 834.177 499.986 761.546 340.612Z" stroke="#FF5F08"/>
<path d="M728.865 355.502C664.46 214.178 497.684 151.823 356.36 216.228C215.037 280.633 152.682 447.409 217.087 588.733C281.492 730.057 448.268 792.412 589.592 728.007C730.915 663.602 793.27 496.826 728.865 355.502Z" stroke="#F99650"/>
<path d="M696.182 370.397C640.003 247.123 494.528 192.732 371.255 248.911C247.981 305.09 193.59 450.565 249.769 573.839C305.948 697.113 451.423 751.504 574.697 695.325C697.971 639.146 752.362 493.67 696.182 370.397Z" stroke="#941D58"/>
<path d="M663.499 385.29C615.546 280.067 491.372 233.64 386.148 281.593C280.925 329.546 234.498 453.72 282.451 558.944C330.404 664.167 454.578 710.594 559.802 662.641C665.025 614.688 711.452 490.514 663.499 385.29Z" stroke="#F99650"/>
<path d="M630.819 400.183C591.092 313.01 488.219 274.547 401.046 314.275C313.872 354.002 275.41 456.875 315.137 544.048C354.864 631.221 457.737 669.684 544.911 629.957C632.084 590.23 670.546 487.357 630.819 400.183Z" stroke="#4380BE"/>
<path d="M598.131 415.089C566.63 345.966 485.058 315.467 415.935 346.968C346.811 378.469 316.313 460.042 347.814 529.165C379.315 598.288 460.887 628.787 530.011 597.285C599.134 565.784 629.632 484.212 598.131 415.089Z" stroke="#F99650"/>
<path d="M565.448 429.982C542.173 378.909 481.901 356.375 430.829 379.65C379.756 402.926 357.221 463.197 380.497 514.269C403.772 565.342 464.043 587.877 515.116 564.601C566.189 541.326 588.723 481.055 565.448 429.982Z" stroke="#945123"/>
<path d="M532.767 444.875C517.718 411.853 478.748 397.282 445.725 412.332C412.702 427.381 398.132 466.351 413.181 499.374C428.231 532.397 467.201 546.967 500.224 531.918C533.246 516.868 547.817 477.898 532.767 444.875Z" stroke="#F99650"/>
<path d="M500.084 459.768C493.261 444.796 475.592 438.19 460.619 445.013C445.647 451.836 439.041 469.506 445.864 484.478C452.687 499.451 470.356 506.057 485.329 499.233C500.301 492.41 506.908 474.741 500.084 459.768Z" stroke="#00954B"/>
</g>
</g>
<defs>
<clipPath id="clip0_483_2608">
<rect width="712.623" height="343.236" fill="white" transform="translate(0.985352 295.652) rotate(-24.5)"/>
</clipPath>
</defs>
</svg>
