<svg width="397" height="424" viewBox="0 0 397 424" fill="none" xmlns="http://www.w3.org/2000/svg">
<g clip-path="url(#clip0_622_5766)">
<path d="M257.465 196.755L219.494 159.664C219.198 157.206 219.086 154.826 219.159 152.525C219.24 150.255 219.368 148.036 219.582 145.891C219.585 145.434 219.596 145.008 219.577 144.59C219.55 141.698 219.413 139.814 219.152 138.877C217.641 133.467 214.437 128.4 209.6 123.658C204.725 118.895 199.57 115.807 194.112 114.431C183.661 111.714 174.557 111.488 166.773 113.662C163.123 114.681 159.904 116.199 157.088 118.224C156.207 118.796 155.38 119.45 154.58 120.195L154.083 120.627C152.172 122.399 150.474 124.469 149.049 126.822L83.6927 109.988C83.1642 109.843 82.6442 109.727 82.1157 109.582C64.4782 105.353 50.7876 107.222 41.0612 115.249L38.4881 117.564C28.3969 127.778 26.1243 142.813 31.6615 162.638C38.8279 188.297 49.4396 214.296 63.4574 240.614C77.4753 266.932 91.6173 293.346 105.905 319.817L177.815 338.339L170.59 312.469L196.725 319.179L203.959 345.079L275.83 363.579L277.338 303.538L277.5 296.781L311.088 294.307L285.883 204.065L257.465 196.755ZM173.666 193.185L108.28 176.359L101.054 150.49L128.913 157.662L166.44 167.315L173.666 193.185ZM228.39 227.844C226.564 229.69 223.786 230.107 220.103 229.149C216.39 228.198 212.929 226.168 209.749 223.049C206.538 219.938 204.444 216.516 203.423 212.859C202.401 209.202 202.774 206.459 204.6 204.614C206.396 202.776 209.165 202.329 212.878 203.279C216.56 204.238 220.022 206.268 223.241 209.409C226.422 212.528 228.537 215.912 229.567 219.599C230.596 223.286 230.186 226.007 228.39 227.844Z" stroke="#C2D280"/>
<path d="M199.614 79.4034L168.645 107.438L157.02 117.982L154.58 120.195L154.083 120.627C152.172 122.399 150.474 124.47 149.049 126.823L83.6929 109.989C83.1644 109.843 82.6443 109.728 82.1158 109.582C64.4783 105.353 50.7877 107.223 41.0614 115.25L90.3855 70.4905C100.477 60.2766 115.548 57.7612 135.59 62.9145L199.614 79.4034Z" stroke="#C2D280"/>
<path d="M128.913 157.663L101.054 150.49L108.28 176.36L173.666 193.185L166.44 167.316L128.913 157.663ZM223.241 209.409C220.022 206.269 216.56 204.238 212.878 203.28C209.165 202.329 206.396 202.777 204.6 204.614C202.774 206.46 202.401 209.203 203.423 212.86C204.444 216.517 206.538 219.939 209.749 223.049C212.929 226.168 216.39 228.199 220.103 229.149C223.786 230.108 226.564 229.69 228.39 227.845C230.186 226.007 230.588 223.256 229.567 219.599C228.545 215.942 226.421 212.528 223.241 209.409ZM154.58 120.196C155.38 119.451 156.206 118.797 157.087 118.225L157.02 117.983L154.58 120.196ZM128.913 157.663L101.054 150.49L108.28 176.36L173.666 193.185L166.44 167.316L128.913 157.663ZM223.241 209.409C220.022 206.269 216.56 204.238 212.878 203.28C209.165 202.329 206.396 202.777 204.6 204.614C202.774 206.46 202.401 209.203 203.423 212.86C204.444 216.517 206.538 219.939 209.749 223.049C212.929 226.168 216.39 228.199 220.103 229.149C223.786 230.108 226.564 229.69 228.39 227.845C230.186 226.007 230.588 223.256 229.567 219.599C228.545 215.942 226.421 212.528 223.241 209.409ZM128.913 157.663L101.054 150.49L108.28 176.36L173.666 193.185L166.44 167.316L128.913 157.663ZM223.241 209.409C220.022 206.269 216.56 204.238 212.878 203.28C209.165 202.329 206.396 202.777 204.6 204.614C202.774 206.46 202.401 209.203 203.423 212.86C204.444 216.517 206.538 219.939 209.749 223.049C212.929 226.168 216.39 228.199 220.103 229.149C223.786 230.108 226.564 229.69 228.39 227.845C230.186 226.007 230.588 223.256 229.567 219.599C228.545 215.942 226.421 212.528 223.241 209.409ZM223.241 209.409C220.022 206.269 216.56 204.238 212.878 203.28C209.165 202.329 206.396 202.777 204.6 204.614C202.774 206.46 202.401 209.203 203.423 212.86C204.444 216.517 206.538 219.939 209.749 223.049C212.929 226.168 216.39 228.199 220.103 229.149C223.786 230.108 226.564 229.69 228.39 227.845C230.186 226.007 230.588 223.256 229.567 219.599C228.545 215.942 226.421 212.528 223.241 209.409ZM128.913 157.663L101.054 150.49L108.28 176.36L173.666 193.185L166.44 167.316L128.913 157.663ZM223.241 209.409C220.022 206.269 216.56 204.238 212.878 203.28C209.165 202.329 206.396 202.777 204.6 204.614C202.774 206.46 202.401 209.203 203.423 212.86C204.444 216.517 206.538 219.939 209.749 223.049C212.929 226.168 216.39 228.199 220.103 229.149C223.786 230.108 226.564 229.69 228.39 227.845C230.186 226.007 230.588 223.256 229.567 219.599C228.545 215.942 226.421 212.528 223.241 209.409ZM128.913 157.663L101.054 150.49L108.28 176.36L173.666 193.185L166.44 167.316L128.913 157.663Z" stroke="#C2D280"/>
<path d="M337.781 156.992L285.884 204.066L257.466 196.756L273.347 182.351L281.889 174.622L281.88 174.592L309.364 149.682L337.781 156.992Z" stroke="#C2D280"/>
<path d="M309.363 149.681L281.88 174.592L281.888 174.622L273.347 182.351L257.466 196.755L219.495 159.665L271.392 112.591L309.363 149.681Z" stroke="#C2D280"/>
<path d="M337.782 156.991L362.987 247.233L311.09 294.307L285.885 204.065L337.782 156.991Z" stroke="#C2D280"/>
<path d="M328.679 278.349L327.725 316.505L275.828 363.58L277.336 303.538L277.498 296.781L311.086 294.307L328.679 278.349Z" stroke="#C2D280"/>
<path d="M271.05 91.8033C271.345 92.8611 271.479 95.202 271.48 98.8178C271.266 100.963 271.138 103.181 271.057 105.452C270.984 107.753 271.096 110.133 271.392 112.591L219.495 159.665C219.198 157.207 219.087 154.827 219.16 152.526C219.241 150.256 219.369 148.037 219.583 145.892C219.586 145.435 219.597 145.009 219.578 144.59C219.551 141.698 219.414 139.814 219.152 138.878C217.641 133.468 214.438 128.401 209.601 123.659C204.726 118.896 199.57 115.807 194.113 114.432C183.662 111.715 174.557 111.489 166.774 113.663C163.123 114.682 159.905 116.2 157.088 118.225L157.021 117.983L168.646 107.438L199.615 79.4041L204.939 74.594C208.565 70.8118 213.158 68.1606 218.671 66.5884C226.454 64.4144 235.559 64.6407 246.01 67.358C251.468 68.7332 256.623 71.8218 261.498 76.585C266.335 81.3264 269.539 86.3937 271.05 91.8033Z" stroke="#C2D280"/>
<path d="M128.913 157.663L108.28 176.36" stroke="#C2D280"/>
<path d="M196.728 319.179L197.175 320.78L177.817 338.339L170.592 312.47L196.728 319.179Z" stroke="#C2D280"/>
</g>
<defs>
<clipPath id="clip0_622_5766">
<rect width="313.237" height="351.437" fill="white" transform="translate(0.549805 84.5515) rotate(-15.6051)"/>
</clipPath>
</defs>
</svg>
