<svg width="542" height="608" viewBox="0 0 542 608" fill="none" xmlns="http://www.w3.org/2000/svg">
<g clip-path="url(#clip0_339_1532)">
<g opacity="0.32">
<path d="M-251.426 326.315C-170.862 148.758 38.3868 70.129 215.944 150.693C393.502 231.257 472.13 440.506 391.566 618.063C311.002 795.62 101.754 874.249 -75.8037 793.685C-253.361 713.121 -331.99 503.872 -251.426 326.315Z" stroke="#F99650"/>
<path d="M-218.718 341.156C-146.35 181.662 41.6106 111.032 201.104 183.4C360.598 255.768 431.228 443.729 358.86 603.223C286.492 762.717 98.531 833.346 -60.9628 760.978C-220.456 688.61 -291.086 500.649 -218.718 341.156Z" stroke="#FF5F08"/>
<path d="M-186.013 355.992C-121.841 214.562 44.8318 151.932 186.262 216.103C327.692 280.275 390.322 446.948 326.15 588.378C261.978 729.808 95.3055 792.438 -46.1244 728.266C-187.554 664.095 -250.184 497.422 -186.013 355.992Z" stroke="#F99650"/>
<path d="M-153.305 370.832C-97.3295 247.466 48.0557 192.835 171.422 248.811C294.788 304.786 349.419 450.172 293.444 573.538C237.468 696.904 92.0828 751.535 -31.2835 695.559C-154.65 639.584 -209.281 494.199 -153.305 370.832Z" stroke="#941D58"/>
<path d="M-120.597 385.672C-72.8175 280.37 51.2797 233.738 156.582 281.517C261.884 329.297 308.516 453.394 260.737 558.696C212.957 663.999 88.8602 710.63 -16.4422 662.851C-121.745 615.072 -168.376 490.974 -120.597 385.672Z" stroke="#F99650"/>
<path d="M-87.893 400.511C-48.3098 313.272 54.4997 274.64 141.738 314.223C228.977 353.807 267.61 456.616 228.026 543.855C188.443 631.093 85.6335 669.726 -1.60517 630.143C-88.8439 590.559 -127.476 487.75 -87.893 400.511Z" stroke="#4380BE"/>
<path d="M-55.1804 415.363C-23.7933 346.187 57.7285 315.554 126.903 346.941C196.079 378.329 226.712 459.85 195.325 529.025C163.937 598.2 82.4157 628.834 13.2407 597.446C-55.9344 566.059 -86.5675 484.538 -55.1804 415.363Z" stroke="#F99650"/>
<path d="M-22.4722 430.202C0.718713 379.091 60.9525 356.457 112.064 379.648C163.175 402.839 185.809 463.073 162.618 514.184C139.427 565.295 79.1931 587.929 28.0819 564.738C-23.0293 541.547 -45.6632 481.313 -22.4722 430.202Z" stroke="#945123"/>
<path d="M10.2326 445.041C25.2274 411.994 64.1735 397.359 97.221 412.354C130.269 427.349 144.903 466.295 129.908 499.342C114.914 532.39 75.9675 547.024 42.9199 532.03C9.87241 517.035 -4.76221 478.089 10.2326 445.041Z" stroke="#F99650"/>
<path d="M42.9407 459.88C49.7394 444.897 67.3975 438.261 82.3812 445.06C97.365 451.859 104 469.517 97.2016 484.5C90.403 499.484 72.7449 506.119 57.7611 499.321C42.7774 492.522 36.1421 474.864 42.9407 459.88Z" stroke="#00954B"/>
</g>
</g>
<defs>
<clipPath id="clip0_339_1532">
<rect width="712.623" height="343.236" fill="white" transform="matrix(-0.910644 -0.413191 -0.413191 0.910644 541.768 294.941)"/>
</clipPath>
</defs>
</svg>
