<svg width="28" height="39" viewBox="0 0 28 39" fill="none" xmlns="http://www.w3.org/2000/svg">
<path d="M27.8808 18.1777C27.8335 17.9773 27.7374 17.7918 27.6011 17.6375C27.4648 17.4832 27.2925 17.365 27.0996 17.2933L18.098 13.9167L20.3886 2.4589C20.4405 2.19268 20.4044 1.91682 20.2857 1.67293C20.167 1.42905 19.9723 1.23038 19.7308 1.1069C19.4893 0.983425 19.2142 0.941841 18.947 0.988426C18.6798 1.03501 18.435 1.16724 18.2496 1.36515L0.749563 20.1152C0.60743 20.2649 0.50461 20.4476 0.450287 20.6468C0.395965 20.846 0.391833 21.0555 0.438261 21.2567C0.484689 21.4579 0.58023 21.6444 0.716349 21.7997C0.852468 21.9549 1.02493 22.0741 1.21831 22.1464L10.223 25.523L7.93863 36.9683C7.88676 37.2345 7.92288 37.5104 8.04155 37.7542C8.16022 37.9981 8.35499 38.1968 8.59648 38.3203C8.83797 38.4438 9.11306 38.4853 9.38025 38.4388C9.64744 38.3922 9.89224 38.2599 10.0777 38.062L27.5777 19.312C27.7173 19.1622 27.8179 18.9804 27.8707 18.7826C27.9236 18.5849 27.927 18.3771 27.8808 18.1777ZM11.2527 33.1511L12.8886 24.9667C12.9472 24.6765 12.9008 24.3748 12.7577 24.1156C12.6146 23.8563 12.3842 23.6563 12.1074 23.5511L3.85113 20.4495L17.073 6.2839L15.4386 14.4683C15.3801 14.7585 15.4265 15.0602 15.5695 15.3194C15.7126 15.5787 15.9431 15.7787 16.2199 15.8839L24.4699 18.9777L11.2527 33.1511Z" fill="#E78020"/>
</svg>
