<svg width="41" height="41" viewBox="0 0 41 41" fill="none" xmlns="http://www.w3.org/2000/svg">
<path d="M18.5 5.51161C19.3194 3.53931 22.1133 3.53931 22.9327 5.51161L23.9458 7.95022C24.4535 9.17245 25.8549 9.75292 27.0782 9.24772L29.5189 8.23974C31.493 7.42451 33.4686 9.4001 32.6533 11.3741L31.6453 13.8149C31.1401 15.0382 31.7206 16.4395 32.9429 16.9473L35.3815 17.9604C37.3538 18.7798 37.3538 21.5737 35.3815 22.3931L32.9428 23.4062C31.7206 23.914 31.1401 25.3154 31.6453 26.5387L32.6533 28.9794C33.4686 30.9534 31.493 32.929 29.5189 32.1138L27.0782 31.1058C25.8549 30.6006 24.4535 31.1811 23.9458 32.4033L22.9327 34.8419C22.1133 36.8142 19.3194 36.8142 18.5 34.8419L17.4869 32.4033C16.9791 31.1811 15.5777 30.6006 14.3544 31.1058L11.9137 32.1138C9.93965 32.929 7.96406 30.9534 8.77929 28.9794L9.78727 26.5387C10.2925 25.3154 9.712 23.914 8.48977 23.4062L6.05116 22.3931C4.07886 21.5737 4.07886 18.7798 6.05116 17.9604L8.48977 16.9473C9.712 16.4395 10.2925 15.0382 9.78727 13.8149L8.77929 11.3741C7.96406 9.4001 9.93965 7.42451 11.9137 8.23974L14.3544 9.24772C15.5777 9.75292 16.9791 9.17245 17.4869 7.95022L18.5 5.51161Z" fill="white"/>
<g clip-path="url(#clip0_684_565)">
<path d="M20.2583 19.3679C20.2583 18.2641 20.2583 17.7119 20.6014 17.3692C20.9441 17.0261 21.4963 17.0261 22.6001 17.0261H25.7225C26.8262 17.0261 27.3785 17.0261 27.7212 17.3692C28.0643 17.7119 28.0643 18.2641 28.0643 19.3679C28.0643 20.4717 28.0643 21.0239 27.7212 21.3666C27.3785 21.7097 26.8262 21.7097 25.7225 21.7097H22.6001C21.4963 21.7097 20.9441 21.7097 20.6014 21.3666C20.2583 21.0239 20.2583 20.4717 20.2583 19.3679Z" stroke="#00984C" stroke-width="0.585446"/>
<path d="M21.8193 17.0262V16.2456C21.8193 15.6245 22.0661 15.0289 22.5052 14.5897C22.9444 14.1505 23.54 13.9038 24.1611 13.9038C24.7822 13.9038 25.3778 14.1505 25.817 14.5897C26.2562 15.0289 26.5029 15.6245 26.5029 16.2456V17.0262" stroke="#00984C" stroke-width="0.585446" stroke-linecap="round"/>
</g>
<g clip-path="url(#clip1_684_565)">
<path d="M20.1061 21.295L20.0866 21.3324L20.1166 21.362C20.2449 21.4887 20.3097 21.6195 20.3097 21.7461C20.3097 21.9889 20.1061 22.2934 19.7264 22.5411C19.3504 22.7863 18.8132 22.967 18.1745 22.967C17.8864 22.967 17.6121 22.9415 17.3601 22.8959C17.15 22.8579 16.7901 22.8283 16.5548 22.8498C16.4958 22.8552 16.4417 22.864 16.3987 22.878C16.3771 22.885 16.3563 22.8939 16.3385 22.9058C16.3208 22.9177 16.303 22.9345 16.293 22.9582C16.2704 23.0114 16.2993 23.0604 16.3322 23.0946C16.3668 23.1307 16.4222 23.1687 16.498 23.21L16.4978 23.2104L16.5043 23.213C16.9732 23.3984 17.5529 23.5039 18.1745 23.5039C18.9358 23.5039 19.601 23.2901 20.0774 22.9648C20.5526 22.6405 20.8466 22.1999 20.8466 21.7461C20.8466 21.4184 20.676 21.1273 20.3946 20.8917L20.3401 20.8461L20.3073 20.9091L20.1061 21.295Z" fill="#00984C" stroke="#00984C" stroke-width="0.114286"/>
<path d="M18.053 21.4786L18.053 21.4786L17.9853 21.4659V21.5347V21.9573V22.0064L18.0338 22.0138L18.0425 21.9573L18.0338 22.0138L18.0339 22.0138L18.0341 22.0139L18.0347 22.014L18.037 22.0143L18.0459 22.0156L18.0798 22.0201C18.1091 22.0238 18.1517 22.0288 18.2049 22.0339C18.3114 22.0441 18.4607 22.0547 18.6326 22.0564C18.975 22.0599 19.4125 22.0282 19.7786 21.8837C20.1208 21.7486 20.3872 21.5053 20.5679 21.2438C20.7479 20.9832 20.8465 20.6991 20.8465 20.4783C20.8465 20.1506 20.6759 19.8595 20.3946 19.6239L20.3401 19.5783L20.3072 19.6413L20.106 20.0271L20.0865 20.0646L20.1166 20.0942C20.2449 20.2209 20.3096 20.3517 20.3096 20.4783C20.3096 20.5907 20.2551 20.7851 20.1329 20.9759C20.0116 21.1653 19.8272 21.345 19.5735 21.4352C19.2747 21.5415 18.8964 21.5534 18.5883 21.5374C18.4351 21.5295 18.3009 21.5147 18.2052 21.5019C18.1573 21.4956 18.119 21.4897 18.0929 21.4854L18.063 21.4804L18.0554 21.479L18.0535 21.4787L18.0531 21.4786L18.053 21.4786L18.053 21.4786Z" fill="#00984C" stroke="#00984C" stroke-width="0.114286"/>
<path d="M18.1085 19.7362C18.1085 19.635 18.1048 19.5678 18.0992 19.5205C18.0996 19.4718 18.0997 19.4075 18.0997 19.3239C18.0997 19.2577 18.0963 19.198 18.09 19.1439C18.0899 19.1435 18.0899 19.143 18.0898 19.1425C18.0824 19.0801 18.0711 19.0252 18.0563 18.9764C18.062 18.9713 18.0663 18.9657 18.0669 18.965C18.0669 18.9649 18.0669 18.9649 18.0669 18.9649C18.0678 18.9639 18.0681 18.9635 18.0681 18.9635C18.0681 18.9636 18.0652 18.967 18.0612 18.97C18.06 18.9709 18.0581 18.9722 18.0555 18.9737C18.0448 18.939 18.0324 18.9074 18.0185 18.8784C18.0252 18.8789 18.0324 18.8807 18.04 18.8848C18.0512 18.8908 18.0571 18.8989 18.0594 18.9026C18.0618 18.9065 18.0628 18.9094 18.0629 18.9097C18.0629 18.9098 18.0629 18.9098 18.0629 18.9097C18.0628 18.9092 18.062 18.9063 18.0611 18.8998C18.0602 18.8935 18.0593 18.885 18.0583 18.8737M18.1085 19.7362C18.1487 19.7362 18.1887 19.7362 18.2282 19.7362C19.4657 19.7368 20.3668 19.7371 20.3668 19.2105C20.3668 18.6751 19.3231 18.4723 18.0502 18.4665C18.0502 18.4864 18.0502 18.5054 18.0503 18.5236M18.1085 19.7362H18.1656C18.1656 19.7159 18.1655 19.6969 18.1652 19.6791M18.1085 19.7362V19.679C18.1275 19.679 18.1464 19.6791 18.1652 19.6791M18.0503 18.5236C18.0313 18.5235 18.0122 18.5235 17.9931 18.5235C17.9935 18.6809 17.9957 18.7797 17.9989 18.8409C18.0001 18.8429 18.0012 18.8449 18.0023 18.847C18.0062 18.8539 18.0099 18.861 18.0136 18.8683C18.0165 18.8675 18.0197 18.8668 18.0232 18.8665C18.0363 18.8651 18.0484 18.8682 18.0583 18.8737M18.0503 18.5236C18.0508 18.7094 18.0537 18.8118 18.0578 18.8666C18.058 18.8691 18.0581 18.8715 18.0583 18.8737M18.0503 18.5236C18.6751 18.5265 19.2405 18.5771 19.6518 18.6898C19.864 18.7479 20.0307 18.8214 20.1432 18.9099C20.2544 18.9973 20.3097 19.0966 20.3097 19.2105C20.3097 19.3256 20.2607 19.4094 20.1645 19.4746C20.0647 19.5423 19.9142 19.5894 19.7157 19.6207C19.3431 19.6795 18.8273 19.6793 18.2257 19.6791C18.2056 19.6791 18.1855 19.6791 18.1652 19.6791M18.0583 18.8737C18.0621 18.8758 18.0655 18.8783 18.0686 18.881C18.0782 18.8893 18.083 18.8987 18.0852 18.9038C18.0878 18.9095 18.0893 18.915 18.0904 18.9194C18.0942 18.9352 18.0962 18.9589 18.0975 18.9916C18.0989 19.0258 18.0997 19.0743 18.0997 19.1425V19.1442L18.0996 19.1442C18.0968 19.2379 18.0996 19.2893 18.1045 19.3213C18.1087 19.3489 18.1143 19.3623 18.1221 19.381C18.1227 19.3823 18.1233 19.3838 18.1239 19.3852C18.1442 19.4337 18.1623 19.49 18.1652 19.6791M17.6085 20.1981L17.5865 20.2716H17.6632C18.4147 20.2716 19.2021 20.2349 19.803 20.0892C20.1032 20.0165 20.362 19.9154 20.5468 19.7742C20.7336 19.6315 20.8465 19.4461 20.8465 19.2105C20.8465 18.9729 20.7192 18.7794 20.5157 18.6255C20.3132 18.4722 20.0306 18.3541 19.7058 18.2642C19.0555 18.0844 18.2188 18.0134 17.4653 18.0134H17.4082L17.4082 18.0706C17.4082 18.2697 17.4457 18.4019 17.5071 18.5002C17.5639 18.5911 17.6389 18.6482 17.7061 18.6994C17.7105 18.7027 17.7149 18.7061 17.7192 18.7094C17.7907 18.764 17.8544 18.8159 17.9024 18.9024C17.9503 18.989 17.9854 19.116 17.9854 19.3239C17.9854 19.4287 17.9853 19.5018 17.9846 19.5522C17.9697 19.5483 17.9527 19.5475 17.9338 19.5524C17.8955 19.5624 17.8633 19.5928 17.8341 19.6341C17.7751 19.7177 17.7024 19.8846 17.6085 20.1981Z" fill="#00984C" stroke="#00984C" stroke-width="0.114286"/>
</g>
<g clip-path="url(#clip2_684_565)">
<path d="M13.473 20.9063L13.4406 20.8423L13.3855 20.8882C13.1021 21.1246 12.9297 21.4166 12.9297 21.746C12.9297 22.2053 13.2632 22.5903 13.7704 22.8574C14.2794 23.1253 14.9757 23.2823 15.7337 23.2823C16.4917 23.2823 17.188 23.1253 17.6969 22.8574C18.2041 22.5903 18.5377 22.2053 18.5377 21.746C18.5377 21.4184 18.3671 21.1273 18.0857 20.8917L18.0312 20.8461L17.9984 20.9091L17.7972 21.2949L17.7777 21.3323L17.8078 21.362C17.9361 21.4887 18.0008 21.6195 18.0008 21.746C18.0008 21.863 17.9457 21.9837 17.8357 22.1014C17.7256 22.219 17.5636 22.3303 17.3585 22.4263C16.9487 22.6184 16.3761 22.7454 15.7337 22.7454C15.0912 22.7454 14.5187 22.6184 14.1088 22.4263C13.9038 22.3303 13.7417 22.219 13.6317 22.1014C13.5217 21.9837 13.4666 21.863 13.4666 21.746C13.4666 21.6194 13.531 21.4882 13.6595 21.3616L13.6893 21.3323L13.6704 21.295L13.473 20.9063Z" fill="#00984C" stroke="#00984C" stroke-width="0.114286"/>
<path d="M13.473 19.6387L13.4406 19.5747L13.3855 19.6207C13.1021 19.857 12.9297 20.149 12.9297 20.4785C12.9297 20.9377 13.2632 21.3228 13.7704 21.5898C14.2794 21.8577 14.9757 22.0147 15.7337 22.0147C16.4917 22.0147 17.188 21.8577 17.6969 21.5898C18.2041 21.3228 18.5377 20.9377 18.5377 20.4785C18.5377 20.1508 18.3671 19.8597 18.0857 19.6241L18.0312 19.5785L17.9984 19.6415L17.7972 20.0273L17.7777 20.0648L17.8078 20.0944C17.9361 20.2211 18.0008 20.3519 18.0008 20.4785C18.0008 20.5955 17.9457 20.7161 17.8357 20.8338C17.7256 20.9514 17.5636 21.0627 17.3585 21.1588C16.9487 21.3508 16.3761 21.4778 15.7337 21.4778C15.0912 21.4778 14.5187 21.3508 14.1088 21.1588C13.9038 21.0627 13.7417 20.9514 13.6317 20.8338C13.5217 20.7161 13.4666 20.5955 13.4666 20.4785C13.4666 20.3522 13.5309 20.221 13.6596 20.094L13.6893 20.0647L13.6704 20.0275L13.473 19.6387Z" fill="#00984C" stroke="#00984C" stroke-width="0.114286"/>
<path d="M12.9297 19.2105C12.9297 19.6698 13.2632 20.0548 13.7704 20.3218C14.2794 20.5898 14.9757 20.7467 15.7337 20.7467C16.4917 20.7467 17.188 20.5898 17.6969 20.3218C18.2041 20.0548 18.5377 19.6698 18.5377 19.2105C18.5377 18.7513 18.2041 18.3662 17.6969 18.0992C17.188 17.8313 16.4917 17.6743 15.7337 17.6743C14.9757 17.6743 14.2794 17.8313 13.7704 18.0992C13.2632 18.3662 12.9297 18.7513 12.9297 19.2105ZM18.0008 19.2105C18.0008 19.3275 17.9457 19.4482 17.8357 19.5658C17.7256 19.6835 17.5636 19.7948 17.3585 19.8908C16.9487 20.0829 16.3761 20.2099 15.7337 20.2099C15.0912 20.2099 14.5187 20.0829 14.1088 19.8908C13.9038 19.7948 13.7417 19.6835 13.6317 19.5658C13.5217 19.4482 13.4666 19.3275 13.4666 19.2105C13.4666 19.0935 13.5217 18.9728 13.6317 18.8552C13.7417 18.7375 13.9038 18.6263 14.1088 18.5302C14.5187 18.3382 15.0912 18.2112 15.7337 18.2112C16.3761 18.2112 16.9487 18.3382 17.3585 18.5302C17.5636 18.6263 17.7256 18.7375 17.8357 18.8552C17.9457 18.9728 18.0008 19.0935 18.0008 19.2105Z" fill="#00984C" stroke="#00984C" stroke-width="0.114286"/>
</g>
<defs>
<clipPath id="clip0_684_565">
<rect width="9.36714" height="9.36714" fill="white" transform="translate(19.4775 13.1233)"/>
</clipPath>
<clipPath id="clip1_684_565">
<rect width="6.76149" height="6.76149" fill="white" transform="translate(14.6621 17.0977)"/>
</clipPath>
<clipPath id="clip2_684_565">
<rect width="6.76149" height="6.76149" fill="white" transform="translate(12.353 17.0977)"/>
</clipPath>
</defs>
</svg>
