<svg width="25" height="25" viewBox="0 0 25 25" fill="none" xmlns="http://www.w3.org/2000/svg">
<g clip-path="url(#clip0_1082_9638)">
<path d="M19.9861 8.7677H4.98608C4.57187 8.7677 4.23608 9.10349 4.23608 9.5177V20.0177C4.23608 20.4319 4.57187 20.7677 4.98608 20.7677H19.9861C20.4003 20.7677 20.7361 20.4319 20.7361 20.0177V9.5177C20.7361 9.10349 20.4003 8.7677 19.9861 8.7677Z" stroke="#012412" stroke-width="1.5" stroke-linecap="round" stroke-linejoin="round"/>
<path d="M12.4861 15.8927C13.1074 15.8927 13.6111 15.389 13.6111 14.7677C13.6111 14.1464 13.1074 13.6427 12.4861 13.6427C11.8648 13.6427 11.3611 14.1464 11.3611 14.7677C11.3611 15.389 11.8648 15.8927 12.4861 15.8927Z" fill="#012412"/>
<path d="M8.73608 8.7677V5.7677C8.73608 4.77314 9.13117 3.81931 9.83443 3.11605C10.5377 2.41279 11.4915 2.0177 12.4861 2.0177C13.4806 2.0177 14.4345 2.41279 15.1377 3.11605C15.841 3.81931 16.2361 4.77314 16.2361 5.7677V8.7677" stroke="#012412" stroke-width="1.5" stroke-linecap="round" stroke-linejoin="round"/>
</g>
<defs>
<clipPath id="clip0_1082_9638">
<rect width="24" height="24" fill="white" transform="translate(0.486084 0.5177)"/>
</clipPath>
</defs>
</svg>
