<svg width="41" height="41" viewBox="0 0 41 41" fill="none" xmlns="http://www.w3.org/2000/svg">
<path d="M18.5002 5.92274C19.3196 3.95044 22.1135 3.95044 22.9329 5.92274L23.946 8.36135C24.4538 9.58358 25.8552 10.1641 27.0785 9.65885L29.5192 8.65088C31.4932 7.83564 33.4688 9.81123 32.6536 11.7853L31.6456 14.226C31.1404 15.4493 31.7209 16.8507 32.9431 17.3584L35.3817 18.3715C37.354 19.1909 37.354 21.9848 35.3817 22.8042L32.9431 23.8173C31.7209 24.3251 31.1404 25.7265 31.6456 26.9498L32.6536 29.3905C33.4688 31.3645 31.4932 33.3401 29.5192 32.5249L27.0785 31.5169C25.8552 31.0117 24.4538 31.5922 23.946 32.8144L22.9329 35.253C22.1135 37.2253 19.3196 37.2253 18.5002 35.253L17.4871 32.8144C16.9793 31.5922 15.5779 31.0117 14.3546 31.5169L11.9139 32.5249C9.9399 33.3401 7.9643 31.3645 8.77954 29.3905L9.78751 26.9498C10.2927 25.7265 9.71224 24.3251 8.49001 23.8173L6.05141 22.8042C4.0791 21.9848 4.0791 19.1909 6.05141 18.3715L8.49001 17.3584C9.71224 16.8507 10.2927 15.4493 9.78751 14.226L8.77954 11.7853C7.9643 9.81123 9.9399 7.83564 11.9139 8.65088L14.3546 9.65885C15.5779 10.1641 16.9793 9.58358 17.4871 8.36135L18.5002 5.92274Z" fill="white"/>
<g clip-path="url(#clip0_1484_7044)">
<path d="M20.2582 19.7812C20.2582 18.6775 20.2582 18.1252 20.6013 17.7825C20.9439 17.4395 21.4962 17.4395 22.6 17.4395H25.7223C26.8261 17.4395 27.3784 17.4395 27.7211 17.7825C28.0641 18.1252 28.0641 18.6775 28.0641 19.7812C28.0641 20.885 28.0641 21.4373 27.7211 21.78C27.3784 22.123 26.8261 22.123 25.7223 22.123H22.6C21.4962 22.123 20.9439 22.123 20.6013 21.78C20.2582 21.4373 20.2582 20.885 20.2582 19.7812Z" stroke="#941D58" stroke-width="0.585446"/>
<path d="M21.8192 17.4388V16.6582C21.8192 16.0371 22.0659 15.4415 22.5051 15.0023C22.9443 14.5631 23.5399 14.3164 24.161 14.3164C24.7821 14.3164 25.3777 14.5631 25.8169 15.0023C26.2561 15.4415 26.5028 16.0371 26.5028 16.6582V17.4388" stroke="#941D58" stroke-width="0.585446" stroke-linecap="round"/>
</g>
<path d="M20.106 21.7071L20.0865 21.7445L20.1165 21.7741C20.2448 21.9008 20.3096 22.0316 20.3096 22.1582C20.3096 22.401 20.106 22.7055 19.7263 22.9532C19.3502 23.1984 18.8131 23.3791 18.1744 23.3791C17.8863 23.3791 17.612 23.3536 17.36 23.308C17.1499 23.27 16.79 23.2404 16.5547 23.2619C16.4957 23.2673 16.4416 23.2761 16.3986 23.2901C16.377 23.2971 16.3562 23.3061 16.3384 23.3179C16.3207 23.3298 16.3029 23.3466 16.2929 23.3703C16.2703 23.4235 16.2992 23.4725 16.332 23.5067C16.3667 23.5428 16.4221 23.5808 16.4979 23.6221L16.4977 23.6225L16.5042 23.6251C16.9731 23.8105 17.5527 23.916 18.1744 23.916C18.9356 23.916 19.6008 23.7022 20.0773 23.377C20.5524 23.0526 20.8464 22.612 20.8464 22.1582C20.8464 21.8306 20.6759 21.5394 20.3945 21.3038L20.34 21.2582L20.3072 21.3212L20.106 21.7071Z" fill="#941D58" stroke="#941D58" stroke-width="0.114286"/>
<path d="M18.053 21.8909L18.053 21.8909L17.9853 21.8782V21.9471V22.3697V22.4187L18.0338 22.4262L18.0425 22.3697L18.0338 22.4262L18.0339 22.4262L18.0341 22.4262L18.0347 22.4263L18.037 22.4267L18.0459 22.4279L18.0798 22.4325C18.1091 22.4362 18.1517 22.4412 18.2049 22.4463C18.3114 22.4565 18.4607 22.4671 18.6326 22.4688C18.975 22.4723 19.4125 22.4406 19.7786 22.2961C20.1208 22.161 20.3872 21.9177 20.5679 21.6561C20.7479 21.3955 20.8465 21.1114 20.8465 20.8906C20.8465 20.563 20.6759 20.2718 20.3946 20.0363L20.3401 19.9906L20.3072 20.0537L20.106 20.4395L20.0865 20.4769L20.1166 20.5066C20.2449 20.6333 20.3096 20.764 20.3096 20.8906C20.3096 21.0031 20.2551 21.1975 20.1329 21.3882C20.0116 21.5776 19.8272 21.7573 19.5735 21.8476C19.2747 21.9538 18.8964 21.9658 18.5883 21.9498C18.4351 21.9418 18.3009 21.9271 18.2052 21.9143C18.1573 21.9079 18.119 21.902 18.0929 21.8978L18.063 21.8927L18.0554 21.8914L18.0535 21.891L18.0531 21.8909L18.053 21.8909L18.053 21.8909Z" fill="#941D58" stroke="#941D58" stroke-width="0.114286"/>
<path d="M18.1084 20.1481C18.1084 20.0469 18.1047 19.9796 18.0991 19.9324C18.0995 19.8836 18.0996 19.8194 18.0996 19.7358C18.0996 19.6695 18.0962 19.6098 18.0899 19.5558C18.0898 19.5553 18.0898 19.5548 18.0897 19.5544C18.0823 19.4919 18.071 19.437 18.0562 19.3883C18.0619 19.3831 18.0662 19.3776 18.0668 19.3769C18.0668 19.3768 18.0668 19.3768 18.0668 19.3768C18.0676 19.3758 18.068 19.3753 18.068 19.3754C18.068 19.3755 18.0651 19.3788 18.061 19.3819C18.0599 19.3827 18.058 19.3841 18.0554 19.3855C18.0447 19.3508 18.0323 19.3192 18.0184 19.2903C18.0251 19.2907 18.0323 19.2926 18.0399 19.2967C18.0511 19.3026 18.0569 19.3108 18.0592 19.3144C18.0617 19.3184 18.0627 19.3213 18.0628 19.3216C18.0628 19.3217 18.0628 19.3217 18.0628 19.3216C18.0626 19.321 18.0619 19.3182 18.061 19.3116C18.0601 19.3054 18.0591 19.2969 18.0582 19.2856M18.1084 20.1481C18.1486 20.1481 18.1885 20.1481 18.2281 20.1481C19.4656 20.1486 20.3667 20.149 20.3667 19.6224C20.3667 19.0869 19.323 18.8842 18.0501 18.8783C18.0501 18.8982 18.0501 18.9173 18.0502 18.9355M18.1084 20.1481H18.1655C18.1655 20.1278 18.1654 20.1088 18.1651 20.0909M18.1084 20.1481V20.0909C18.1274 20.0909 18.1463 20.0909 18.1651 20.0909M18.0502 18.9355C18.0312 18.9354 18.0121 18.9354 17.993 18.9354C17.9934 19.0928 17.9956 19.1916 17.9988 19.2528C17.9999 19.2548 18.0011 19.2568 18.0022 19.2588C18.006 19.2658 18.0098 19.2729 18.0134 19.2801C18.0164 19.2793 18.0196 19.2787 18.023 19.2783C18.0362 19.277 18.0482 19.28 18.0582 19.2856M18.0502 18.9355C18.0506 19.1213 18.0536 19.2236 18.0577 19.2785C18.0578 19.281 18.058 19.2833 18.0582 19.2856M18.0502 18.9355C18.675 18.9384 19.2404 18.9889 19.6517 19.1016C19.8638 19.1597 20.0305 19.2332 20.1431 19.3218C20.2542 19.4092 20.3095 19.5084 20.3095 19.6224C20.3095 19.7375 20.2605 19.8213 20.1644 19.8865C20.0646 19.9541 19.9141 20.0013 19.7156 20.0326C19.3429 20.0914 18.8271 20.0912 18.2256 20.0909C18.2055 20.0909 18.1854 20.0909 18.1651 20.0909M18.0582 19.2856C18.062 19.2877 18.0654 19.2901 18.0685 19.2928C18.078 19.3011 18.0828 19.3106 18.0851 19.3157C18.0876 19.3214 18.0892 19.3269 18.0903 19.3312C18.094 19.347 18.096 19.3708 18.0974 19.4034C18.0988 19.4376 18.0996 19.4861 18.0996 19.5544V19.5561L18.0995 19.5561C18.0967 19.6498 18.0995 19.7012 18.1044 19.7332C18.1086 19.7608 18.1142 19.7741 18.122 19.7928C18.1226 19.7942 18.1232 19.7956 18.1238 19.7971C18.1441 19.8456 18.1621 19.9018 18.1651 20.0909M17.6084 20.6099L17.5863 20.6835H17.6631C18.4146 20.6835 19.202 20.6467 19.8029 20.5011C20.1031 20.4284 20.3619 20.3273 20.5467 20.186C20.7335 20.0433 20.8464 19.8579 20.8464 19.6224C20.8464 19.3848 20.7191 19.1913 20.5156 19.0373C20.313 18.8841 20.0305 18.7659 19.7057 18.6761C19.0554 18.4963 18.2187 18.4253 17.4652 18.4253H17.4081L17.4081 18.4824C17.4081 18.6816 17.4455 18.8138 17.5069 18.912C17.5638 19.003 17.6388 19.0601 17.706 19.1112C17.7104 19.1146 17.7148 19.1179 17.7191 19.1212C17.7906 19.1759 17.8543 19.2277 17.9022 19.3142C17.9502 19.4008 17.9853 19.5278 17.9853 19.7358C17.9853 19.8405 17.9852 19.9136 17.9844 19.964C17.9696 19.9602 17.9526 19.9594 17.9337 19.9643C17.8953 19.9742 17.8631 20.0047 17.834 20.0459C17.775 20.1296 17.7022 20.2965 17.6084 20.6099Z" fill="#941D58" stroke="#941D58" stroke-width="0.114286"/>
<g clip-path="url(#clip1_1484_7044)">
<path d="M13.4734 21.3179L13.4409 21.2539L13.3859 21.2999C13.1024 21.5362 12.93 21.8282 12.93 22.1577C12.93 22.6169 13.2636 23.002 13.7708 23.269C14.2797 23.5369 14.976 23.6939 15.734 23.6939C16.492 23.6939 17.1883 23.5369 17.6973 23.269C18.2045 23.002 18.538 22.6169 18.538 22.1577C18.538 21.83 18.3675 21.5389 18.0861 21.3033L18.0316 21.2577L17.9988 21.3207L17.7976 21.7065L17.7781 21.744L17.8081 21.7736C17.9364 21.9003 18.0012 22.0311 18.0012 22.1577C18.0012 22.2747 17.946 22.3953 17.836 22.513C17.726 22.6306 17.5639 22.7419 17.3589 22.838C16.949 23.03 16.3765 23.157 15.734 23.157C15.0916 23.157 14.519 23.03 14.1092 22.838C13.9041 22.7419 13.7421 22.6306 13.6321 22.513C13.522 22.3953 13.4669 22.2747 13.4669 22.1577C13.4669 22.031 13.5313 21.8998 13.6599 21.7733L13.6897 21.7439L13.6708 21.7067L13.4734 21.3179Z" fill="#941D58" stroke="#941D58" stroke-width="0.114286"/>
<path d="M13.4734 20.0503L13.4409 19.9864L13.3859 20.0323C13.1024 20.2686 12.93 20.5606 12.93 20.8901C12.93 21.3493 13.2636 21.7344 13.7708 22.0014C14.2797 22.2694 14.976 22.4263 15.734 22.4263C16.492 22.4263 17.1883 22.2694 17.6973 22.0014C18.2045 21.7344 18.538 21.3493 18.538 20.8901C18.538 20.5624 18.3675 20.2713 18.0861 20.0357L18.0316 19.9901L17.9988 20.0531L17.7976 20.439L17.7781 20.4764L17.8081 20.506C17.9364 20.6327 18.0012 20.7635 18.0012 20.8901C18.0012 21.0071 17.946 21.1278 17.836 21.2454C17.726 21.3631 17.5639 21.4743 17.3589 21.5704C16.949 21.7624 16.3765 21.8894 15.734 21.8894C15.0916 21.8894 14.519 21.7624 14.1092 21.5704C13.9041 21.4743 13.7421 21.3631 13.6321 21.2454C13.522 21.1278 13.4669 21.0071 13.4669 20.8901C13.4669 20.7638 13.5313 20.6327 13.66 20.5056L13.6896 20.4763L13.6708 20.4391L13.4734 20.0503Z" fill="#941D58" stroke="#941D58" stroke-width="0.114286"/>
<path d="M12.93 19.6236C12.93 20.0828 13.2636 20.4679 13.7708 20.7349C14.2797 21.0029 14.976 21.1598 15.734 21.1598C16.492 21.1598 17.1883 21.0029 17.6973 20.7349C18.2045 20.4679 18.538 20.0828 18.538 19.6236C18.538 19.1644 18.2045 18.7793 17.6973 18.5123C17.1883 18.2443 16.492 18.0874 15.734 18.0874C14.976 18.0874 14.2797 18.2443 13.7708 18.5123C13.2636 18.7793 12.93 19.1644 12.93 19.6236ZM18.0012 19.6236C18.0012 19.7406 17.946 19.8613 17.836 19.9789C17.726 20.0966 17.5639 20.2078 17.3589 20.3039C16.949 20.4959 16.3765 20.6229 15.734 20.6229C15.0916 20.6229 14.519 20.4959 14.1092 20.3039C13.9041 20.2078 13.7421 20.0966 13.6321 19.9789C13.522 19.8613 13.4669 19.7406 13.4669 19.6236C13.4669 19.5066 13.522 19.3859 13.6321 19.2683C13.7421 19.1506 13.9041 19.0394 14.1092 18.9433C14.519 18.7513 15.0916 18.6243 15.734 18.6243C16.3765 18.6243 16.949 18.7513 17.3589 18.9433C17.5639 19.0394 17.726 19.1506 17.836 19.2683C17.946 19.3859 18.0012 19.5066 18.0012 19.6236Z" fill="#941D58" stroke="#941D58" stroke-width="0.114286"/>
</g>
<defs>
<clipPath id="clip0_1484_7044">
<rect width="9.36714" height="9.36714" fill="white" transform="translate(19.4777 13.5352)"/>
</clipPath>
<clipPath id="clip1_1484_7044">
<rect width="6.76149" height="6.76149" fill="white" transform="translate(12.3533 17.5098)"/>
</clipPath>
</defs>
</svg>
