<?xml version="1.0" encoding="UTF-8"?>
<svg version="1.1" xmlns="http://www.w3.org/2000/svg" width="616" height="201">
<path d="M0 0 C3.88862987 1.26117725 5.89375599 2.45264167 8 6 C8 6.66 8 7.32 8 8 C10.97 8.495 10.97 8.495 14 9 C14.99 11.97 15.98 14.94 17 18 C18.32 18 19.64 18 21 18 C22 20 22 20 21.75 23.9375 C21.66181801 26.05666662 21.66181801 26.05666662 22 28 C25.19565036 30.84057809 26.6747043 31 31 31 C30.05125 30.4225 29.1025 29.845 28.125 29.25 C23.95522388 26.24776119 23.95522388 26.24776119 23 23 C22.875 19.75 22.875 19.75 23 17 C25.537728 17.970839 27.96440083 18.98114302 30.3671875 20.25390625 C37.14585531 23.79106157 42.90073193 24.5837801 50.51953125 24.6640625 C55.8350978 25.17712504 60.47977445 27.67288664 64.546875 31.140625 C67.88263256 35.40895995 69.3154606 40.91282524 71 46 C71.33 46.99 71.66 47.98 72 49 C72.36351562 47.80503906 72.36351562 47.80503906 72.734375 46.5859375 C75.63304068 37.42169448 78.5014084 30.9492958 87 26 C90.46169472 24.84610176 93.2893759 24.89156151 96.9375 24.8125 C103.74816243 24.53493651 108.65681121 22.73340879 114.609375 19.27734375 C117 18 117 18 120 18 C120.4375 21.125 120.4375 21.125 120 25 C117.93418366 27.38682039 115.58391118 29.20049043 113 31 C116.73487777 30.5020163 118.81237635 30.12508244 122 28 C121.690625 26.63875 121.690625 26.63875 121.375 25.25 C120.9864535 21.88259698 120.94338212 20.64422299 123 18 C125.125 17.25 125.125 17.25 127 17 C127.28875 15.88625 127.5775 14.7725 127.875 13.625 C129 10 129 10 131 8 C133.625 7.875 133.625 7.875 136 8 C136.268125 7.236875 136.53625 6.47375 136.8125 5.6875 C137.96131822 3.08754297 138.67278944 1.61114577 141 0 C143.1875 0.3125 143.1875 0.3125 145 1 C144.67 3.31 144.34 5.62 144 8 C144.99 8.495 144.99 8.495 146 9 C145.53440425 14.00515433 144.18501381 16.20033441 141 20 C139.53436062 21.93197918 138.07633302 23.86975071 136.625 25.8125 C135.83351562 26.86050781 135.04203125 27.90851563 134.2265625 28.98828125 C132.91008935 30.7689844 131.62130861 32.57173163 130.3984375 34.41796875 C124.334085 43.44673937 113.41664128 45.30157956 103.46484375 48.26757812 C97.24276485 50.2350517 93.15457495 52.17522916 89.81738281 58.09936523 C88.82341785 60.0462737 87.88720108 62.00255846 87 64 C82.83781444 64.24843165 78.67960831 64.42914913 74.51220703 64.54931641 C73.09738001 64.5994188 71.68306622 64.66753362 70.27001953 64.75439453 C65.72166978 65.02684677 61.4636435 65.09900816 57 64 C54.05398911 61.04586219 52.68160966 57.76940884 51 54 C47.33103916 50.22348004 43.34543615 48.89101332 38.375 47.5 C36.94626002 47.07018725 35.51787519 46.63919225 34.08984375 46.20703125 C31.64808078 45.48201808 29.20346619 44.77282971 26.75390625 44.07421875 C19.69397863 41.85146761 16.25280852 38.98449103 12 33 C11.53384277 32.35144043 11.06768555 31.70288086 10.58740234 31.03466797 C7.46127124 26.68017175 4.37833218 22.29770288 1.33105469 17.88769531 C-0.00961885 15.92883155 -0.00961885 15.92883155 -1.72949219 13.94824219 C-2.35839355 12.9838623 -2.35839355 12.9838623 -3 12 C-2.67 11.01 -2.34 10.02 -2 9 C-1.34 9 -0.68 9 0 9 C-0.66 6.69 -1.32 4.38 -2 2 C-1.34 1.34 -0.68 0.68 0 0 Z " fill="#099951" transform="translate(83,103)"/>
<path d="M0 0 C1.12148438 0.00737183 1.12148438 0.00737183 2.265625 0.01489258 C16.87683833 0.32351331 27.5886607 7.10735713 37.6875 17.3125 C45.55119532 25.90502562 47.38003068 36.25816009 46.9453125 47.5703125 C45.91959901 62.45869926 39.04638118 71.76808039 28.125 81.6875 C18.09766777 89.88536514 6.43633423 91.27616593 -6.08691406 90.55078125 C-18.04862642 89.27010647 -29.27786026 81.61585874 -36.78125 72.484375 C-44.35681678 61.73943844 -46.53375084 50.26031648 -45.3125 37.3125 C-43.04452823 25.11138602 -35.43620916 14.40094718 -25.3125 7.3125 C-17.21154015 2.52846859 -9.42271043 -0.07348181 0 0 Z M-24.625 25.8125 C-30.52999996 34.56064809 -31.1088805 42.94801176 -30.3125 53.3125 C-28.62582574 60.55338185 -24.07676679 65.79748557 -18.3125 70.3125 C-9.35405935 75.73329817 -0.88441507 77.94321422 9.53515625 75.69921875 C18.64281414 72.79142924 25.28006004 67.60034084 29.6875 59.0625 C33.37932279 51.01227531 34.17926959 42.5699249 31.125 34.125 C27.21024772 25.47133706 20.64473242 19.04672097 11.7890625 15.56640625 C-2.14696446 11.44247991 -14.90328187 15.30253445 -24.625 25.8125 Z " fill="#E58326" transform="translate(494.3125,32.6875)"/>
<path d="M0 0 C4.29 0 8.58 0 13 0 C17.25919843 8.34171899 21.15876137 16.7526365 24.8125 25.375 C25.58799194 27.19451172 25.58799194 27.19451172 26.37915039 29.05078125 C30.71895368 39.25151459 34.92903158 49.50375547 39.09521484 59.77636719 C40.29801166 62.73240425 41.52093093 65.67980043 42.75 68.625 C43.11867188 69.51316406 43.48734375 70.40132813 43.8671875 71.31640625 C44.70909259 73.31085039 45.57177927 75.29654813 46.4453125 77.27734375 C46.91710937 78.36144531 47.38890625 79.44554688 47.875 80.5625 C48.30554688 81.53316406 48.73609375 82.50382812 49.1796875 83.50390625 C50 86 50 86 49 89 C44.05 88.67 39.1 88.34 34 88 C32.32917399 83.8766401 30.66316551 79.75144848 29 75.625 C28.52304687 74.449375 28.04609375 73.27375 27.5546875 72.0625 C27.10351562 70.94101563 26.65234375 69.81953125 26.1875 68.6640625 C25.76855469 67.62717285 25.34960938 66.5902832 24.91796875 65.52197266 C24 63 24 63 24 61 C12.45 61 0.9 61 -11 61 C-11.99 63.97 -11.99 63.97 -13 67 C-13.685253 68.65225158 -14.39460017 70.29473816 -15.12890625 71.92578125 C-15.52400391 72.80427734 -15.91910156 73.68277344 -16.32617188 74.58789062 C-16.73416016 75.48701172 -17.14214844 76.38613281 -17.5625 77.3125 C-17.97435547 78.23095703 -18.38621094 79.14941406 -18.81054688 80.09570312 C-21.86953546 86.86953546 -21.86953546 86.86953546 -23 88 C-25.85877909 88.23701239 -28.69883297 88.42219182 -31.5625 88.5625 C-32.36880859 88.60568359 -33.17511719 88.64886719 -34.00585938 88.69335938 C-36.00368805 88.79975262 -38.0018207 88.90040888 -40 89 C-33.19137673 72.97065326 -25.96798855 57.15211634 -18.59814453 41.37475586 C-14.4570303 32.48365943 -10.46809676 23.55438542 -6.74435425 14.47930908 C-4.70236899 9.53218859 -2.44225048 4.76316364 0 0 Z M7 22 C2.72439401 30.15450628 -0.80791398 38.36259078 -4 47 C2.93 47 9.86 47 17 47 C16.26268982 43.31344912 15.53481038 40.53802554 14.15234375 37.13671875 C13.61577148 35.80737305 13.61577148 35.80737305 13.06835938 34.45117188 C12.69517578 33.53916016 12.32199219 32.62714844 11.9375 31.6875 C11.37192383 30.29047852 11.37192383 30.29047852 10.79492188 28.86523438 C9.86716875 26.57521083 8.93541999 24.28690004 8 22 C7.67 22 7.34 22 7 22 Z " fill="#E38125" transform="translate(334,35)"/>
<path d="M0 0 C42.17974684 0 42.17974684 0 52 9 C58.38559053 16.07592464 60.32681614 21.88555 60.21484375 31.25390625 C59.66307108 38.30656426 55.4772843 44.55068313 50.54296875 49.4453125 C40.3154761 57.75670555 26.31663177 56.26392782 14 56 C14 66.56 14 77.12 14 88 C9.38 88 4.76 88 0 88 C0 58.96 0 29.92 0 0 Z M14 14 C14 23.24 14 32.48 14 42 C16.825625 42.04125 19.65125 42.0825 22.5625 42.125 C23.43849854 42.14320801 24.31449707 42.16141602 25.21704102 42.18017578 C30.86469677 42.21971894 36.22167701 41.9627683 40.99609375 38.58984375 C43.85744698 35.3097559 45.40836994 32.85974126 45.625 28.4375 C45.26888082 23.9822217 44.14010336 21.29327913 41 18 C33.29577583 12.09771848 23.10239524 13.7302994 14 14 Z " fill="#E48124" transform="translate(389,35)"/>
<path d="M0 0 C2.31243792 -0.02685412 4.6249627 -0.04632841 6.9375 -0.0625 C8.22527344 -0.07410156 9.51304687 -0.08570313 10.83984375 -0.09765625 C14 0 14 0 15 1 C15.12406815 3.20794411 15.17802278 5.41984486 15.20532227 7.63110352 C15.21522186 8.32375305 15.22512146 9.01640259 15.23532104 9.7300415 C15.2670203 12.02962779 15.29172651 14.32923477 15.31640625 16.62890625 C15.33696852 18.21932018 15.35796479 19.80972855 15.37937927 21.40013123 C15.43467509 25.59389763 15.4840511 29.78771395 15.53222656 33.98156738 C15.58238691 38.25793928 15.63810144 42.53423834 15.69335938 46.81054688 C15.80103274 55.20696973 15.90245716 63.60345338 16 72 C19.41250987 72.9122141 22.53935613 73.19497791 26.078125 73.31640625 C27.23828125 73.35830078 28.3984375 73.40019531 29.59375 73.44335938 C30.8003125 73.48267578 32.006875 73.52199219 33.25 73.5625 C34.47203125 73.60568359 35.6940625 73.64886719 36.953125 73.69335938 C39.96861881 73.79937283 42.98429468 73.9001844 46 74 C46 78.62 46 83.24 46 88 C41.54062937 88.13577245 37.08545095 88.23452009 32.625 88.3125 C31.37332031 88.35439453 30.12164062 88.39628906 28.83203125 88.43945312 C19.92080449 88.55609222 12.75267893 87.45825988 6.06494141 81.18481445 C1.14379974 75.88671794 -0.25275216 71.14973173 -0.22705078 63.91479492 C-0.22734283 63.22156128 -0.22763489 62.52832764 -0.22793579 61.81408691 C-0.22654897 59.53608426 -0.21101867 57.25841385 -0.1953125 54.98046875 C-0.19158006 53.3957792 -0.18873418 51.81108734 -0.18673706 50.22639465 C-0.17911877 46.06545587 -0.15948588 41.90465779 -0.1373291 37.74377441 C-0.11683172 33.49391584 -0.10772703 29.24403443 -0.09765625 24.99414062 C-0.0762382 16.66269601 -0.04212416 8.33136553 0 0 Z " fill="#E08025" transform="translate(242,35)"/>
<path d="M0 0 C3 1 3 1 4 3 C5.98 2.34 7.96 1.68 10 1 C9.34 2.98 8.68 4.96 8 7 C12.73893321 9.59876983 16.88613628 9.02277274 22 8 C23.67163195 7.34588315 25.34015202 6.68346682 27 6 C27.99 6.33 28.98 6.66 30 7 C27.4177456 9.71691183 24.61509336 11.72268994 21.5234375 13.81640625 C19.84949692 14.94105943 19.84949692 14.94105943 19 17 C18.95977609 19.3329866 18.95679753 21.66706666 19 24 C20.32 24.66 21.64 25.32 23 26 C22.505 27.485 22.505 27.485 22 29 C19.9375 29.6875 19.9375 29.6875 18 30 C18.31807617 30.97610229 18.31807617 30.97610229 18.64257812 31.97192383 C19.59958001 34.91733376 20.54986142 37.8648693 21.5 40.8125 C21.83386719 41.83666016 22.16773438 42.86082031 22.51171875 43.91601562 C22.82753906 44.89892578 23.14335937 45.88183594 23.46875 46.89453125 C23.76201172 47.80050049 24.05527344 48.70646973 24.35742188 49.63989258 C25 52 25 52 25 55 C22 54 22 54 20.2109375 50.4375 C19.5880834 48.96287961 18.97653438 47.48344495 18.375 46 C16.703432 41.15381369 16.703432 41.15381369 14 37 C13.34 42.61 12.68 48.22 12 54 C10.515 54.495 10.515 54.495 9 55 C7.68 52.36 6.36 49.72 5 47 C4.01 49.31 3.02 51.62 2 54 C0.68 54 -0.64 54 -2 54 C-2.66 48.39 -3.32 42.78 -4 37 C-7.96 45.91 -7.96 45.91 -12 55 C-12.99 55 -13.98 55 -15 55 C-14.88406494 54.40574219 -14.76812988 53.81148437 -14.64868164 53.19921875 C-14.11720561 50.46667234 -13.58982848 47.7333497 -13.0625 45 C-12.88009766 44.06542969 -12.69769531 43.13085938 -12.50976562 42.16796875 C-8.91008098 27.25514909 -8.91008098 27.25514909 -11.75 13 C-13.80564962 11.17275589 -15.55534842 10.18017663 -18 9 C-18.33 8.01 -18.66 7.02 -19 6 C-17.98679688 6.25136719 -16.97359375 6.50273438 -15.9296875 6.76171875 C-14.57837263 7.07139507 -13.22679551 7.37992855 -11.875 7.6875 C-10.87726563 7.93983398 -10.87726563 7.93983398 -9.859375 8.19726562 C-4.8977633 9.29173879 -2.26566974 8.69095988 2 6 C1.34 5.01 0.68 4.02 0 3 C0 2.01 0 1.02 0 0 Z M5 10 C1.15337585 14.61594898 1.70226639 19.32100711 2 25 C3.98 24.67 5.96 24.34 8 24 C8.33 24.66 8.66 25.32 9 26 C9.32712342 19.86946489 9.39366878 15.37330889 6 10 C5.67 10 5.34 10 5 10 Z M2 28 C3 30 3 30 3 30 Z M3 30 C7 31 7 31 7 31 Z " fill="#E0842D" transform="translate(151,62)"/>
<path d="M0 0 C1.32 0 2.64 0 4 0 C4.33 1.65 4.66 3.3 5 5 C5.7425 4.649375 6.485 4.29875 7.25 3.9375 C10.22825106 2.92218714 11.10305803 3.13091741 14 4 C14.99 3.67 15.98 3.34 17 3 C17.94875 3.53625 18.8975 4.0725 19.875 4.625 C20.90625 5.07875 21.9375 5.5325 23 6 C24.68496298 5.03114628 26.35178756 4.03013277 28 3 C30.00838196 3.64097297 32.00827818 4.30899447 34 5 C36.01684563 4.38617742 38.01643517 3.71408334 40 3 C42.69350277 2.81530267 45.29386301 2.9112742 48 3 C48.99 3 49.98 3 51 3 C53 3.125 53 3.125 55 4 C56.75 7.0625 56.75 7.0625 58 10 C58.99 8.02 59.98 6.04 61 4 C61.99 4 62.98 4 64 4 C64 2.68 64 1.36 64 0 C64.99 0 65.98 0 67 0 C67.495 2.97 67.495 2.97 68 6 C68.53625 5.46375 69.0725 4.9275 69.625 4.375 C72 3 72 3 75.0625 3.8125 C76.031875 4.204375 77.00125 4.59625 78 5 C81.18490007 5.2773501 81.18490007 5.2773501 84 3 C87.28924289 3.13705179 89.28130237 3.42504189 91.875 5.5 C93.58880491 9.30845535 93.55860365 12.89350831 93 17 C91.65067343 19.69865314 90.82689986 20.6141134 88.125 21.875 C85.14579086 22.0502476 83.53972821 21.57874997 81 20 C80.1875 16.875 80.1875 16.875 80 14 C79.67 14.99 79.34 15.98 79 17 C78.01 17 77.02 17 76 17 C75.505 12.545 75.505 12.545 75 8 C73.68 7.67 72.36 7.34 71 7 C71 10.3 71 13.6 71 17 C67 18 67 18 64 17 C63.505 13.04 63.505 13.04 63 9 C61.68 11.64 60.36 14.28 59 17 C58.01 17 57.02 17 56 17 C55.01 15.02 55.01 15.02 54 13 C53.46375 13.66 52.9275 14.32 52.375 15 C50 17 50 17 47 17.5 C43.4055726 16.90092877 42.26056472 15.7822335 40 13 C39.67 14.32 39.34 15.64 39 17 C37.68 17 36.36 17 35 17 C34.505 16.01 34.505 16.01 34 15 C33.34 15.66 32.68 16.32 32 17 C28.875 17.125 28.875 17.125 26 17 C25.67 18.32 25.34 19.64 25 21 C24.01 21 23.02 21 22 21 C22 19.68 22 18.36 22 17 C20.68 16.67 19.36 16.34 18 16 C18 13.36 18 10.72 18 8 C17.01 7.67 16.02 7.34 15 7 C15 10.3 15 13.6 15 17 C13.68 17 12.36 17 11 17 C11 13.7 11 10.4 11 7 C10.01 7.33 9.02 7.66 8 8 C7.67 10.97 7.34 13.94 7 17 C1.39 17 -4.22 17 -10 17 C-10 15.68 -10 14.36 -10 13 C-6.7 13 -3.4 13 0 13 C0 8.71 0 4.42 0 0 Z M27 7 C26.34 7.66 25.68 8.32 25 9 C25.3185177 11.10820797 25.3185177 11.10820797 26 13 C27.65614657 13.38218767 29.32457024 13.71395102 31 14 C32.29633621 12.93354885 32.29633621 12.93354885 32.0625 10.4375 C32.041875 9.633125 32.02125 8.82875 32 8 C29.60280568 7.32041397 29.60280568 7.32041397 27 7 Z M44 7 C43.32041397 9.39719432 43.32041397 9.39719432 43 12 C43.66 12.66 44.32 13.32 45 14 C46.32 14 47.64 14 49 14 C49.38133299 12.0085944 49.71325582 10.00720923 50 8 C48.93354885 6.70366379 48.93354885 6.70366379 46.4375 6.9375 C45.633125 6.958125 44.82875 6.97875 44 7 Z M84 7 C82.70366379 8.06645115 82.70366379 8.06645115 82.9375 10.5625 C82.958125 11.366875 82.97875 12.17125 83 13 C84.65614657 13.38218767 86.32457024 13.71395102 88 14 C89.29633621 12.93354885 89.29633621 12.93354885 89.0625 10.4375 C89.041875 9.633125 89.02125 8.82875 89 8 C87.34385343 7.61781233 85.67542976 7.28604898 84 7 Z M84 17 C84 17.33 84 17.66 84 18 C85.65 18 87.3 18 89 18 C89 17.67 89 17.34 89 17 C87.35 17 85.7 17 84 17 Z " fill="#E38F48" transform="translate(399,164)"/>
<path d="M0 0 C3.58849951 2.77223138 6.81783364 5.77356002 10 9 C10.64839844 9.63808594 11.29679687 10.27617188 11.96484375 10.93359375 C19.78864897 19.16827714 25.78321736 31.31665101 26.0703125 42.81640625 C26.04710937 43.53699219 26.02390625 44.25757813 26 45 C22.58724745 42.72483163 22.57285199 42.32675164 21.6875 38.5625 C17.78641868 24.60708538 9.26930226 14.42601677 -2.83203125 6.7265625 C-16.14693957 -0.53014462 -32.74640523 -2.56018623 -47.4206543 1.43432617 C-62.74968722 6.20876047 -73.68328202 14.96323722 -81.45703125 28.9453125 C-83.60254437 33.19288531 -85.4039285 37.51910361 -87 42 C-87.66 42 -88.32 42 -89 42 C-86.24432833 24.95834626 -78.23601718 11.54951082 -64.40234375 1.0234375 C-44.74678351 -12.26881187 -20.09150628 -12.50621501 0 0 Z " fill="#E0842C" transform="translate(186,30)"/>
<path d="M0 0 C1.65 0 3.3 0 5 0 C5 4.62 5 9.24 5 14 C5.886875 12.845 6.77375 11.69 7.6875 10.5 C10.6008348 7.06074253 10.6008348 7.06074253 13.875 6.5625 C14.57625 6.706875 15.2775 6.85125 16 7 C14.18690997 10.77727089 12.0926741 14.37269822 10 18 C10.5053125 18.55429688 11.010625 19.10859375 11.53125 19.6796875 C12.50578125 20.76636719 12.50578125 20.76636719 13.5 21.875 C14.1496875 22.59429687 14.799375 23.31359375 15.46875 24.0546875 C17 26 17 26 17 28 C14.875 28.375 14.875 28.375 12 28 C9.76086748 26.20659643 7.87545461 24.16547337 6 22 C5.34 23.98 4.68 25.96 4 28 C0.7 28 -2.6 28 -6 28 C-6.04898438 27.01257813 -6.09796875 26.02515625 -6.1484375 25.0078125 C-6.22320313 23.72648437 -6.29796875 22.44515625 -6.375 21.125 C-6.47941406 19.21074219 -6.47941406 19.21074219 -6.5859375 17.2578125 C-6.67241106 13.91938301 -6.67241106 13.91938301 -9 12 C-10.65 12.33 -12.3 12.66 -14 13 C-14.33 17.62 -14.66 22.24 -15 27 C-21.16129031 29.05376344 -21.54856074 29.1062379 -27 27 C-27.66 27.33 -28.32 27.66 -29 28 C-31.96395382 28.40417552 -34.08904926 28.56382171 -36.69140625 26.953125 C-38.88450678 25.15636794 -40.7209562 23.55808759 -42 21 C-42.56980057 14.04843305 -42.56980057 14.04843305 -40.4375 10.125 C-37.29324208 7.38385207 -35.13716835 6.56097198 -31 6 C-26.76145858 7.20092007 -24.65343341 8.09362463 -22.0625 11.6875 C-21.711875 12.450625 -21.36125 13.21375 -21 14 C-20.3503125 12.824375 -20.3503125 12.824375 -19.6875 11.625 C-18 9 -18 9 -15 7 C-9.88301282 6.42227564 -9.88301282 6.42227564 -7 7 C-4 9.5 -4 9.5 -2 12 C-1.90912109 10.82630859 -1.90912109 10.82630859 -1.81640625 9.62890625 C-1.73261719 8.61699219 -1.64882813 7.60507813 -1.5625 6.5625 C-1.48128906 5.55316406 -1.40007813 4.54382813 -1.31640625 3.50390625 C-1 1 -1 1 0 0 Z M-35.8125 12.0625 C-37.646921 15.05550269 -37.31107576 17.57816663 -37 21 C-35.12061828 23.29827312 -35.12061828 23.29827312 -32.0625 23.3125 C-29.07739953 23.22697575 -29.07739953 23.22697575 -27.125 21.875 C-25.47145469 19.11909116 -25.60634432 17.14924548 -26 14 C-27.06345052 12.01970318 -27.06345052 12.01970318 -29 11 C-31.82115488 10.57682677 -33.33950907 10.61281566 -35.8125 12.0625 Z " fill="#189B5A" transform="translate(524,125)"/>
<path d="M0 0 C1.98 0 3.96 0 6 0 C9 6 12 12 15 18 C15.72316406 16.30230469 15.72316406 16.30230469 16.4609375 14.5703125 C17.09870803 13.08843392 17.73674261 11.60666895 18.375 10.125 C18.69210937 9.37863281 19.00921875 8.63226563 19.3359375 7.86328125 C19.6453125 7.14785156 19.9546875 6.43242187 20.2734375 5.6953125 C20.69761963 4.7055542 20.69761963 4.7055542 21.13037109 3.69580078 C22 2 22 2 24 0 C26.34765625 -0.23046875 26.34765625 -0.23046875 29.0625 -0.1875 C30.41021484 -0.17783203 30.41021484 -0.17783203 31.78515625 -0.16796875 C34 0 34 0 35 1 C35.09971786 2.91458282 35.13080589 4.83282317 35.1328125 6.75 C35.13474609 8.49796875 35.13474609 8.49796875 35.13671875 10.28125 C35.13285156 11.5084375 35.12898438 12.735625 35.125 14 C35.13080078 15.84078125 35.13080078 15.84078125 35.13671875 17.71875 C35.13542969 18.8840625 35.13414062 20.049375 35.1328125 21.25 C35.13168457 22.32765625 35.13055664 23.4053125 35.12939453 24.515625 C35 27 35 27 34 28 C30.66381769 28.14257189 27.34024394 28.04228157 24 28 C23.67 23.05 23.34 18.1 23 13 C21.14836894 17.55750723 21.14836894 17.55750723 19.32104492 22.12475586 C18.62800453 23.78583015 17.81521663 25.39535218 17 27 C16.01 27.33 15.02 27.66 14 28 C9.94764571 24.50498957 8.849194 19.90992891 7 15 C6.67 18.96 6.34 22.92 6 27 C4.35 27.33 2.7 27.66 1 28 C0.18101378 24.42649959 -0.11811958 21.14340521 -0.09765625 17.48046875 C-0.09443359 16.45888672 -0.09121094 15.43730469 -0.08789062 14.38476562 C-0.07951172 13.32966797 -0.07113281 12.27457031 -0.0625 11.1875 C-0.05798828 10.11306641 -0.05347656 9.03863281 -0.04882812 7.93164062 C-0.03707729 5.28770317 -0.02064787 2.64388048 0 0 Z M29 1 C29 9.58 29 18.16 29 27 C29.33 27 29.66 27 30 27 C30 18.42 30 9.84 30 1 C29.67 1 29.34 1 29 1 Z M5 10 C6 12 6 12 6 12 Z " fill="#109151" transform="translate(242,125)"/>
<path d="M0 0 C0.99 0.66 1.98 1.32 3 2 C3 2.66 3 3.32 3 4 C3.66 4 4.32 4 5 4 C5.226875 3.38125 5.45375 2.7625 5.6875 2.125 C7.44813176 -0.72554666 8.77425149 -1.19356287 12 -2 C16.88561843 -1.79643257 19.46862842 -0.32957892 23 3 C24.59689041 6.19378082 24.37348957 9.52521315 24 13 C22.73515069 15.9091534 21.74549933 17.46015566 19.1875 19.3125 C16.22019177 20.24508259 14.10315844 20.37237901 11 20 C7.625 18 7.625 18 5 16 C4.4225 16.28875 3.845 16.5775 3.25 16.875 C2.5075 17.24625 1.765 17.6175 1 18 C0.38125 18.37125 -0.2375 18.7425 -0.875 19.125 C-3.82218422 20.33854644 -5.8313494 20.38023807 -9 20 C-12.6578218 17.96006092 -14.66946174 16.49580738 -17 13 C-17.34021088 9.32572251 -17.2719055 6.70375542 -15.9375 3.25 C-11.21589134 -2.23315845 -6.44844615 -2.60418017 0 0 Z M-10.8125 4.125 C-12.55198782 6.87155972 -12.39769128 8.81846974 -12 12 C-11 14 -11 14 -9 15 C-5.90498792 15.25265405 -3.79870027 15.39935013 -1 14 C-1 13.34 -1 12.68 -1 12 C0.32 12 1.64 12 3 12 C3 10.35 3 8.7 3 7 C-3.58007946 2.53857181 -3.58007946 2.53857181 -10.8125 4.125 Z M9.625 4.9375 C9.08875 5.618125 8.5525 6.29875 8 7 C11.63 7 15.26 7 19 7 C18.67 6.01 18.34 5.02 18 4 C13.49189913 2.66620222 13.49189913 2.66620222 9.625 4.9375 Z M8 11 C10.48214319 15.26851835 10.48214319 15.26851835 14 15.5 C17.51785681 15.26851835 17.51785681 15.26851835 20 11 C16.04 11 12.08 11 8 11 Z " fill="#169657" transform="translate(422,133)"/>
<path d="M0 0 C3 1 3 1 4 3 C5.98 2.34 7.96 1.68 10 1 C8.36672326 5.64855688 8.36672326 5.64855688 6.5 7.4375 C2.188849 11.9282823 2.4414074 19.12231199 2 25 C3.65 25 5.3 25 7 25 C6.6875 26.9375 6.6875 26.9375 6 29 C2.71023192 30.09658936 1.28696233 29.79953138 -2 29 C-1.814375 29.61875 -1.62875 30.2375 -1.4375 30.875 C-0.81347512 35.3323206 -1.43896305 39.55486111 -2 44 C-2.33 44 -2.66 44 -3 44 C-3.33 41.69 -3.66 39.38 -4 37 C-7.96 45.91 -7.96 45.91 -12 55 C-12.99 55 -13.98 55 -15 55 C-14.88406494 54.40574219 -14.76812988 53.81148437 -14.64868164 53.19921875 C-14.11720561 50.46667234 -13.58982848 47.7333497 -13.0625 45 C-12.88009766 44.06542969 -12.69769531 43.13085938 -12.50976562 42.16796875 C-8.91008098 27.25514909 -8.91008098 27.25514909 -11.75 13 C-13.80564962 11.17275589 -15.55534842 10.18017663 -18 9 C-18.33 8.01 -18.66 7.02 -19 6 C-17.98679688 6.25136719 -16.97359375 6.50273438 -15.9296875 6.76171875 C-14.57837263 7.07139507 -13.22679551 7.37992855 -11.875 7.6875 C-10.87726563 7.93983398 -10.87726563 7.93983398 -9.859375 8.19726562 C-4.8977633 9.29173879 -2.26566974 8.69095988 2 6 C1.34 5.01 0.68 4.02 0 3 C0 2.01 0 1.02 0 0 Z " fill="#E0822B" transform="translate(151,62)"/>
<path d="M0 0 C2.31 0 4.62 0 7 0 C7 1.32 7 2.64 7 4 C7.99 4 8.98 4 10 4 C10.66 5.65 11.32 7.3 12 9 C12.804375 7.7934375 12.804375 7.7934375 13.625 6.5625 C16.49166262 3.46952191 17.85051587 3.1693667 22 3 C25.52542658 3.40993332 26.98324537 3.98883025 30 6 C30.99 5.01 31.98 4.02 33 3 C35.4375 3.75 35.4375 3.75 38 5 C38.8125 7.125 38.8125 7.125 39 9 C38.360625 8.814375 37.72125 8.62875 37.0625 8.4375 C36.0415625 8.2209375 36.0415625 8.2209375 35 8 C34.67 8.33 34.34 8.66 34 9 C35.32 9.33 36.64 9.66 38 10 C38.625 12.375 38.625 12.375 39 15 C37 17 37 17 34.5625 17.25 C32 17 32 17 29 15 C28.34 15.66 27.68 16.32 27 17 C23.02642355 17.52981019 21.45829619 17.31881474 18.125 15 C17.42375 14.34 16.7225 13.68 16 13 C15.34 14.32 14.68 15.64 14 17 C13.01 17 12.02 17 11 17 C10.01 15.02 9.02 13.04 8 11 C7.67 12.98 7.34 14.96 7 17 C4.69 17 2.38 17 0 17 C0 11.39 0 5.78 0 0 Z M22 7 C21.67 7.66 21.34 8.32 21 9 C22.98 9 24.96 9 27 9 C26.67 8.34 26.34 7.68 26 7 C24.68 7 23.36 7 22 7 Z M31 10 C31 10.66 31 11.32 31 12 C31.66 11.67 32.32 11.34 33 11 C32.34 10.67 31.68 10.34 31 10 Z M21 12 C21.33 12.66 21.66 13.32 22 14 C23.65 13.67 25.3 13.34 27 13 C27 12.67 27 12.34 27 12 C25.02 12 23.04 12 21 12 Z M33 12 C33 12.66 33 13.32 33 14 C33.66 14 34.32 14 35 14 C35 13.34 35 12.68 35 12 C34.34 12 33.68 12 33 12 Z " fill="#E1904C" transform="translate(502,164)"/>
<path d="M0 0 C1.75749094 -0.05253267 3.5154367 -0.08999264 5.2734375 -0.12109375 C6.25231934 -0.14357178 7.23120117 -0.1660498 8.23974609 -0.18920898 C12.61170077 0.11047834 14.92796049 1.92796049 18 5 C17.77869107 7.30793594 17.41524614 9.58042943 17.05859375 11.87109375 C17.03925781 12.57363281 17.01992188 13.27617187 17 14 C17.66 14.66 18.32 15.32 19 16 C19.51156434 19.83673259 19.30501126 21.52670667 17.1875 24.8125 C14.6650327 27.3349673 13.09335186 27.94061667 9.5546875 28.1328125 C8.67039062 28.13023437 7.78609375 28.12765625 6.875 28.125 C5.98554688 28.12757813 5.09609375 28.13015625 4.1796875 28.1328125 C2 28 2 28 1 27 C0.84174742 25.00217874 0.74880829 22.99911166 0.68359375 20.99609375 C0.64169922 19.78115234 0.59980469 18.56621094 0.55664062 17.31445312 C0.51732422 16.03505859 0.47800781 14.75566406 0.4375 13.4375 C0.39431641 12.15423828 0.35113281 10.87097656 0.30664062 9.54882812 C0.200152 6.36600147 0.09814038 3.18309326 0 0 Z M6 5 C6 6.98 6 8.96 6 11 C7.98 11 9.96 11 12 11 C12.38218767 9.34385343 12.71395102 7.67542976 13 6 C11.87465895 4.64381501 11.87465895 4.64381501 8.9375 4.9375 C7.968125 4.958125 6.99875 4.97875 6 5 Z M6 16 C6 18.31 6 20.62 6 23 C10.14093698 23.20970559 10.14093698 23.20970559 14 22 C14.042721 20.33388095 14.04063832 18.66617115 14 17 C12.81575674 15.58422523 12.81575674 15.58422523 9.4375 15.9375 C7.7359375 15.9684375 7.7359375 15.9684375 6 16 Z " fill="#0F9150" transform="translate(462,125)"/>
<path d="M0 0 C0.33 -0.99 0.66 -1.98 1 -3 C3.97 -3 6.94 -3 10 -3 C10 -1.68 10 -0.36 10 1 C8.68 1.33 7.36 1.66 6 2 C6 6.95 6 11.9 6 17 C4.35 17.33 2.7 17.66 1 18 C0.67 16.68 0.34 15.36 0 14 C-0.40476562 14.47695312 -0.80953125 14.95390625 -1.2265625 15.4453125 C-4.31320966 18.15122785 -8.01640935 18.11922718 -12 18 C-15.68514299 16.47787572 -18.16974759 14.56417575 -20 11 C-20.51197712 6.39220596 -20.65440831 4.15779932 -18.375 0.125 C-12.27384496 -5.33392819 -6.55636002 -4.37090668 0 0 Z M-13.8125 2.0625 C-15.646921 5.05550269 -15.31107576 7.57816663 -15 11 C-13.05667668 13.37994368 -13.05667668 13.37994368 -9.5 13.25 C-5.94332332 13.37994368 -5.94332332 13.37994368 -4 11 C-1.375 10.375 -1.375 10.375 1 10 C1 8.35 1 6.7 1 5 C0.236875 4.71125 -0.52625 4.4225 -1.3125 4.125 C-4 3 -4 3 -7 1 C-9.79523674 0.65059541 -11.3648354 0.62766213 -13.8125 2.0625 Z " fill="#0C944D" transform="translate(298,135)"/>
<path d="M0 0 C0 8.58 0 17.16 0 26 C-1.32 26.33 -2.64 26.66 -4 27 C-5.99616554 25.00383446 -5.40983427 21.18298037 -5.5625 18.4375 C-5.60568359 17.72658203 -5.64886719 17.01566406 -5.69335938 16.28320312 C-5.79971777 14.52238088 -5.90038846 12.7612168 -6 11 C-6.99 11 -7.98 11 -9 11 C-9.33 16.28 -9.66 21.56 -10 27 C-11.65 26.67 -13.3 26.34 -15 26 C-15.11627503 22.41694008 -15.1872736 18.83436583 -15.25 15.25 C-15.28351563 14.23421875 -15.31703125 13.2184375 -15.3515625 12.171875 C-15.45077352 4.63183736 -15.45077352 4.63183736 -13.1328125 1.3828125 C-7.6594561 -2.16584715 -6.70926795 -2.23642265 0 0 Z M-6 0 C-6 1.32 -6 2.64 -6 4 C-7.32 4.33 -8.64 4.66 -10 5 C-8.05396726 5.59070014 -8.05396726 5.59070014 -6 6 C-4.70366379 4.93354885 -4.70366379 4.93354885 -4.9375 2.4375 C-4.958125 1.633125 -4.97875 0.82875 -5 0 C-5.33 0 -5.66 0 -6 0 Z " fill="#14864C" transform="translate(343,126)"/>
<path d="M0 0 C0.33 0 0.66 0 1 0 C1.33 1.98 1.66 3.96 2 6 C2.53625 5.46375 3.0725 4.9275 3.625 4.375 C6 3 6 3 9.0625 3.8125 C10.031875 4.204375 11.00125 4.59625 12 5 C15.18490007 5.2773501 15.18490007 5.2773501 18 3 C21.28924289 3.13705179 23.28130237 3.42504189 25.875 5.5 C27.58880491 9.30845535 27.55860365 12.89350831 27 17 C25.65067343 19.69865314 24.82689986 20.6141134 22.125 21.875 C19.14579086 22.0502476 17.53972821 21.57874997 15 20 C14.1875 16.875 14.1875 16.875 14 14 C13.67 14.99 13.34 15.98 13 17 C12.01 17 11.02 17 10 17 C9.67 14.03 9.34 11.06 9 8 C7.68 7.67 6.36 7.34 5 7 C5 10.3 5 13.6 5 17 C3.68 17.33 2.36 17.66 1 18 C-1 16 -1 16 -1.23046875 12.55859375 C-1.22647911 11.18482696 -1.21173177 9.81105886 -1.1875 8.4375 C-1.18685547 7.73947266 -1.18621094 7.04144531 -1.18554688 6.32226562 C-1.14031158 1.14031158 -1.14031158 1.14031158 0 0 Z M18 7 C16.70366379 8.06645115 16.70366379 8.06645115 16.9375 10.5625 C16.958125 11.366875 16.97875 12.17125 17 13 C18.65614657 13.38218767 20.32457024 13.71395102 22 14 C23.29633621 12.93354885 23.29633621 12.93354885 23.0625 10.4375 C23.041875 9.633125 23.02125 8.82875 23 8 C21.34385343 7.61781233 19.67542976 7.28604898 18 7 Z M18 17 C18 17.33 18 17.66 18 18 C19.65 18 21.3 18 23 18 C23 17.67 23 17.34 23 17 C21.35 17 19.7 17 18 17 Z " fill="#E2914B" transform="translate(465,164)"/>
<path d="M0 0 C1.32 0 2.64 0 4 0 C4.33 1.65 4.66 3.3 5 5 C5.7425 4.649375 6.485 4.29875 7.25 3.9375 C10.22825106 2.92218714 11.10305803 3.13091741 14 4 C14.99 3.67 15.98 3.34 17 3 C21.66666667 5.33333333 21.66666667 5.33333333 23 8 C23.07092842 10.2072923 23.08415025 12.41667452 23.0625 14.625 C23.05347656 15.81351563 23.04445313 17.00203125 23.03515625 18.2265625 C23.02355469 19.14179688 23.01195312 20.05703125 23 21 C22.505 19.02 22.505 19.02 22 17 C20.68 16.67 19.36 16.34 18 16 C18 13.36 18 10.72 18 8 C17.01 7.67 16.02 7.34 15 7 C15 10.3 15 13.6 15 17 C13.68 17 12.36 17 11 17 C11 13.7 11 10.4 11 7 C10.01 7.33 9.02 7.66 8 8 C7.67 10.97 7.34 13.94 7 17 C1.39 17 -4.22 17 -10 17 C-10 15.68 -10 14.36 -10 13 C-6.7 13 -3.4 13 0 13 C0 8.71 0 4.42 0 0 Z " fill="#E69954" transform="translate(399,164)"/>
<path d="M0 0 C1.65 0 3.3 0 5 0 C5 4.62 5 9.24 5 14 C6.3303125 12.2675 6.3303125 12.2675 7.6875 10.5 C10.6008348 7.06074253 10.6008348 7.06074253 13.875 6.5625 C14.57625 6.706875 15.2775 6.85125 16 7 C14.18690997 10.77727089 12.0926741 14.37269822 10 18 C10.5053125 18.55429688 11.010625 19.10859375 11.53125 19.6796875 C12.1809375 20.40414062 12.830625 21.12859375 13.5 21.875 C14.1496875 22.59429687 14.799375 23.31359375 15.46875 24.0546875 C17 26 17 26 17 28 C14.875 28.375 14.875 28.375 12 28 C9.76086748 26.20659643 7.87545461 24.16547337 6 22 C5.34 23.98 4.68 25.96 4 28 C2.35 27.67 0.7 27.34 -1 27 C-1.02886537 22.68751391 -1.04675255 18.37505238 -1.0625 14.0625 C-1.07087891 12.83080078 -1.07925781 11.59910156 -1.08789062 10.33007812 C-1.09111328 9.16025391 -1.09433594 7.99042969 -1.09765625 6.78515625 C-1.10289307 5.70113525 -1.10812988 4.61711426 -1.11352539 3.50024414 C-1 1 -1 1 0 0 Z " fill="#0F9950" transform="translate(524,125)"/>
<path d="M0 0 C4.04166417 3.90354975 4.63607648 7.40113271 4.75 12.8125 C4.77964844 13.50537109 4.80929687 14.19824219 4.83984375 14.91210938 C4.90999628 16.60746213 4.95732662 18.30373312 5 20 C-8.95906226 20.68839211 -8.95906226 20.68839211 -12.75 18.25 C-16.33333333 14.66666667 -16.33333333 14.66666667 -17 12 C-16.92137134 7.04639425 -16.76989871 4.97797944 -13.6875 1.0625 C-8.7030582 -2.76276929 -5.88827208 -2.31324975 0 0 Z M-10.25 4.125 C-12.28308178 5.9464041 -12.28308178 5.9464041 -12.4375 9 C-12.20737857 11.92733832 -12.20737857 11.92733832 -10.875 13.875 C-8.08893958 15.54663625 -6.18011138 15.46376624 -3 15 C-0.90235835 13.48105194 -0.90235835 13.48105194 0 11 C0.00674926 7.87319901 0.00674926 7.87319901 -1 5 C-4.48254307 2.67830462 -6.42283713 2.21141857 -10.25 4.125 Z " fill="#299D62" transform="translate(380,133)"/>
<path d="M0 0 C3.33859155 2.91056699 3.9325406 4.52778419 4.5625 8.9375 C4.33988001 13.63923411 2.29769346 15.78082305 -1 19 C-4.50413828 20.75206914 -8.27294081 19.82897224 -12 19 C-14.84057875 17.29565275 -15.7082042 16.09168358 -16.55859375 12.91015625 C-17.15031403 9.2439306 -17.22890023 6.65808816 -16 3.125 C-11.15060228 -2.02748508 -6.36116974 -2.88052969 0 0 Z M-10.25 4.125 C-12.29079368 5.94420892 -12.29079368 5.94420892 -12.375 9 C-12.2049729 12.17702205 -12.2049729 12.17702205 -10 15 C-6.54250051 15.66676878 -6.54250051 15.66676878 -3 15 C-0.75699365 12.92836371 -0.75699365 12.92836371 0 10 C-0.81204413 6.82564566 -1.68180575 5.31819425 -4 3 C-7.82297795 2.7018576 -7.82297795 2.7018576 -10.25 4.125 Z " fill="#129555" transform="translate(323,133)"/>
<path d="M0 0 C3.63921529 0.12913345 4.62306416 0.45528942 7.75 2.625 C11.30787141 7.64501034 10.04646129 14.67685014 9.6875 20.5 C7.75 21.0625 7.75 21.0625 5.6875 21.5 C3.74659174 19.55909174 4.28830565 16.02706098 4.125 13.4375 C3.99931641 11.50197266 3.99931641 11.50197266 3.87109375 9.52734375 C3.81050781 8.52832031 3.74992187 7.52929688 3.6875 6.5 C1.29030568 5.82041397 1.29030568 5.82041397 -1.3125 5.5 C-4.17043316 8.35793316 -3.72049941 10.64665584 -3.9375 14.625 C-4.04964844 16.54699219 -4.04964844 16.54699219 -4.1640625 18.5078125 C-4.21304687 19.49523437 -4.26203125 20.48265625 -4.3125 21.5 C-5.9625 21.17 -7.6125 20.84 -9.3125 20.5 C-9.39400744 18.43816367 -9.4519194 16.37538651 -9.5 14.3125 C-9.53480469 13.16394531 -9.56960938 12.01539063 -9.60546875 10.83203125 C-9.0773131 4.82514101 -6.25963653 0.25248954 0 0 Z " fill="#14A157" transform="translate(394.3125,131.5)"/>
<path d="M0 0 C0.639375 -0.01289063 1.27875 -0.02578125 1.9375 -0.0390625 C5.3549958 1.06126759 6.84301071 2.79232732 9 5.625 C9.5829705 8.4301422 9.47800887 11.08820107 9.3125 13.9375 C9.28994141 14.67806641 9.26738281 15.41863281 9.24414062 16.18164062 C9.1855815 17.99697357 9.09590886 19.81125681 9 21.625 C7.35 21.625 5.7 21.625 4 21.625 C4.02320313 20.63757813 4.04640625 19.65015625 4.0703125 18.6328125 C4.08835937 17.35148437 4.10640625 16.07015625 4.125 14.75 C4.14820313 13.47382813 4.17140625 12.19765625 4.1953125 10.8828125 C4.35641524 7.53906662 4.35641524 7.53906662 2 5.625 C0.35 5.955 -1.3 6.285 -3 6.625 C-3.33 11.245 -3.66 15.865 -4 20.625 C-5.65 20.955 -7.3 21.285 -9 21.625 C-9.13559675 19.06071485 -9.23433188 16.50364784 -9.3125 13.9375 C-9.35439453 13.21626953 -9.39628906 12.49503906 -9.43945312 11.75195312 C-9.53410868 7.60603962 -9.33572381 6.0658903 -6.73046875 2.64453125 C-3.07126208 -0.06192061 -3.07126208 -0.06192061 0 0 Z " fill="#119B56" transform="translate(353,131.375)"/>
<path d="M0 0 C0.19585135 2.39541268 0.38192107 4.79092774 0.5625 7.1875 C0.61857422 7.86103516 0.67464844 8.53457031 0.73242188 9.22851562 C1.00963763 13.017131 0.96511161 16.31827794 0 20 C-0.99 20.33 -1.98 20.66 -3 21 C-5.41685712 16.77050005 -6.34833144 13.87664009 -6 9 C-6.66 9 -7.32 9 -8 9 C-8.33 10.65 -8.66 12.3 -9 14 C-10.32 13.34 -11.64 12.68 -13 12 C-13 8.37 -13 4.74 -13 1 C-12.34 1 -11.68 1 -11 1 C-11 0.34 -11 -0.32 -11 -1 C-6.50327206 -2.04575068 -4.18079199 -1.86604344 0 0 Z " fill="#E38427" transform="translate(163,96)"/>
<path d="M0 0 C0.598125 0.226875 1.19625 0.45375 1.8125 0.6875 C1.35427532 4.15691546 0.92118317 7.36145049 -0.1875 10.6875 C-1.59314945 11.59113179 -3.00096779 12.49164876 -4.421875 13.37109375 C-7.86508674 15.9382671 -10.47638587 19.38282834 -13.1875 22.6875 C-14.8375 22.3575 -16.4875 22.0275 -18.1875 21.6875 C-18.1875 20.3675 -18.1875 19.0475 -18.1875 17.6875 C-17.5275 17.3575 -16.8675 17.0275 -16.1875 16.6875 C-15.50965008 14.35739091 -14.84333207 12.02390176 -14.1875 9.6875 C-12.1875 7.6875 -12.1875 7.6875 -9.5625 7.5625 C-8.77875 7.60375 -7.995 7.645 -7.1875 7.6875 C-6.919375 6.924375 -6.65125 6.16125 -6.375 5.375 C-3.7625 -0.5375 -3.7625 -0.5375 0 0 Z " fill="#1F9E5F" transform="translate(226.1875,103.3125)"/>
<path d="M0 0 C3.21954645 2.53453657 4.70432435 4.11297305 6 8 C6.068991 10.06145107 6.08467727 12.12501401 6.0625 14.1875 C6.05347656 15.27417969 6.04445313 16.36085937 6.03515625 17.48046875 C6.02355469 18.31191406 6.01195312 19.14335937 6 20 C4.35 20.33 2.7 20.66 1 21 C0.95101562 20.01257813 0.90203125 19.02515625 0.8515625 18.0078125 C0.73941406 16.08582031 0.73941406 16.08582031 0.625 14.125 C0.55539062 12.84882813 0.48578125 11.57265625 0.4140625 10.2578125 C0.32758894 6.91938301 0.32758894 6.91938301 -2 5 C-3.65 5.33 -5.3 5.66 -7 6 C-7.33 10.62 -7.66 15.24 -8 20 C-8.99 20.33 -9.98 20.66 -11 21 C-10.85930804 18.87465341 -10.71229079 16.74972471 -10.5625 14.625 C-10.48128906 13.44164062 -10.40007812 12.25828125 -10.31640625 11.0390625 C-10 8 -10 8 -9 6 C-9.99 6 -10.98 6 -12 6 C-11.6875 4.125 -11.6875 4.125 -11 2 C-7.32705125 -0.4486325 -4.26731035 -0.83183438 0 0 Z " fill="#32A26A" transform="translate(517,132)"/>
<path d="M0 0 C3.88862987 1.26117725 5.89375599 2.45264167 8 6 C8 6.66 8 7.32 8 8 C8.969375 8.12375 9.93875 8.2475 10.9375 8.375 C11.948125 8.58125 12.95875 8.7875 14 9 C15.60725635 12.21451269 15.05748185 15.43612536 15 19 C14.67 19 14.34 19 14 19 C13.505 16.525 13.505 16.525 13 14 C12.01 14.33 11.02 14.66 10 15 C10.33 15.99 10.66 16.98 11 18 C10.34 18 9.68 18 9 18 C7.375 16 7.375 16 6 14 C3.69 14.33 1.38 14.66 -1 15 C-1.66 13.35 -2.32 11.7 -3 10 C-2.01 9.67 -1.02 9.34 0 9 C-0.66 6.69 -1.32 4.38 -2 2 C-1.34 1.34 -0.68 0.68 0 0 Z " fill="#1DA263" transform="translate(83,103)"/>
<path d="M0 0 C1.62463842 -0.05395478 3.24978541 -0.09277195 4.875 -0.125 C6.23238281 -0.15980469 6.23238281 -0.15980469 7.6171875 -0.1953125 C10 0 10 0 12 2 C15 2.33333333 15 2.33333333 18 2 C18.66 1.34 19.32 0.68 20 0 C21.32 0 22.64 0 24 0 C23.8125 2.3125 23.8125 2.3125 23 5 C20.3452979 7.19961031 18.46895165 7.93015614 15.0625 8.4375 C11.22776533 7.88968076 9.04981981 6.32367223 6 4 C5.4225 4.28875 4.845 4.5775 4.25 4.875 C3.5075 5.24625 2.765 5.6175 2 6 C1.071875 6.556875 1.071875 6.556875 0.125 7.125 C-2.77340108 8.31845927 -4.88802048 8.31754893 -8 8 C-10.875 6.5 -10.875 6.5 -13 5 C-10.11759427 3.55879714 -7.17916079 3.43850494 -4 3 C-2.66082739 2.69096017 -1.32346746 2.37057089 0 2 C0 1.34 0 0.68 0 0 Z " fill="#109551" transform="translate(421,145)"/>
<path d="M0 0 C0 8.58 0 17.16 0 26 C-1.32 26.33 -2.64 26.66 -4 27 C-6.35950068 24.64049932 -5.48124669 18.93371301 -5.625 15.75 C-5.6765625 14.79480469 -5.728125 13.83960938 -5.78125 12.85546875 C-5.82507813 11.92863281 -5.86890625 11.00179687 -5.9140625 10.046875 C-5.9548291 9.19963867 -5.9955957 8.35240234 -6.03759766 7.47949219 C-5.99806527 4.8724084 -5.58660384 2.53571554 -5 0 C-6.32 -0.33 -7.64 -0.66 -9 -1 C-6 -2 -6 -2 0 0 Z " fill="#082F1C" transform="translate(343,126)"/>
<path d="M0 0 C10.05020411 9.47590673 15.28185594 21.11588144 16 35 C12.58724745 32.72483163 12.57285199 32.32675164 11.6875 28.5625 C9.11703413 19.28472474 4.0063207 11.43335434 -2 4 C-1.34 4 -0.68 4 0 4 C0 2.68 0 1.36 0 0 Z " fill="#E8903A" transform="translate(196,40)"/>
<path d="M0 0 C0.33 0 0.66 0 1 0 C1.02886537 4.31248609 1.04675255 8.62494762 1.0625 12.9375 C1.07087891 14.16919922 1.07925781 15.40089844 1.08789062 16.66992188 C1.09111328 17.83974609 1.09433594 19.00957031 1.09765625 20.21484375 C1.10289307 21.29886475 1.10812988 22.38288574 1.11352539 23.49975586 C1 26 1 26 0 27 C-2.67058851 27.14115161 -5.32432238 27.04247107 -8 27 C-8 23.37 -8 19.74 -8 16 C-7.67 16 -7.34 16 -7 16 C-7 19.3 -7 22.6 -7 26 C-6.01 26 -5.02 26 -4 26 C-4 19.07 -4 12.14 -4 5 C-2.68 5 -1.36 5 0 5 C0 3.35 0 1.7 0 0 Z " fill="#067E41" transform="translate(276,126)"/>
<path d="M0 0 C2.8125 1.625 2.8125 1.625 5 4 C5.33 6.31 5.66 8.62 6 11 C0.72 11 -4.56 11 -10 11 C-10 10.34 -10 9.68 -10 9 C-6.04 9 -2.08 9 2 9 C0.68 7.68 -0.64 6.36 -2 5 C-5.06275204 5.18376512 -7.2605309 5.63026545 -10 7 C-10.99 6.67 -11.98 6.34 -13 6 C-12.875 4.1875 -12.875 4.1875 -12 2 C-7.72525025 -0.88297076 -4.92865795 -1.57297594 0 0 Z " fill="#1E9B5E" transform="translate(440,132)"/>
<path d="M0 0 C2.4375 0.75 2.4375 0.75 5 2 C5.8125 4.125 5.8125 4.125 6 6 C5.360625 5.814375 4.72125 5.62875 4.0625 5.4375 C3.0415625 5.2209375 3.0415625 5.2209375 2 5 C1.67 5.33 1.34 5.66 1 6 C2.32 6.33 3.64 6.66 5 7 C5.625 9.375 5.625 9.375 6 12 C4 14 4 14 1.5625 14.25 C-1 14 -1 14 -4 12 C-4.66 12.66 -5.32 13.32 -6 14 C-9.125 14.125 -9.125 14.125 -12 14 C-12.33 13.01 -12.66 12.02 -13 11 C-9.01939223 9.82923301 -5.08378283 8.74250597 -1 8 C-1.99 7.34 -2.98 6.68 -4 6 C-2.84826645 3.53199953 -1.95216435 1.95216435 0 0 Z M0 9 C0 9.66 0 10.32 0 11 C0.66 11 1.32 11 2 11 C2 10.34 2 9.68 2 9 C1.34 9 0.68 9 0 9 Z " fill="#EE964C" transform="translate(535,167)"/>
<path d="M0 0 C0.99 0.66 1.98 1.32 3 2 C3.66 2.33 4.32 2.66 5 3 C4.49210937 3.51046875 3.98421875 4.0209375 3.4609375 4.546875 C-2.15748293 10.48093702 -5.69201668 16.55961384 -9 24 C-9.34160156 24.76570313 -9.68320313 25.53140625 -10.03515625 26.3203125 C-10.71030041 27.87157397 -11.35942397 29.43414747 -12 31 C-12.66 31 -13.32 31 -14 31 C-12.1421677 19.51077393 -8.45024268 8.45024268 0 0 Z " fill="#E48D38" transform="translate(111,41)"/>
<path d="M0 0 C1.32 0.33 2.64 0.66 4 1 C3.34 5.95 2.68 10.9 2 16 C-1 17 -1 17 -3.75 16.0625 C-7.33517401 14.89042388 -10.25292435 14.85011697 -14 15 C-13.0409375 14.5978125 -13.0409375 14.5978125 -12.0625 14.1875 C-9.66868314 13.11332248 -9.66868314 13.11332248 -9 10 C-8.01 9.67 -7.02 9.34 -6 9 C-4.61423077 7.37667033 -3.27358732 5.71275535 -2 4 C-1.67 6.64 -1.34 9.28 -1 12 C-0.67 8.04 -0.34 4.08 0 0 Z " fill="#078644" transform="translate(504,137)"/>
<path d="M0 0 C0.33 0 0.66 0 1 0 C1.495 6.93 1.495 6.93 2 14 C0.35 14.33 -1.3 14.66 -3 15 C-3.33 13.68 -3.66 12.36 -4 11 C-4.40347656 11.47824219 -4.80695313 11.95648438 -5.22265625 12.44921875 C-7.37005969 14.32288725 -8.628776 14.53304854 -11.4375 14.8125 C-12.19933594 14.90144531 -12.96117187 14.99039063 -13.74609375 15.08203125 C-16.31315505 14.98860268 -17.80706333 14.29378268 -20 13 C-17.50907189 11.75453595 -16.58919267 12.2232422 -14 13 C-14 12.34 -14 11.68 -14 11 C-9.79646933 7.71919558 -6.08646583 6.2207518 -1 5 C-0.67 3.35 -0.34 1.7 0 0 Z " fill="#0CA050" transform="translate(302,138)"/>
<path d="M0 0 C8.25 0 16.5 0 25 0 C25 4.62 25 9.24 25 14 C15.76 14 6.52 14 -3 14 C-3.33 13.34 -3.66 12.68 -4 12 C4.91 12 13.82 12 23 12 C23 8.37 23 4.74 23 1 C15.41 1 7.82 1 0 1 C0 0.67 0 0.34 0 0 Z " fill="#D58637" transform="translate(263,109)"/>
<path d="M0 0 C1.2065625 0.0309375 1.2065625 0.0309375 2.4375 0.0625 C2.32285985 2.77162781 2.19612846 5.47929661 2.0625 8.1875 C2.0315625 8.94804687 2.000625 9.70859375 1.96875 10.4921875 C1.6316986 17.00851462 0.51633635 21.83182815 -3.5625 27.0625 C-3.59136537 22.75001391 -3.60925255 18.43755238 -3.625 14.125 C-3.63337891 12.89330078 -3.64175781 11.66160156 -3.65039062 10.39257812 C-3.65361328 9.22275391 -3.65683594 8.05292969 -3.66015625 6.84765625 C-3.66539307 5.76363525 -3.67062988 4.67961426 -3.67602539 3.56274414 C-3.52127885 0.15465951 -3.41882186 0.0833859 0 0 Z " fill="#07723D" transform="translate(526.5625,124.9375)"/>
<path d="M0 0 C3.55488906 3.64604006 4.22903981 6.44236815 4.25 11.375 C4.18629371 12.91760237 4.10956696 14.45997544 4 16 C3.67 16 3.34 16 3 16 C2.67 14.02 2.34 12.04 2 10 C0.68 11.32 -0.64 12.64 -2 14 C-1.93489583 11.98177083 -1.86979167 9.96354167 -1.8046875 7.9453125 C-1.81668311 5.76136355 -1.81668311 5.76136355 -4 4 C-7.08347826 3.83318891 -7.08347826 3.83318891 -10 4 C-10 3.01 -10 2.02 -10 1 C-12.475 2.485 -12.475 2.485 -15 4 C-13.98176734 0.94530201 -13.22907216 0.11719971 -10.3125 -1.375 C-6.12270773 -2.16552684 -3.89282991 -1.73014663 0 0 Z " fill="#189B59" transform="translate(499,133)"/>
<path d="M0 0 C0.66 0 1.32 0 2 0 C2 1.65 2 3.3 2 5 C2.99 4.67 3.98 4.34 5 4 C5.99 5.485 5.99 5.485 7 7 C11.34586828 7.39507893 13.32003497 7.45331002 17 5 C17 5.66 17 6.32 17 7 C17.66 7.66 18.32 8.32 19 9 C16.78841222 11.35427087 15.10614724 12.90749302 11.8046875 13.18359375 C8.16630272 12.90140879 5.61542474 12.38464046 2.5 10.4375 C0.35960278 6.95935451 0.27075979 4.06139684 0 0 Z " fill="#1DA05E" transform="translate(306,140)"/>
<path d="M0 0 C1.37478516 0.01740234 1.37478516 0.01740234 2.77734375 0.03515625 C3.69644531 0.04417969 4.61554688 0.05320312 5.5625 0.0625 C6.27277344 0.07410156 6.98304688 0.08570312 7.71484375 0.09765625 C7.71484375 2.07765625 7.71484375 4.05765625 7.71484375 6.09765625 C6.39484375 6.09765625 5.07484375 6.09765625 3.71484375 6.09765625 C3.38484375 13.02765625 3.05484375 19.95765625 2.71484375 27.09765625 C2.05484375 27.09765625 1.39484375 27.09765625 0.71484375 27.09765625 C0.71484375 18.84765625 0.71484375 10.59765625 0.71484375 2.09765625 C-2.27848364 3.09543205 -3.2328194 3.84985875 -5.28515625 6.09765625 C-2.98903326 0.12773646 -2.98903326 0.12773646 0 0 Z " fill="#3EA572" transform="translate(268.28515625,124.90234375)"/>
<path d="M0 0 C0.33 0 0.66 0 1 0 C1.33 1.98 1.66 3.96 2 6 C2.61875 5.505 3.2375 5.01 3.875 4.5 C6 3 6 3 8 3 C8.33 3.99 8.66 4.98 9 6 C7.68 6.33 6.36 6.66 5 7 C5 10.3 5 13.6 5 17 C3.68 17.33 2.36 17.66 1 18 C-1 16 -1 16 -1.23046875 12.55859375 C-1.22647911 11.18482696 -1.21173177 9.81105886 -1.1875 8.4375 C-1.18685547 7.73947266 -1.18621094 7.04144531 -1.18554688 6.32226562 C-1.14031158 1.14031158 -1.14031158 1.14031158 0 0 Z " fill="#B57136" transform="translate(465,164)"/>
<path d="M0 0 C0.66 0.33 1.32 0.66 2 1 C2 6.28 2 11.56 2 17 C1.34 17 0.68 17 0 17 C-0.33 14.36 -0.66 11.72 -1 9 C-2.32 11.64 -3.64 14.28 -5 17 C-5.99 17 -6.98 17 -8 17 C-8.36552803 15.58622218 -8.71695495 14.16879424 -9.0625 12.75 C-9.25972656 11.96109375 -9.45695312 11.1721875 -9.66015625 10.359375 C-10.01497267 7.89605178 -9.76877544 6.34395868 -9 4 C-8.01 5.98 -7.02 7.96 -6 10 C-5.01 8.02 -4.02 6.04 -3 4 C-2.01 4 -1.02 4 0 4 C0 2.68 0 1.36 0 0 Z " fill="#E69248" transform="translate(463,164)"/>
<path d="M0 0 C1.20628008 2.33214148 2.1654738 4.49642139 3 7 C5.01508358 7.73323796 5.01508358 7.73323796 7 8 C5.02 8 3.04 8 1 8 C1 8.66 1 9.32 1 10 C0.34 10 -0.32 10 -1 10 C-0.67 13.63 -0.34 17.26 0 21 C0.99 21 1.98 21 3 21 C3.33 20.01 3.66 19.02 4 18 C4.66 18 5.32 18 6 18 C5.01 21.3 4.02 24.6 3 28 C1.35 28.33 -0.3 28.66 -2 29 C-2.05821935 25.10422976 -2.0936703 21.20857198 -2.125 17.3125 C-2.14175781 16.20970703 -2.15851563 15.10691406 -2.17578125 13.97070312 C-2.18222656 12.90400391 -2.18867188 11.83730469 -2.1953125 10.73828125 C-2.20578613 9.75899658 -2.21625977 8.77971191 -2.22705078 7.77075195 C-1.98597685 4.82887228 -1.23055542 2.66762274 0 0 Z " fill="#D3914D" transform="translate(151,87)"/>
<path d="M0 0 C0.66 0 1.32 0 2 0 C2.1953125 1.98567708 2.390625 3.97135417 2.5859375 5.95703125 C2.92665391 8.29988142 2.92665391 8.29988142 5 11 C7.55183404 12.20450304 7.55183404 12.20450304 10 13 C10 13.33 10 13.66 10 14 C8.35 14.33 6.7 14.66 5 15 C4.34 18.96 3.68 22.92 3 27 C5.97 27 8.94 27 12 27 C12 27.33 12 27.66 12 28 C10.35425434 28.02688151 8.70838587 28.04634123 7.0625 28.0625 C6.14597656 28.07410156 5.22945313 28.08570313 4.28515625 28.09765625 C2 28 2 28 1 27 C0.84174742 25.00217874 0.74880829 22.99911166 0.68359375 20.99609375 C0.64169922 19.78115234 0.59980469 18.56621094 0.55664062 17.31445312 C0.51732422 16.03505859 0.47800781 14.75566406 0.4375 13.4375 C0.39431641 12.15423828 0.35113281 10.87097656 0.30664062 9.54882812 C0.200152 6.36600147 0.09814038 3.18309326 0 0 Z " fill="#016B2F" transform="translate(462,125)"/>
<path d="M0 0 C3 1 3 1 4 3 C4.07116382 5.37402501 4.08409085 7.75000677 4.0625 10.125 C4.05347656 11.40632812 4.04445313 12.68765625 4.03515625 14.0078125 C4.02355469 14.99523437 4.01195312 15.98265625 4 17 C2.0625 17.5625 2.0625 17.5625 0 18 C-1 17 -1 17 -1.1328125 13.9453125 C-1.13023437 12.68460938 -1.12765625 11.42390625 -1.125 10.125 C-1.12757813 8.86945313 -1.13015625 7.61390625 -1.1328125 6.3203125 C-1 3 -1 3 0 0 Z " fill="#0B7E43" transform="translate(400,135)"/>
<path d="M0 0 C1.48828125 1.08203125 1.48828125 1.08203125 3 3 C3.29296875 6.13671875 3.29296875 6.13671875 3.1875 9.6875 C3.14689453 11.45673828 3.14689453 11.45673828 3.10546875 13.26171875 C3.07066406 14.16535156 3.03585937 15.06898438 3 16 C1.35 16.33 -0.3 16.66 -2 17 C-2 11.72 -2 6.44 -2 1 C-1.34 0.67 -0.68 0.34 0 0 Z " fill="#35B06F" transform="translate(346,136)"/>
<path d="M0 0 C1.65 0.33 3.3 0.66 5 1 C5 1.66 5 2.32 5 3 C10.94 2.505 10.94 2.505 17 2 C17 2.66 17 3.32 17 4 C13.04 4 9.08 4 5 4 C5 4.66 5 5.32 5 6 C10.28 6 15.56 6 21 6 C20.67 6.99 20.34 7.98 20 9 C19.01 8.67 18.02 8.34 17 8 C14.94106379 7.77674186 12.87766347 7.59294241 10.8125 7.4375 C9.72582031 7.35371094 8.63914062 7.26992187 7.51953125 7.18359375 C6.68808594 7.12300781 5.85664063 7.06242188 5 7 C5 7.66 5 8.32 5 9 C3.35 8.67 1.7 8.34 0 8 C0 6.35 0 4.7 0 3 C-0.99 2.67 -1.98 2.34 -3 2 C-2.01 2 -1.02 2 0 2 C0 1.34 0 0.68 0 0 Z " fill="#067E43" transform="translate(425,137)"/>
<path d="M0 0 C0.99 0.66 1.98 1.32 3 2 C3 3.32 3 4.64 3 6 C1.9790625 5.7834375 1.9790625 5.7834375 0.9375 5.5625 C-5.15014236 3.98340357 -5.15014236 3.98340357 -11 5 C-11 4.01 -11 3.02 -11 2 C-12.98 2.99 -12.98 2.99 -15 4 C-14 1 -14 1 -10.875 -0.8125 C-6.7840353 -2.42868359 -4.0669141 -1.64240762 0 0 Z " fill="#219C5C" transform="translate(422,133)"/>
<path d="M0 0 C3.87467873 1.25665256 6.10609704 2.31187319 8 6 C8.1875 9.75 8.1875 9.75 8 13 C0.67264574 10.25650224 0.67264574 10.25650224 -0.9765625 7.17578125 C-1.5 5.25 -1.5 5.25 -2 2 C-1.34 1.34 -0.68 0.68 0 0 Z " fill="#0D9750" transform="translate(83,103)"/>
<path d="M0 0 C0.28875 0.61875 0.5775 1.2375 0.875 1.875 C1.93720042 4.13325765 1.93720042 4.13325765 4 6 C7.58343976 6.16677282 7.58343976 6.16677282 11 6 C11 6.99 11 7.98 11 9 C11.66 9.33 12.32 9.66 13 10 C9.46569344 12.35620437 8.16428713 12.48991613 4 12 C0.625 10 0.625 10 -2 8 C-1.34 5.36 -0.68 2.72 0 0 Z " fill="#179B58" transform="translate(367,141)"/>
<path d="M0 0 C1.32 0 2.64 0 4 0 C4 5.61 4 11.22 4 17 C2.68 17 1.36 17 0 17 C0 11.39 0 5.78 0 0 Z " fill="#BA6F31" transform="translate(502,164)"/>
<path d="M0 0 C1.65 0.33 3.3 0.66 5 1 C4.49228528 6.96564796 2.61407872 11.63809899 0 17 C-0.99 17 -1.98 17 -3 17 C-2.01 11.39 -1.02 5.78 0 0 Z " fill="#E38C36" transform="translate(139,100)"/>
<path d="M0 0 C5.75 1.625 5.75 1.625 8 5 C8.1953125 8.13671875 8.1953125 8.13671875 8.125 11.6875 C8.10695313 12.86699219 8.08890625 14.04648438 8.0703125 15.26171875 C8.03550781 16.61716797 8.03550781 16.61716797 8 18 C7.67 16.68 7.34 15.36 7 14 C5.68 13.67 4.36 13.34 3 13 C3 10.36 3 7.72 3 5 C2.34 4.67 1.68 4.34 1 4 C0.375 1.9375 0.375 1.9375 0 0 Z " fill="#B56C30" transform="translate(414,167)"/>
<path d="M0 0 C0.66 0.33 1.32 0.66 2 1 C0.68 2.65 -0.64 4.3 -2 6 C-1.01 6.66 -0.02 7.32 1 8 C-0.07749442 8.82022749 -1.16229508 9.63086169 -2.25 10.4375 C-3.15492187 11.11619141 -3.15492187 11.11619141 -4.078125 11.80859375 C-6.06292756 13.03900997 -7.71987655 13.56112668 -10 14 C-10.69921875 12.22265625 -10.69921875 12.22265625 -11 10 C-9.70703125 8.18359375 -9.70703125 8.18359375 -7.8125 6.4375 C-6.84570312 5.53644531 -6.84570312 5.53644531 -5.859375 4.6171875 C-3.97063481 2.97445969 -2.07121242 1.40842445 0 0 Z " fill="#E7903B" transform="translate(123,30)"/>
<path d="M0 0 C2.375 0.75 2.375 0.75 3.375 1.75 C3.5625 4.1875 3.5625 4.1875 3.375 6.75 C2.715 7.41 2.055 8.07 1.375 8.75 C-1.75 8.375 -1.75 8.375 -4.625 7.75 C-5.3125 5.4375 -5.3125 5.4375 -5.625 2.75 C-3.9659358 -0.015107 -3.22812218 -0.30744021 0 0 Z " fill="#DB832F" transform="translate(168.625,61.25)"/>
<path d="M0 0 C0 1.32 0 2.64 0 4 C-0.99 4.33 -1.98 4.66 -3 5 C-2.01 5.33 -1.02 5.66 0 6 C0 7.65 0 9.3 0 11 C-1.65 10.67 -3.3 10.34 -5 10 C-3.68 9.67 -2.36 9.34 -1 9 C-1 8.34 -1 7.68 -1 7 C-2.32 7 -3.64 7 -5 7 C-5 6.34 -5 5.68 -5 5 C-5.66 5 -6.32 5 -7 5 C-7 7.31 -7 9.62 -7 12 C-7.66 12 -8.32 12 -9 12 C-9.48539326 4.71910112 -9.48539326 4.71910112 -7.3125 1.5 C-4.62023779 -0.24633224 -3.14839906 -0.34982212 0 0 Z " fill="#23985D" transform="translate(337,126)"/>
<path d="M0 0 C2.5 0.0625 2.5 0.0625 5 1 C6.4375 3.375 6.4375 3.375 7 6 C6.01 7.485 6.01 7.485 5 9 C2.5 9.3125 2.5 9.3125 0 9 C-2 7 -2 7 -2.25 4.5 C-2 2 -2 2 0 0 Z " fill="#DE8735" transform="translate(144,61)"/>
<path d="M0 0 C1.98 0 3.96 0 6 0 C6 0.66 6 1.32 6 2 C5.01 2 4.02 2 3 2 C2.9175 2.61875 2.835 3.2375 2.75 3.875 C2 6 2 6 0.3125 7.25 C-2.66354002 8.21520217 -4.88283635 8.31807792 -8 8 C-10.875 6.5 -10.875 6.5 -13 5 C-10.11759427 3.55879714 -7.17916079 3.43850494 -4 3 C-2.66082739 2.69096017 -1.32346746 2.37057089 0 2 C0 1.34 0 0.68 0 0 Z " fill="#19A25C" transform="translate(421,145)"/>
<path d="M0 0 C0.10621544 8.74507107 0.01286753 17.30019136 -1 26 C-1.33 26 -1.66 26 -2 26 C-2 19.4 -2 12.8 -2 6 C-2.66 6 -3.32 6 -4 6 C-4 6.66 -4 7.32 -4 8 C-4.66 8 -5.32 8 -6 8 C-6.75 6.25 -6.75 6.25 -7 4 C-4.66754091 1.00112403 -3.88153854 0 0 0 Z " fill="#059A4F" transform="translate(269,127)"/>
<path d="M0 0 C1.85276347 3.39673303 2.99049196 6.86904604 4.125 10.5625 C4.47820312 11.69816406 4.83140625 12.83382812 5.1953125 14.00390625 C6 17 6 17 6 20 C3 19 3 19 1.32421875 16.19921875 C0.78410156 15.04035156 0.24398437 13.88148437 -0.3125 12.6875 C-1.14201172 10.96080078 -1.14201172 10.96080078 -1.98828125 9.19921875 C-3 6 -3 6 -2.23046875 3.70703125 C-1.82441406 3.14371094 -1.41835937 2.58039063 -1 2 C-0.67 1.34 -0.34 0.68 0 0 Z " fill="#D28231" transform="translate(170,97)"/>
<path d="M0 0 C4.64019605 6.96029408 6.45888533 14.74800129 7 23 C3.55420557 20.70280372 3.47521469 20.08120055 2.5 16.25 C1.63264587 13.02641111 0.80819468 10.64945925 -0.8125 7.6875 C-2 5 -2 5 -1.1875 2.125 C-0.795625 1.42375 -0.40375 0.7225 0 0 Z " fill="#D3833E" transform="translate(205,52)"/>
<path d="M0 0 C0 0.99 0 1.98 0 3 C0.66 3.33 1.32 3.66 2 4 C0.576875 4.556875 0.576875 4.556875 -0.875 5.125 C-4.25553808 6.73995905 -4.25553808 6.73995905 -5.375 10.1875 C-5.58125 11.115625 -5.7875 12.04375 -6 13 C-6.66 13 -7.32 13 -8 13 C-8 11.35 -8 9.7 -8 8 C-8.66 7.67 -9.32 7.34 -10 7 C-7.30725018 2.12740508 -5.90493851 0 0 0 Z " fill="#0B914E" transform="translate(316,132)"/>
<path d="M0 0 C0.99 0 1.98 0 3 0 C3 6.6 3 13.2 3 20 C2.01 20 1.02 20 0 20 C0 13.4 0 6.8 0 0 Z " fill="#0CA454" transform="translate(339,133)"/>
<path d="M0 0 C0.680625 -0.00515625 1.36125 -0.0103125 2.0625 -0.015625 C4 0.25 4 0.25 7 2.25 C6 4.25 6 4.25 5 5.25 C4.67 5.91 4.34 6.57 4 7.25 C3.34 6.59 2.68 5.93 2 5.25 C-0.61580479 5.5769756 -2.64078137 6.07039068 -5 7.25 C-5.66 6.59 -6.32 5.93 -7 5.25 C-7 4.26 -7 3.27 -7 2.25 C-4.00261059 0.25174039 -3.36652492 -0.02550398 0 0 Z " fill="#0B9650" transform="translate(353,131.75)"/>
<path d="M0 0 C0.66 0.66 1.32 1.32 2 2 C2.66 1.67 3.32 1.34 4 1 C4 5.62 4 10.24 4 15 C2.35 14.67 0.7 14.34 -1 14 C-1.02685938 11.85423363 -1.04633088 9.70837355 -1.0625 7.5625 C-1.07410156 6.36753906 -1.08570313 5.17257813 -1.09765625 3.94140625 C-1 1 -1 1 0 0 Z " fill="#017C39" transform="translate(386,138)"/>
<path d="M0 0 C2.49361571 1.20381448 4.68143083 2.45428722 7 4 C7 5.65 7 7.3 7 9 C1.72 9 -3.56 9 -9 9 C-9 8.34 -9 7.68 -9 7 C-5.04 7 -1.08 7 3 7 C2.01 5.35 1.02 3.7 0 2 C0 1.34 0 0.68 0 0 Z " fill="#01A855" transform="translate(439,134)"/>
<path d="M0 0 C-0.47122748 6.9113364 -3.20636006 12.72204161 -6 19 C-6.66 19 -7.32 19 -8 19 C-6.90393292 12.70728548 -5.56087482 6.86867146 -3 1 C-1 0 -1 0 0 0 Z " fill="#E18E39" transform="translate(105,53)"/>
<path d="M0 0 C0.33 0 0.66 0 1 0 C1.02699725 2.27076842 1.04639453 4.54162821 1.0625 6.8125 C1.07410156 8.07707031 1.08570313 9.34164062 1.09765625 10.64453125 C1 14 1 14 0 17 C-3.3 17 -6.6 17 -10 17 C-10 15.68 -10 14.36 -10 13 C-6.7 13 -3.4 13 0 13 C0 8.71 0 4.42 0 0 Z " fill="#89542B" transform="translate(399,164)"/>
<path d="M0 0 C2 4 2 4 2 8 C4.64 7.67 7.28 7.34 10 7 C9.67 8.65 9.34 10.3 9 12 C5.7 12 2.4 12 -1 12 C-0.67 8.04 -0.34 4.08 0 0 Z " fill="#17A25C" transform="translate(466,140)"/>
<path d="M0 0 C0.66 0 1.32 0 2 0 C2 2.64 2 5.28 2 8 C2.66 8 3.32 8 4 8 C4 10.97 4 13.94 4 17 C2.68 17 1.36 17 0 17 C0 11.39 0 5.78 0 0 Z " fill="#F7AB66" transform="translate(400,164)"/>
<path d="M0 0 C-0.67290761 3.8131431 -1.46144431 7.43702894 -3 11 C-5.125 11.875 -5.125 11.875 -7 12 C-7.43684211 6.75789474 -7.43684211 6.75789474 -7 4 C-3.2 0 -3.2 0 0 0 Z " fill="#078A46" transform="translate(489,134)"/>
<path d="M0 0 C0.66 0.99 1.32 1.98 2 3 C1.319375 3.804375 1.319375 3.804375 0.625 4.625 C-1.21688312 7.31698302 -2.07971933 9.88520388 -3 13 C-3.66 13 -4.32 13 -5 13 C-6.34076016 6.78374836 -6.34076016 6.78374836 -4.75 3.125 C-3 1 -3 1 0 0 Z " fill="#08964E" transform="translate(369,134)"/>
<path d="M0 0 C-0.1875 2.3125 -0.1875 2.3125 -1 5 C-3.79171049 7.31313155 -5.57291023 7.95812845 -9.1875 8.3125 C-12 8 -12 8 -14 6 C-12.02 6 -10.04 6 -8 6 C-8 5.01 -8 4.02 -8 3 C-5.0936485 0.19744677 -4.21174952 0 0 0 Z " fill="#31A66C" transform="translate(445,145)"/>
<path d="M0 0 C0.66 0.66 1.32 1.32 2 2 C1.34 2.66 0.68 3.32 0 4 C0.35355436 6.26274788 0.97544426 7.95088852 2 10 C1.34 10.66 0.68 11.32 0 12 C-0.6425235 14.06874034 -0.6425235 14.06874034 -1 16 C-1.66 16 -2.32 16 -3 16 C-3 11.05 -3 6.1 -3 1 C-2.01 0.67 -1.02 0.34 0 0 Z " fill="#F79B4B" transform="translate(425,169)"/>
<path d="M0 0 C2.48448024 1.24224012 4.67054766 2.44703177 7 4 C6.360625 4.28875 5.72125 4.5775 5.0625 4.875 C2.84793921 5.82823451 2.84793921 5.82823451 2 8 C4.64 8 7.28 8 10 8 C10 8.33 10 8.66 10 9 C8.02 9.33 6.04 9.66 4 10 C3.67 10.99 3.34 11.98 3 13 C2.01 12.67 1.02 12.34 0 12 C0.03480469 11.06027344 0.03480469 11.06027344 0.0703125 10.1015625 C0.08835937 9.28429687 0.10640625 8.46703125 0.125 7.625 C0.14820313 6.81289062 0.17140625 6.00078125 0.1953125 5.1640625 C0.21370051 2.78657757 0.21370051 2.78657757 -2 1 C-1.34 0.67 -0.68 0.34 0 0 Z " fill="#CE7738" transform="translate(520,167)"/>
<path d="M0 0 C-2.19138979 2.35729943 -4.43931973 4.02057098 -7.1875 5.6875 C-7.90292969 6.12449219 -8.61835938 6.56148438 -9.35546875 7.01171875 C-9.89816406 7.33785156 -10.44085938 7.66398437 -11 8 C-11 7.01 -11 6.02 -11 5 C-12.65 5 -14.3 5 -16 5 C-14.68 4.67 -13.36 4.34 -12 4 C-12 3.34 -12 2.68 -12 2 C-10.56656 1.46809459 -9.12804633 0.94984742 -7.6875 0.4375 C-6.48673828 0.00244141 -6.48673828 0.00244141 -5.26171875 -0.44140625 C-3 -1 -3 -1 0 0 Z " fill="#E1923E" transform="translate(181,69)"/>
<path d="M0 0 C2.4375 0.625 2.4375 0.625 5 2 C6.22725349 5.94474337 6.04879027 9.03790343 5 13 C4.01 13 3.02 13 2 13 C1.93941406 12.39671875 1.87882812 11.7934375 1.81640625 11.171875 C1.69072266 9.97304687 1.69072266 9.97304687 1.5625 8.75 C1.48128906 7.96109375 1.40007812 7.1721875 1.31640625 6.359375 C1.02365007 4.17635361 0.57935581 2.1226818 0 0 Z " fill="#D38A4A" transform="translate(473,168)"/>
<path d="M0 0 C0.33 0.66 0.66 1.32 1 2 C1.66 2 2.32 2 3 2 C3 1.34 3 0.68 3 0 C3.66 0 4.32 0 5 0 C5 6.6 5 13.2 5 20 C4.67 20 4.34 20 4 20 C3.67 15.05 3.34 10.1 3 5 C1.68 5 0.36 5 -1 5 C-1.33 5.99 -1.66 6.98 -2 8 C-2.33 7.34 -2.66 6.68 -3 6 C-2.06553465 3.96855359 -1.06775224 1.96466413 0 0 Z " fill="#1D8A53" transform="translate(262,133)"/>
<path d="M0 0 C0.99 0.33 1.98 0.66 3 1 C1.75 3.4375 1.75 3.4375 0 6 C-0.61875 6.144375 -1.2375 6.28875 -1.875 6.4375 C-4.64651255 7.17113567 -5.79583354 8.49559317 -7.75 10.5625 C-8.36359375 11.20316406 -8.9771875 11.84382813 -9.609375 12.50390625 C-10.06828125 12.99761719 -10.5271875 13.49132812 -11 14 C-11.66 13.67 -12.32 13.34 -13 13 C-11.59419724 11.34487752 -10.17493734 9.70117794 -8.75 8.0625 C-7.96109375 7.14597656 -7.1721875 6.22945313 -6.359375 5.28515625 C-4.08748967 3.08473751 -3.07680978 2.33167445 0 2 C0 1.34 0 0.68 0 0 Z " fill="#038F47" transform="translate(226,112)"/>
<path d="M0 0 C1.32 0.33 2.64 0.66 4 1 C3.67 3.31 3.34 5.62 3 8 C2.34 8 1.68 8 1 8 C0.34 9.32 -0.32 10.64 -1 12 C-1.99 12 -2.98 12 -4 12 C-3 10 -3 10 -1 8 C-1.66 7.67 -2.32 7.34 -3 7 C-2.01 4.69 -1.02 2.38 0 0 Z " fill="#E79A5F" transform="translate(517,169)"/>
<path d="M0 0 C0.33 0 0.66 0 1 0 C1 3.63 1 7.26 1 11 C1.66 11.33 2.32 11.66 3 12 C1.02 12 -0.96 12 -3 12 C-2.67 11.01 -2.34 10.02 -2 9 C-2.99 9.33 -3.98 9.66 -5 10 C-4.6875 7.625 -4.6875 7.625 -4 5 C-3.01 4.34 -2.02 3.68 -1 3 C-0.67 2.01 -0.34 1.02 0 0 Z " fill="#038D42" transform="translate(382,141)"/>
<path d="M0 0 C1.5625 1.8125 1.5625 1.8125 3 4 C2.67 4.99 2.34 5.98 2 7 C-2.95 6.67 -7.9 6.34 -13 6 C-12.67 4.68 -12.34 3.36 -12 2 C-12 2.66 -12 3.32 -12 4 C-8.04 4 -4.08 4 0 4 C0 2.68 0 1.36 0 0 Z " fill="#C97828" transform="translate(381,117)"/>
<path d="M0 0 C1.20628008 2.33214148 2.1654738 4.49642139 3 7 C5.01508358 7.73323796 5.01508358 7.73323796 7 8 C5.02 8 3.04 8 1 8 C1 8.66 1 9.32 1 10 C0.34 10 -0.32 10 -1 10 C-1 13.63 -1 17.26 -1 21 C-1.33 21 -1.66 21 -2 21 C-2.05420701 18.43721301 -2.09377007 15.87558517 -2.125 13.3125 C-2.15013672 12.2306543 -2.15013672 12.2306543 -2.17578125 11.12695312 C-2.21391569 6.95123219 -1.8789919 3.7505862 0 0 Z " fill="#F39A43" transform="translate(151,87)"/>
<path d="M0 0 C0.33 0 0.66 0 1 0 C1.66 5.61 2.32 11.22 3 17 C2.01 17 1.02 17 0 17 C-1.75559942 15.24440058 -1.13221919 12.96417558 -1.13671875 10.62890625 C-1.13285156 9.92636719 -1.12898438 9.22382813 -1.125 8.5 C-1.12886719 7.79746094 -1.13273437 7.09492188 -1.13671875 6.37109375 C-1.12661378 1.12661378 -1.12661378 1.12661378 0 0 Z " fill="#BD6D2A" transform="translate(465,164)"/>
<path d="M0 0 C2.31 0 4.62 0 7 0 C7 0.66 7 1.32 7 2 C7.66 2 8.32 2 9 2 C9 2.66 9 3.32 9 4 C7.02 4.33 5.04 4.66 3 5 C2.67 5.99 2.34 6.98 2 8 C2 6.68 2 5.36 2 4 C1.34 4 0.68 4 0 4 C0 2.68 0 1.36 0 0 Z " fill="#148243" transform="translate(465,125)"/>
<path d="M0 0 C0.99 0.33 1.98 0.66 3 1 C3 3.31 3 5.62 3 8 C2.34 8 1.68 8 1 8 C0.34 9.98 -0.32 11.96 -1 14 C-1.33 14 -1.66 14 -2 14 C-2 9.71 -2 5.42 -2 1 C-1.34 0.67 -0.68 0.34 0 0 Z " fill="#CF8749" transform="translate(439,167)"/>
<path d="M0 0 C0.33 1.32 0.66 2.64 1 4 C1.66 4 2.32 4 3 4 C3.33 6.31 3.66 8.62 4 11 C6.64 10.34 9.28 9.68 12 9 C11.34 10.32 10.68 11.64 10 13 C6.75207316 13 4.92341206 12.3492671 2 11 C0 9 0 9 -0.1953125 6.8359375 C-0.17210937 6.02382812 -0.14890625 5.21171875 -0.125 4.375 C-0.10695313 3.55773437 -0.08890625 2.74046875 -0.0703125 1.8984375 C-0.04710937 1.27195312 -0.02390625 0.64546875 0 0 Z " fill="#21A863" transform="translate(464,125)"/>
<path d="M0 0 C0.66 0 1.32 0 2 0 C2.33 1.32 2.66 2.64 3 4 C4.32 4.33 5.64 4.66 7 5 C7 5.66 7 6.32 7 7 C5.68 6.67 4.36 6.34 3 6 C3 6.66 3 7.32 3 8 C1.02 8.99 1.02 8.99 -1 10 C-2.23076923 4.58461538 -2.23076923 4.58461538 -1.0625 1.625 C-0.5365625 0.820625 -0.5365625 0.820625 0 0 Z " fill="#09904A" transform="translate(206,121)"/>
<path d="M0 0 C0 2.31 0 4.62 0 7 C-0.99 7.495 -0.99 7.495 -2 8 C-2 7.01 -2 6.02 -2 5 C-2.86625 5.309375 -2.86625 5.309375 -3.75 5.625 C-6.51967567 6.08661261 -7.64561267 5.42944945 -10 4 C-3.375 0 -3.375 0 0 0 Z " fill="#31AA6D" transform="translate(203,121)"/>
<path d="M0 0 C0.66 0 1.32 0 2 0 C2 1.65 2 3.3 2 5 C2.99 4.67 3.98 4.34 5 4 C6.32 5.65 7.64 7.3 9 9 C7.68 9 6.36 9 5 9 C5 9.99 5 10.98 5 12 C2.69857565 10.21825212 1.19965609 8.83695835 0.51171875 5.953125 C0.27676898 3.9753389 0.13248542 1.98728128 0 0 Z " fill="#31A76B" transform="translate(306,140)"/>
<path d="M0 0 C1.984375 1.546875 1.984375 1.546875 4 4 C4.390625 7.453125 4.390625 7.453125 4.25 11.25 C4.21390625 12.51328125 4.1778125 13.7765625 4.140625 15.078125 C4.09421875 16.04234375 4.0478125 17.0065625 4 18 C3.67 18 3.34 18 3 18 C2.67 15.36 2.34 12.72 2 10 C1.01 10.66 0.02 11.32 -1 12 C-0.9278125 11.30132812 -0.855625 10.60265625 -0.78125 9.8828125 C-0.6884375 8.97273437 -0.595625 8.06265625 -0.5 7.125 C-0.4071875 6.22007812 -0.314375 5.31515625 -0.21875 4.3828125 C0.03047295 2.06686789 0.03047295 2.06686789 0 0 Z " fill="#27A968" transform="translate(380,134)"/>
<path d="M0 0 C-1.40844718 3.21524305 -3.10344786 5.32183868 -5.625 7.75 C-6.57246094 8.67039062 -6.57246094 8.67039062 -7.5390625 9.609375 C-8.02117187 10.06828125 -8.50328125 10.5271875 -9 11 C-9.703125 9.234375 -9.703125 9.234375 -10 7 C-8.671875 5.078125 -8.671875 5.078125 -6.75 3.25 C-5.81414062 2.32960937 -5.81414062 2.32960937 -4.859375 1.390625 C-3 0 -3 0 0 0 Z " fill="#EB8D34" transform="translate(469,42)"/>
<path d="M0 0 C0.33 0 0.66 0 1 0 C1.33 1.65 1.66 3.3 2 5 C2.99 5.33 3.98 5.66 5 6 C4.67 9.63 4.34 13.26 4 17 C3.34 17 2.68 17 2 17 C2 14.03 2 11.06 2 8 C1.34 8 0.68 8 0 8 C0 5.36 0 2.72 0 0 Z " fill="#DF8F4E" transform="translate(402,164)"/>
<path d="M0 0 C0.99 0 1.98 0 3 0 C3 0.99 3 1.98 3 3 C2.34 3 1.68 3 1 3 C1.33 3.66 1.66 4.32 2 5 C2.07065617 7.04055005 2.08421976 9.08334257 2.0625 11.125 C2.05347656 12.22070312 2.04445313 13.31640625 2.03515625 14.4453125 C2.02355469 15.28835937 2.01195312 16.13140625 2 17 C1.34 17 0.68 17 0 17 C0 11.39 0 5.78 0 0 Z " fill="#F09848" transform="translate(506,164)"/>
<path d="M0 0 C0.66 0.33 1.32 0.66 2 1 C2.4140625 3.94140625 2.4140625 3.94140625 2.625 7.5625 C2.69976563 8.76003906 2.77453125 9.95757812 2.8515625 11.19140625 C2.90054688 12.11824219 2.94953125 13.04507813 3 14 C1.68 14 0.36 14 -1 14 C-0.67 9.38 -0.34 4.76 0 0 Z " fill="#039540" transform="translate(519,139)"/>
<path d="M0 0 C1.32 0.33 2.64 0.66 4 1 C4.625 2.875 4.625 2.875 5 5 C4.34 5.66 3.68 6.32 3 7 C2.53603307 9.89223503 2.53603307 9.89223503 2.375 13.125 C2.30023438 14.22070312 2.22546875 15.31640625 2.1484375 16.4453125 C2.09945313 17.28835937 2.05046875 18.13140625 2 19 C1.34 18.67 0.68 18.34 0 18 C0 12.06 0 6.12 0 0 Z " fill="#077D40" transform="translate(357,134)"/>
<path d="M0 0 C0.66 0 1.32 0 2 0 C2 0.66 2 1.32 2 2 C3.32 2 4.64 2 6 2 C6 2.66 6 3.32 6 4 C4.68 4 3.36 4 2 4 C2 9.61 2 15.22 2 21 C1.67 21 1.34 21 1 21 C0.67 14.07 0.34 7.14 0 0 Z " fill="#02A352" transform="translate(330,131)"/>
<path d="M0 0 C2.4375 0.75 2.4375 0.75 5 2 C5.33 3.32 5.66 4.64 6 6 C3.03 5.67 0.06 5.34 -3 5 C-1 1 -1 1 0 0 Z " fill="#D28441" transform="translate(535,167)"/>
<path d="M0 0 C-0.66 1.32 -1.32 2.64 -2 4 C-3.4800841 3.88637738 -4.95910074 3.75877092 -6.4375 3.625 C-7.26121094 3.55539063 -8.08492188 3.48578125 -8.93359375 3.4140625 C-9.61550781 3.27742187 -10.29742187 3.14078125 -11 3 C-11.33 2.34 -11.66 1.68 -12 1 C-9.03 1.495 -9.03 1.495 -6 2 C-6 1.34 -6 0.68 -6 0 C-3.50907189 -1.24546405 -2.58919267 -0.7767578 0 0 Z " fill="#20A562" transform="translate(294,149)"/>
<path d="M0 0 C4.62 0.99 9.24 1.98 14 3 C14 3.33 14 3.66 14 4 C12.02 4.33 10.04 4.66 8 5 C8 5.99 8 6.98 8 8 C7.5875 7.54625 7.175 7.0925 6.75 6.625 C5.07330411 4.90313178 5.07330411 4.90313178 2.875 4 C1 3 1 3 0 0 Z " fill="#C88C4C" transform="translate(132,68)"/>
<path d="M0 0 C0 0.66 0 1.32 0 2 C0.66 2.33 1.32 2.66 2 3 C1.21625 3.226875 0.4325 3.45375 -0.375 3.6875 C-3.21875 4.78125 -3.21875 4.78125 -4.3125 7.625 C-4.539375 8.40875 -4.76625 9.1925 -5 10 C-5.33 10 -5.66 10 -6 10 C-5.88637738 8.5199159 -5.75877092 7.04089926 -5.625 5.5625 C-5.55539062 4.73878906 -5.48578125 3.91507813 -5.4140625 3.06640625 C-5.27742188 2.38449219 -5.14078125 1.70257813 -5 1 C-3 0 -3 0 0 0 Z " fill="#D8813B" transform="translate(486,167)"/>
<path d="M0 0 C0.33 0.99 0.66 1.98 1 3 C1.99 3.33 2.98 3.66 4 4 C3.01 6.64 2.02 9.28 1 12 C0.01 12 -0.98 12 -2 12 C-1.34 8.04 -0.68 4.08 0 0 Z " fill="#B47130" transform="translate(138,105)"/>
<path d="M0 0 C0.66 0.33 1.32 0.66 2 1 C1.67 1.99 1.34 2.98 1 4 C1.66 4 2.32 4 3 4 C2.67 7.96 2.34 11.92 2 16 C1.67 16 1.34 16 1 16 C0.96261719 15.38511719 0.92523438 14.77023438 0.88671875 14.13671875 C0.82097656 13.32847656 0.75523437 12.52023438 0.6875 11.6875 C0.62949219 10.88699219 0.57148438 10.08648437 0.51171875 9.26171875 C-0.08206694 6.63727666 -0.95780294 5.69179328 -3 4 C-2 2 -2 2 0 0 Z " fill="#E18D41" transform="translate(162,90)"/>
<path d="M0 0 C3.3 0 6.6 0 10 0 C10 1.98 10 3.96 10 6 C8.68 6 7.36 6 6 6 C6 4.35 6 2.7 6 1 C4.02 1 2.04 1 0 1 C0 0.67 0 0.34 0 0 Z " fill="#198C4D" transform="translate(266,125)"/>
<path d="M0 0 C2.7972908 2.06756277 3.02692273 3.14440371 3.6875 6.6875 C3.790625 7.780625 3.89375 8.87375 4 10 C2.125 9.375 2.125 9.375 0 8 C-1.25 4.875 -1.25 4.875 -2 2 C-1.34 2 -0.68 2 0 2 C0 1.34 0 0.68 0 0 Z " fill="#EB8932" transform="translate(201,46)"/>
<path d="M0 0 C2 2 2 2 2.1953125 4.3828125 C2.17210937 5.28773438 2.14890625 6.19265625 2.125 7.125 C2.10695313 8.03507813 2.08890625 8.94515625 2.0703125 9.8828125 C2.04710937 10.58148438 2.02390625 11.28015625 2 12 C1.67 12 1.34 12 1 12 C0.67 10.02 0.34 8.04 0 6 C-1.32 7.32 -2.64 8.64 -4 10 C-3.67 7.69 -3.34 5.38 -3 3 C-2.01 3 -1.02 3 0 3 C0 2.01 0 1.02 0 0 Z " fill="#2FA069" transform="translate(501,137)"/>
<path d="M0 0 C2.35171131 0.59861742 4.6859378 1.26924352 7 2 C7.33 2.66 7.66 3.32 8 4 C7.01 4 6.02 4 5 4 C5.66 5.65 6.32 7.3 7 9 C5.8225266 8.26708288 4.65823146 7.51296199 3.5 6.75 C2.52546875 6.12351563 2.52546875 6.12351563 1.53125 5.484375 C1.0259375 4.99453125 0.520625 4.5046875 0 4 C0 2.68 0 1.36 0 0 Z " fill="#24995D" transform="translate(316,131)"/>
<path d="M0 0 C0.33 0 0.66 0 1 0 C1 1.98 1 3.96 1 6 C2.65 6 4.3 6 6 6 C5.6875 7.9375 5.6875 7.9375 5 10 C4.01 10.33 3.02 10.66 2 11 C1.34 10.67 0.68 10.34 0 10 C0 6.7 0 3.4 0 0 Z " fill="#AB6721" transform="translate(152,81)"/>
<path d="M0 0 C1.98 0 3.96 0 6 0 C6 0.66 6 1.32 6 2 C5.01 2 4.02 2 3 2 C2.67 3.32 2.34 4.64 2 6 C0.68 6.33 -0.64 6.66 -2 7 C-1.34 6.34 -0.68 5.68 0 5 C-1.32 4.34 -2.64 3.68 -4 3 C-2.68 2.67 -1.36 2.34 0 2 C0 1.34 0 0.68 0 0 Z " fill="#29AB6D" transform="translate(421,145)"/>
<path d="M0 0 C0.99 1.485 0.99 1.485 2 3 C4.55183404 4.20450304 4.55183404 4.20450304 7 5 C7 5.33 7 5.66 7 6 C5.35 6.33 3.7 6.66 2 7 C1.67 9.64 1.34 12.28 1 15 C0.67 15 0.34 15 0 15 C0 10.05 0 5.1 0 0 Z " fill="#00984B" transform="translate(465,133)"/>
<path d="M0 0 C2.49361571 1.20381448 4.68143083 2.45428722 7 4 C7 5.32 7 6.64 7 8 C5.68 8 4.36 8 3 8 C0 2.25 0 2.25 0 0 Z " fill="#049A4E" transform="translate(439,134)"/>
<path d="M0 0 C0.99 0 1.98 0 3 0 C2.34 4.95 1.68 9.9 1 15 C0.67 15 0.34 15 0 15 C0 10.05 0 5.1 0 0 Z " fill="#019F51" transform="translate(505,138)"/>
<path d="M0 0 C0.66 0.33 1.32 0.66 2 1 C2 6.28 2 11.56 2 17 C1.34 17 0.68 17 0 17 C-0.04898437 16.14535156 -0.09796875 15.29070312 -0.1484375 14.41015625 C-0.22320312 13.30542969 -0.29796875 12.20070312 -0.375 11.0625 C-0.44460938 9.96035156 -0.51421875 8.85820312 -0.5859375 7.72265625 C-0.72257812 6.82417969 -0.85921875 5.92570313 -1 5 C-1.66 4.67 -2.32 4.34 -3 4 C-2.01 4 -1.02 4 0 4 C0 2.68 0 1.36 0 0 Z " fill="#F6BF86" transform="translate(463,164)"/>
<path d="M0 0 C1.40783184 2.62795276 2.50772334 5.04634002 3 8 C2.67 8.66 2.34 9.32 2 10 C0.68 9.34 -0.64 8.68 -2 8 C-1.34 5.36 -0.68 2.72 0 0 Z " fill="#26A766" transform="translate(367,141)"/>
<path d="M0 0 C2.64 0 5.28 0 8 0 C8.33 2.64 8.66 5.28 9 8 C8.34 8 7.68 8 7 8 C7 7.01 7 6.02 7 5 C6.34 4.67 5.68 4.34 5 4 C4.34 3.34 3.68 2.68 3 2 C2.01 1.34 1.02 0.68 0 0 Z " fill="#098C48" transform="translate(372,133)"/>
<path d="M0 0 C2.475 0.495 2.475 0.495 5 1 C5.33 2.65 5.66 4.3 6 6 C3.5625 5.625 3.5625 5.625 1 5 C0.67 4.34 0.34 3.68 0 3 C0.66 3 1.32 3 2 3 C2 2.34 2 1.68 2 1 C1.34 0.67 0.68 0.34 0 0 Z " fill="#13A85E" transform="translate(419,133)"/>
<path d="M0 0 C1.98 0 3.96 0 6 0 C6 1.32 6 2.64 6 4 C4.02 4 2.04 4 0 4 C0 2.68 0 1.36 0 0 Z " fill="#F0A963" transform="translate(389,177)"/>
<path d="M0 0 C5.95703125 -0.29296875 5.95703125 -0.29296875 8 0 C8.99 0.99 9.98 1.98 11 3 C6.545 3.495 6.545 3.495 2 4 C1.34 2.68 0.68 1.36 0 0 Z " fill="#028F46" transform="translate(310,148)"/>
<path d="M0 0 C0.33 0 0.66 0 1 0 C1 2.97 1 5.94 1 9 C-0.98 9.99 -0.98 9.99 -3 11 C-3.33 10.01 -3.66 9.02 -4 8 C-3.525625 7.608125 -3.05125 7.21625 -2.5625 6.8125 C-0.64820367 4.59191626 -0.38733012 2.86624291 0 0 Z " fill="#069149" transform="translate(478,141)"/>
<path d="M0 0 C1.32 0.33 2.64 0.66 4 1 C4 2.65 4 4.3 4 6 C2.68 6.33 1.36 6.66 0 7 C0 4.69 0 2.38 0 0 Z " fill="#129D53" transform="translate(224,103)"/>
<path d="M0 0 C0.33 0.66 0.66 1.32 1 2 C1.66 2.33 2.32 2.66 3 3 C2.01 5.31 1.02 7.62 0 10 C-0.66 10 -1.32 10 -2 10 C-1.34 6.7 -0.68 3.4 0 0 Z " fill="#9E733C" transform="translate(99,62)"/>
<path d="M0 0 C0.99 0.33 1.98 0.66 3 1 C3 2.32 3 3.64 3 5 C1.68 5.33 0.36 5.66 -1 6 C-1.625 4.125 -1.625 4.125 -2 2 C-1.34 1.34 -0.68 0.68 0 0 Z " fill="#ED8A2B" transform="translate(114,38)"/>
<path d="M0 0 C2.125 0.375 2.125 0.375 4 1 C1.6875 3.5 1.6875 3.5 -1 6 C-1.99 6 -2.98 6 -4 6 C-2.84826645 3.53199953 -1.95216435 1.95216435 0 0 Z " fill="#1FA660" transform="translate(165,132)"/>
<path d="M0 0 C0.33 0 0.66 0 1 0 C1.33 3.96 1.66 7.92 2 12 C1.01 12.33 0.02 12.66 -1 13 C-0.67 8.71 -0.34 4.42 0 0 Z " fill="#199F59" transform="translate(507,140)"/>
<path d="M0 0 C3.465 1.98 3.465 1.98 7 4 C6.67 4.99 6.34 5.98 6 7 C3.5625 6.3125 3.5625 6.3125 1 5 C0.1875 2.375 0.1875 2.375 0 0 Z " fill="#26AA68" transform="translate(107,120)"/>
<path d="M0 0 C0.99 0.66 1.98 1.32 3 2 C3.66 2.33 4.32 2.66 5 3 C3.35 4.32 1.7 5.64 0 7 C-0.33 6.01 -0.66 5.02 -1 4 C-1.99 4.495 -1.99 4.495 -3 5 C-1.125 1.125 -1.125 1.125 0 0 Z " fill="#E69744" transform="translate(111,41)"/>
<path d="M0 0 C1.32 0.33 2.64 0.66 4 1 C3.67 3.31 3.34 5.62 3 8 C2.67 7.34 2.34 6.68 2 6 C1.34 6 0.68 6 0 6 C0 4.02 0 2.04 0 0 Z " fill="#E79454" transform="translate(517,169)"/>
<path d="M0 0 C4.455 0.99 4.455 0.99 9 2 C8.34 2.66 7.68 3.32 7 4 C3.375 3.625 3.375 3.625 0 3 C0 2.01 0 1.02 0 0 Z " fill="#038843" transform="translate(408,146)"/>
<path d="M0 0 C5.625 -0.25 5.625 -0.25 9 2 C8 4 8 4 7 5 C6.67 5.66 6.34 6.32 6 7 C4 3.25 4 3.25 4 1 C2.68 0.67 1.36 0.34 0 0 Z " fill="#2FAA6D" transform="translate(351,132)"/>
<path d="M0 0 C0.66 0 1.32 0 2 0 C2.33 2.97 2.66 5.94 3 9 C0 7 0 7 -0.75 3.9375 C-0.8325 2.968125 -0.915 1.99875 -1 1 C-0.67 0.67 -0.34 0.34 0 0 Z " fill="#A8763E" transform="translate(209,66)"/>
<path d="M0 0 C2.97 0 5.94 0 9 0 C9 0.33 9 0.66 9 1 C7.02 1.33 5.04 1.66 3 2 C2.67 2.99 2.34 3.98 2 5 C1.01 4.67 0.02 4.34 -1 4 C-0.67 2.68 -0.34 1.36 0 0 Z " fill="#B4713B" transform="translate(521,175)"/>
<path d="M0 0 C0.66 0 1.32 0 2 0 C2 3.3 2 6.6 2 10 C1.34 9.67 0.68 9.34 0 9 C-0.44921875 7.1875 -0.44921875 7.1875 -0.6875 5 C-0.77386719 4.278125 -0.86023438 3.55625 -0.94921875 2.8125 C-0.96597656 2.214375 -0.98273438 1.61625 -1 1 C-0.67 0.67 -0.34 0.34 0 0 Z " fill="#FC9E3B" transform="translate(467,171)"/>
<path d="M0 0 C1.32 0 2.64 0 4 0 C3.67 1.65 3.34 3.3 3 5 C1.68 5 0.36 5 -1 5 C-0.67 3.35 -0.34 1.7 0 0 Z " fill="#0C9F53" transform="translate(441,145)"/>
<path d="M0 0 C2.97 0.33 5.94 0.66 9 1 C8.01 1.495 8.01 1.495 7 2 C7 2.66 7 3.32 7 4 C4.03 3.505 4.03 3.505 1 3 C0.67 2.01 0.34 1.02 0 0 Z " fill="#048D47" transform="translate(281,147)"/>
<path d="M0 0 C1.32 0.33 2.64 0.66 4 1 C3.67 2.65 3.34 4.3 3 6 C2.01 5.67 1.02 5.34 0 5 C0 3.35 0 1.7 0 0 Z " fill="#0C9F55" transform="translate(249,135)"/>
<path d="M0 0 C5.875 2.75 5.875 2.75 7 5 C6.34 5 5.68 5 5 5 C4.34 5.66 3.68 6.32 3 7 C2.01 6.01 1.02 5.02 0 4 C0.66 4 1.32 4 2 4 C2 3.34 2 2.68 2 2 C1.34 2 0.68 2 0 2 C0 1.34 0 0.68 0 0 Z " fill="#35B172" transform="translate(472,125)"/>
<path d="M0 0 C0.33 1.65 0.66 3.3 1 5 C0.01 5.33 -0.98 5.66 -2 6 C-2.66 4.35 -3.32 2.7 -4 1 C-2 0 -2 0 0 0 Z " fill="#A27A4F" transform="translate(162,111)"/>
<path d="M0 0 C2.90092502 2.90092502 3.55461795 3.96517325 4.6875 7.6875 C4.93886719 8.49574219 5.19023437 9.30398437 5.44921875 10.13671875 C5.63097656 10.75160156 5.81273437 11.36648437 6 12 C5.34 11.67 4.68 11.34 4 11 C4 10.34 4 9.68 4 9 C3.34 9 2.68 9 2 9 C1.34 6.03 0.68 3.06 0 0 Z " fill="#E9A057" transform="translate(370,91)"/>
<path d="M0 0 C1.98 0.99 1.98 0.99 4 2 C4 2.66 4 3.32 4 4 C4.99 4.33 5.98 4.66 7 5 C5.02 5 3.04 5 1 5 C0.67 3.35 0.34 1.7 0 0 Z " fill="#F19545" transform="translate(440,175)"/>
<path d="M0 0 C2.475 0.99 2.475 0.99 5 2 C3.625 4 3.625 4 2 6 C1.34 6 0.68 6 0 6 C-0.38218767 4.34385343 -0.71395102 2.67542976 -1 1 C-0.67 0.67 -0.34 0.34 0 0 Z " fill="#0A8847" transform="translate(293,146)"/>
<path d="M0 0 C1.2065625 0.0309375 1.2065625 0.0309375 2.4375 0.0625 C1.7775 1.3825 1.1175 2.7025 0.4375 4.0625 C0.1075 3.4025 -0.2225 2.7425 -0.5625 2.0625 C-3.0375 3.5475 -3.0375 3.5475 -5.5625 5.0625 C-3.15007962 0.07683121 -3.15007962 0.07683121 0 0 Z " fill="#2B9A64" transform="translate(537.5625,131.9375)"/>
<path d="M0 0 C0 0.99 0 1.98 0 3 C-0.99 3.33 -1.98 3.66 -3 4 C-6 2 -6 2 -7 0 C-3.98968256 -0.93423645 -3.13349732 -1.04449911 0 0 Z " fill="#058541" transform="translate(421,133)"/>
<path d="M0 0 C0.99 0.33 1.98 0.66 3 1 C2.67 1.99 2.34 2.98 2 4 C-0.5625 5.1875 -0.5625 5.1875 -3 6 C-2.625 3.5625 -2.625 3.5625 -2 1 C-1.34 0.67 -0.68 0.34 0 0 Z " fill="#18A859" transform="translate(288,131)"/>
<path d="M0 0 C5.75 -0.125 5.75 -0.125 8 1 C8 1.66 8 2.32 8 3 C5.125 3.1875 5.125 3.1875 2 3 C1.34 2.01 0.68 1.02 0 0 Z " fill="#07A252" transform="translate(466,126)"/>
<path d="M0 0 C1.32 0.33 2.64 0.66 4 1 C4.33 2.65 4.66 4.3 5 6 C4.01 6.495 4.01 6.495 3 7 C2.01 4.69 1.02 2.38 0 0 Z " fill="#E49647" transform="translate(205,60)"/>
<path d="M0 0 C1.77706209 2.66559313 2.87548273 5.0280615 4 8 C2.35 7.67 0.7 7.34 -1 7 C-0.67 4.69 -0.34 2.38 0 0 Z " fill="#13A059" transform="translate(281,140)"/>
<path d="M0 0 C-0.33 1.65 -0.66 3.3 -1 5 C-2.32 4.67 -3.64 4.34 -5 4 C-5 3.34 -5 2.68 -5 2 C-2 0 -2 0 0 0 Z " fill="#049A4D" transform="translate(411,135)"/>
<path d="M0 0 C1.98 0.66 3.96 1.32 6 2 C5.67 3.32 5.34 4.64 5 6 C4.34 6 3.68 6 3 6 C2.01 4.02 1.02 2.04 0 0 Z " fill="#039F48" transform="translate(320,134)"/>
<path d="M0 0 C0.99 0 1.98 0 3 0 C3 1.98 3 3.96 3 6 C2.01 6 1.02 6 0 6 C0 4.02 0 2.04 0 0 Z " fill="#08A255" transform="translate(339,126)"/>
<path d="M0 0 C0.99 0.33 1.98 0.66 3 1 C3.33 2.98 3.66 4.96 4 7 C3.01 6.67 2.02 6.34 1 6 C0.67 4.02 0.34 2.04 0 0 Z " fill="#C48F4F" transform="translate(172,110)"/>
<path d="M0 0 C2.475 0.99 2.475 0.99 5 2 C4.34 3.65 3.68 5.3 3 7 C2.34 6.34 1.68 5.68 1 5 C1 4.01 1 3.02 1 2 C0.34 1.67 -0.32 1.34 -1 1 C-0.67 0.67 -0.34 0.34 0 0 Z " fill="#289C61" transform="translate(83,103)"/>
<path d="M0 0 C2.31 0.33 4.62 0.66 7 1 C7 1.66 7 2.32 7 3 C5.02 3 3.04 3 1 3 C0.67 2.01 0.34 1.02 0 0 Z " fill="#E68737" transform="translate(522,178)"/>
<path d="M0 0 C2.64 0.66 5.28 1.32 8 2 C7.01 3.485 7.01 3.485 6 5 C3.5625 4.1875 3.5625 4.1875 1 3 C0.67 2.01 0.34 1.02 0 0 Z " fill="#F3A761" transform="translate(531,171)"/>
<path d="M0 0 C0.33 0.99 0.66 1.98 1 3 C-0.98 3.33 -2.96 3.66 -5 4 C-5.33 3.01 -5.66 2.02 -6 1 C-3 0 -3 0 0 0 Z " fill="#069C4F" transform="translate(515,133)"/>
<path d="M0 0 C1.32 0 2.64 0 4 0 C4.33 1.65 4.66 3.3 5 5 C4.01 5 3.02 5 2 5 C0 2 0 2 0 0 Z " fill="#269F63" transform="translate(100,121)"/>
<path d="M0 0 C0.66 0 1.32 0 2 0 C2.66 1.98 3.32 3.96 4 6 C2.68 5.67 1.36 5.34 0 5 C-0.5625 3.0625 -0.5625 3.0625 -1 1 C-0.67 0.67 -0.34 0.34 0 0 Z " fill="#21965A" transform="translate(81,112)"/>
<path d="M0 0 C2 1 2 1 2 1 Z " fill="#000000" transform="translate(425,134)"/>
<path d="" fill="#000000" transform="translate(0,0)"/>
<path d="" fill="#000000" transform="translate(0,0)"/>
<path d="" fill="#000000" transform="translate(0,0)"/>
<path d="" fill="#000000" transform="translate(0,0)"/>
<path d="" fill="#000000" transform="translate(0,0)"/>
<path d="" fill="#000000" transform="translate(0,0)"/>
<path d="" fill="#000000" transform="translate(0,0)"/>
<path d="" fill="#000000" transform="translate(0,0)"/>
<path d="" fill="#000000" transform="translate(0,0)"/>
<path d="" fill="#000000" transform="translate(0,0)"/>
<path d="" fill="#000000" transform="translate(0,0)"/>
<path d="" fill="#000000" transform="translate(0,0)"/>
<path d="" fill="#000000" transform="translate(0,0)"/>
<path d="" fill="#000000" transform="translate(0,0)"/>
<path d="" fill="#000000" transform="translate(0,0)"/>
<path d="" fill="#000000" transform="translate(0,0)"/>
<path d="" fill="#000000" transform="translate(0,0)"/>
<path d="" fill="#000000" transform="translate(0,0)"/>
<path d="" fill="#000000" transform="translate(0,0)"/>
<path d="" fill="#000000" transform="translate(0,0)"/>
<path d="" fill="#000000" transform="translate(0,0)"/>
<path d="" fill="#000000" transform="translate(0,0)"/>
<path d="" fill="#000000" transform="translate(0,0)"/>
<path d="" fill="#000000" transform="translate(0,0)"/>
<path d="" fill="#000000" transform="translate(0,0)"/>
<path d="" fill="#000000" transform="translate(0,0)"/>
<path d="" fill="#000000" transform="translate(0,0)"/>
<path d="" fill="#000000" transform="translate(0,0)"/>
<path d="" fill="#000000" transform="translate(0,0)"/>
<path d="" fill="#000000" transform="translate(0,0)"/>
<path d="" fill="#000000" transform="translate(0,0)"/>
<path d="" fill="#000000" transform="translate(0,0)"/>
<path d="" fill="#000000" transform="translate(0,0)"/>
<path d="" fill="#000000" transform="translate(0,0)"/>
<path d="" fill="#000000" transform="translate(0,0)"/>
<path d="" fill="#000000" transform="translate(0,0)"/>
<path d="" fill="#000000" transform="translate(0,0)"/>
<path d="" fill="#000000" transform="translate(0,0)"/>
<path d="" fill="#000000" transform="translate(0,0)"/>
<path d="" fill="#000000" transform="translate(0,0)"/>
<path d="" fill="#000000" transform="translate(0,0)"/>
<path d="" fill="#000000" transform="translate(0,0)"/>
<path d="" fill="#000000" transform="translate(0,0)"/>
<path d="" fill="#000000" transform="translate(0,0)"/>
<path d="" fill="#000000" transform="translate(0,0)"/>
<path d="" fill="#000000" transform="translate(0,0)"/>
<path d="" fill="#000000" transform="translate(0,0)"/>
<path d="" fill="#000000" transform="translate(0,0)"/>
<path d="" fill="#000000" transform="translate(0,0)"/>
<path d="" fill="#000000" transform="translate(0,0)"/>
<path d="" fill="#000000" transform="translate(0,0)"/>
<path d="" fill="#000000" transform="translate(0,0)"/>
<path d="" fill="#000000" transform="translate(0,0)"/>
<path d="" fill="#000000" transform="translate(0,0)"/>
<path d="" fill="#000000" transform="translate(0,0)"/>
<path d="" fill="#000000" transform="translate(0,0)"/>
<path d="" fill="#000000" transform="translate(0,0)"/>
<path d="" fill="#000000" transform="translate(0,0)"/>
<path d="" fill="#000000" transform="translate(0,0)"/>
<path d="" fill="#000000" transform="translate(0,0)"/>
<path d="" fill="#000000" transform="translate(0,0)"/>
<path d="" fill="#000000" transform="translate(0,0)"/>
<path d="" fill="#000000" transform="translate(0,0)"/>
<path d="" fill="#000000" transform="translate(0,0)"/>
<path d="" fill="#000000" transform="translate(0,0)"/>
<path d="" fill="#000000" transform="translate(0,0)"/>
<path d="" fill="#000000" transform="translate(0,0)"/>
<path d="" fill="#000000" transform="translate(0,0)"/>
<path d="" fill="#000000" transform="translate(0,0)"/>
<path d="" fill="#000000" transform="translate(0,0)"/>
<path d="" fill="#000000" transform="translate(0,0)"/>
<path d="" fill="#000000" transform="translate(0,0)"/>
<path d="" fill="#000000" transform="translate(0,0)"/>
<path d="" fill="#000000" transform="translate(0,0)"/>
<path d="" fill="#000000" transform="translate(0,0)"/>
<path d="" fill="#000000" transform="translate(0,0)"/>
<path d="" fill="#000000" transform="translate(0,0)"/>
<path d="" fill="#000000" transform="translate(0,0)"/>
<path d="" fill="#000000" transform="translate(0,0)"/>
<path d="" fill="#000000" transform="translate(0,0)"/>
<path d="" fill="#000000" transform="translate(0,0)"/>
<path d="" fill="#000000" transform="translate(0,0)"/>
<path d="" fill="#000000" transform="translate(0,0)"/>
<path d="" fill="#000000" transform="translate(0,0)"/>
<path d="" fill="#000000" transform="translate(0,0)"/>
<path d="" fill="#000000" transform="translate(0,0)"/>
<path d="" fill="#000000" transform="translate(0,0)"/>
<path d="" fill="#000000" transform="translate(0,0)"/>
<path d="" fill="#000000" transform="translate(0,0)"/>
<path d="" fill="#000000" transform="translate(0,0)"/>
<path d="" fill="#000000" transform="translate(0,0)"/>
<path d="" fill="#000000" transform="translate(0,0)"/>
<path d="" fill="#000000" transform="translate(0,0)"/>
<path d="" fill="#000000" transform="translate(0,0)"/>
<path d="" fill="#000000" transform="translate(0,0)"/>
<path d="" fill="#000000" transform="translate(0,0)"/>
<path d="" fill="#000000" transform="translate(0,0)"/>
<path d="" fill="#000000" transform="translate(0,0)"/>
<path d="" fill="#000000" transform="translate(0,0)"/>
<path d="" fill="#000000" transform="translate(0,0)"/>
<path d="" fill="#000000" transform="translate(0,0)"/>
<path d="" fill="#000000" transform="translate(0,0)"/>
<path d="" fill="#000000" transform="translate(0,0)"/>
<path d="" fill="#000000" transform="translate(0,0)"/>
<path d="" fill="#000000" transform="translate(0,0)"/>
<path d="" fill="#000000" transform="translate(0,0)"/>
<path d="" fill="#000000" transform="translate(0,0)"/>
<path d="" fill="#000000" transform="translate(0,0)"/>
<path d="" fill="#000000" transform="translate(0,0)"/>
<path d="" fill="#000000" transform="translate(0,0)"/>
<path d="" fill="#000000" transform="translate(0,0)"/>
<path d="" fill="#000000" transform="translate(0,0)"/>
<path d="" fill="#000000" transform="translate(0,0)"/>
<path d="" fill="#000000" transform="translate(0,0)"/>
<path d="" fill="#000000" transform="translate(0,0)"/>
<path d="" fill="#000000" transform="translate(0,0)"/>
<path d="" fill="#000000" transform="translate(0,0)"/>
<path d="" fill="#000000" transform="translate(0,0)"/>
<path d="" fill="#000000" transform="translate(0,0)"/>
<path d="" fill="#000000" transform="translate(0,0)"/>
<path d="" fill="#000000" transform="translate(0,0)"/>
<path d="" fill="#000000" transform="translate(0,0)"/>
<path d="" fill="#000000" transform="translate(0,0)"/>
<path d="" fill="#000000" transform="translate(0,0)"/>
<path d="" fill="#000000" transform="translate(0,0)"/>
<path d="" fill="#000000" transform="translate(0,0)"/>
<path d="" fill="#000000" transform="translate(0,0)"/>
<path d="" fill="#000000" transform="translate(0,0)"/>
<path d="" fill="#000000" transform="translate(0,0)"/>
<path d="" fill="#000000" transform="translate(0,0)"/>
<path d="" fill="#000000" transform="translate(0,0)"/>
<path d="" fill="#000000" transform="translate(0,0)"/>
<path d="" fill="#000000" transform="translate(0,0)"/>
<path d="" fill="#000000" transform="translate(0,0)"/>
<path d="" fill="#000000" transform="translate(0,0)"/>
<path d="" fill="#000000" transform="translate(0,0)"/>
<path d="" fill="#000000" transform="translate(0,0)"/>
<path d="" fill="#000000" transform="translate(0,0)"/>
<path d="" fill="#000000" transform="translate(0,0)"/>
<path d="" fill="#000000" transform="translate(0,0)"/>
<path d="" fill="#000000" transform="translate(0,0)"/>
<path d="" fill="#000000" transform="translate(0,0)"/>
<path d="" fill="#000000" transform="translate(0,0)"/>
<path d="" fill="#000000" transform="translate(0,0)"/>
<path d="" fill="#000000" transform="translate(0,0)"/>
<path d="" fill="#000000" transform="translate(0,0)"/>
<path d="" fill="#000000" transform="translate(0,0)"/>
<path d="" fill="#000000" transform="translate(0,0)"/>
<path d="" fill="#000000" transform="translate(0,0)"/>
<path d="" fill="#000000" transform="translate(0,0)"/>
<path d="" fill="#000000" transform="translate(0,0)"/>
<path d="" fill="#000000" transform="translate(0,0)"/>
<path d="" fill="#000000" transform="translate(0,0)"/>
<path d="" fill="#000000" transform="translate(0,0)"/>
<path d="" fill="#000000" transform="translate(0,0)"/>
<path d="" fill="#000000" transform="translate(0,0)"/>
<path d="" fill="#000000" transform="translate(0,0)"/>
<path d="" fill="#000000" transform="translate(0,0)"/>
<path d="" fill="#000000" transform="translate(0,0)"/>
<path d="" fill="#000000" transform="translate(0,0)"/>
<path d="" fill="#000000" transform="translate(0,0)"/>
<path d="" fill="#000000" transform="translate(0,0)"/>
<path d="" fill="#000000" transform="translate(0,0)"/>
<path d="" fill="#000000" transform="translate(0,0)"/>
<path d="" fill="#000000" transform="translate(0,0)"/>
<path d="" fill="#000000" transform="translate(0,0)"/>
<path d="" fill="#000000" transform="translate(0,0)"/>
<path d="" fill="#000000" transform="translate(0,0)"/>
<path d="" fill="#000000" transform="translate(0,0)"/>
<path d="" fill="#000000" transform="translate(0,0)"/>
<path d="" fill="#000000" transform="translate(0,0)"/>
<path d="" fill="#000000" transform="translate(0,0)"/>
<path d="" fill="#000000" transform="translate(0,0)"/>
<path d="" fill="#000000" transform="translate(0,0)"/>
<path d="" fill="#000000" transform="translate(0,0)"/>
<path d="" fill="#000000" transform="translate(0,0)"/>
<path d="" fill="#000000" transform="translate(0,0)"/>
<path d="" fill="#000000" transform="translate(0,0)"/>
<path d="" fill="#000000" transform="translate(0,0)"/>
<path d="" fill="#000000" transform="translate(0,0)"/>
<path d="" fill="#000000" transform="translate(0,0)"/>
<path d="" fill="#000000" transform="translate(0,0)"/>
<path d="" fill="#000000" transform="translate(0,0)"/>
<path d="" fill="#000000" transform="translate(0,0)"/>
<path d="" fill="#000000" transform="translate(0,0)"/>
<path d="" fill="#000000" transform="translate(0,0)"/>
<path d="" fill="#000000" transform="translate(0,0)"/>
<path d="" fill="#000000" transform="translate(0,0)"/>
<path d="" fill="#000000" transform="translate(0,0)"/>
<path d="" fill="#000000" transform="translate(0,0)"/>
<path d="" fill="#000000" transform="translate(0,0)"/>
<path d="" fill="#000000" transform="translate(0,0)"/>
<path d="" fill="#000000" transform="translate(0,0)"/>
<path d="" fill="#000000" transform="translate(0,0)"/>
<path d="" fill="#000000" transform="translate(0,0)"/>
<path d="" fill="#000000" transform="translate(0,0)"/>
<path d="" fill="#000000" transform="translate(0,0)"/>
<path d="" fill="#000000" transform="translate(0,0)"/>
<path d="" fill="#000000" transform="translate(0,0)"/>
<path d="" fill="#000000" transform="translate(0,0)"/>
<path d="" fill="#000000" transform="translate(0,0)"/>
<path d="" fill="#000000" transform="translate(0,0)"/>
<path d="" fill="#000000" transform="translate(0,0)"/>
<path d="" fill="#000000" transform="translate(0,0)"/>
<path d="" fill="#000000" transform="translate(0,0)"/>
<path d="" fill="#000000" transform="translate(0,0)"/>
<path d="" fill="#000000" transform="translate(0,0)"/>
<path d="" fill="#000000" transform="translate(0,0)"/>
<path d="" fill="#000000" transform="translate(0,0)"/>
<path d="" fill="#000000" transform="translate(0,0)"/>
<path d="" fill="#000000" transform="translate(0,0)"/>
<path d="" fill="#000000" transform="translate(0,0)"/>
<path d="" fill="#000000" transform="translate(0,0)"/>
<path d="" fill="#000000" transform="translate(0,0)"/>
<path d="" fill="#000000" transform="translate(0,0)"/>
<path d="" fill="#000000" transform="translate(0,0)"/>
<path d="" fill="#000000" transform="translate(0,0)"/>
<path d="" fill="#000000" transform="translate(0,0)"/>
<path d="" fill="#000000" transform="translate(0,0)"/>
<path d="" fill="#000000" transform="translate(0,0)"/>
<path d="" fill="#000000" transform="translate(0,0)"/>
<path d="" fill="#000000" transform="translate(0,0)"/>
<path d="" fill="#000000" transform="translate(0,0)"/>
<path d="" fill="#000000" transform="translate(0,0)"/>
<path d="" fill="#000000" transform="translate(0,0)"/>
<path d="" fill="#000000" transform="translate(0,0)"/>
<path d="" fill="#000000" transform="translate(0,0)"/>
<path d="" fill="#000000" transform="translate(0,0)"/>
<path d="" fill="#000000" transform="translate(0,0)"/>
<path d="" fill="#000000" transform="translate(0,0)"/>
<path d="" fill="#000000" transform="translate(0,0)"/>
<path d="" fill="#000000" transform="translate(0,0)"/>
<path d="" fill="#000000" transform="translate(0,0)"/>
<path d="" fill="#000000" transform="translate(0,0)"/>
<path d="" fill="#000000" transform="translate(0,0)"/>
<path d="" fill="#000000" transform="translate(0,0)"/>
<path d="" fill="#000000" transform="translate(0,0)"/>
<path d="" fill="#000000" transform="translate(0,0)"/>
<path d="" fill="#000000" transform="translate(0,0)"/>
<path d="" fill="#000000" transform="translate(0,0)"/>
<path d="" fill="#000000" transform="translate(0,0)"/>
<path d="" fill="#000000" transform="translate(0,0)"/>
<path d="" fill="#000000" transform="translate(0,0)"/>
<path d="" fill="#000000" transform="translate(0,0)"/>
<path d="" fill="#000000" transform="translate(0,0)"/>
<path d="" fill="#000000" transform="translate(0,0)"/>
<path d="" fill="#000000" transform="translate(0,0)"/>
<path d="" fill="#000000" transform="translate(0,0)"/>
<path d="" fill="#000000" transform="translate(0,0)"/>
<path d="" fill="#000000" transform="translate(0,0)"/>
<path d="" fill="#000000" transform="translate(0,0)"/>
<path d="" fill="#000000" transform="translate(0,0)"/>
<path d="" fill="#000000" transform="translate(0,0)"/>
<path d="" fill="#000000" transform="translate(0,0)"/>
<path d="" fill="#000000" transform="translate(0,0)"/>
<path d="" fill="#000000" transform="translate(0,0)"/>
<path d="" fill="#000000" transform="translate(0,0)"/>
<path d="" fill="#000000" transform="translate(0,0)"/>
<path d="" fill="#000000" transform="translate(0,0)"/>
<path d="" fill="#000000" transform="translate(0,0)"/>
<path d="" fill="#000000" transform="translate(0,0)"/>
<path d="" fill="#000000" transform="translate(0,0)"/>
<path d="" fill="#000000" transform="translate(0,0)"/>
<path d="" fill="#000000" transform="translate(0,0)"/>
<path d="" fill="#000000" transform="translate(0,0)"/>
<path d="" fill="#000000" transform="translate(0,0)"/>
<path d="" fill="#000000" transform="translate(0,0)"/>
<path d="" fill="#000000" transform="translate(0,0)"/>
<path d="" fill="#000000" transform="translate(0,0)"/>
<path d="" fill="#000000" transform="translate(0,0)"/>
<path d="" fill="#000000" transform="translate(0,0)"/>
<path d="" fill="#000000" transform="translate(0,0)"/>
<path d="" fill="#000000" transform="translate(0,0)"/>
<path d="" fill="#000000" transform="translate(0,0)"/>
<path d="" fill="#000000" transform="translate(0,0)"/>
<path d="" fill="#000000" transform="translate(0,0)"/>
<path d="" fill="#000000" transform="translate(0,0)"/>
<path d="" fill="#000000" transform="translate(0,0)"/>
<path d="" fill="#000000" transform="translate(0,0)"/>
<path d="" fill="#000000" transform="translate(0,0)"/>
<path d="" fill="#000000" transform="translate(0,0)"/>
<path d="" fill="#000000" transform="translate(0,0)"/>
<path d="" fill="#000000" transform="translate(0,0)"/>
<path d="" fill="#000000" transform="translate(0,0)"/>
<path d="" fill="#000000" transform="translate(0,0)"/>
<path d="" fill="#000000" transform="translate(0,0)"/>
<path d="" fill="#000000" transform="translate(0,0)"/>
<path d="" fill="#000000" transform="translate(0,0)"/>
<path d="" fill="#000000" transform="translate(0,0)"/>
<path d="" fill="#000000" transform="translate(0,0)"/>
<path d="" fill="#000000" transform="translate(0,0)"/>
<path d="" fill="#000000" transform="translate(0,0)"/>
<path d="" fill="#000000" transform="translate(0,0)"/>
<path d="" fill="#000000" transform="translate(0,0)"/>
<path d="" fill="#000000" transform="translate(0,0)"/>
<path d="" fill="#000000" transform="translate(0,0)"/>
<path d="" fill="#000000" transform="translate(0,0)"/>
<path d="" fill="#000000" transform="translate(0,0)"/>
<path d="" fill="#000000" transform="translate(0,0)"/>
<path d="" fill="#000000" transform="translate(0,0)"/>
<path d="" fill="#000000" transform="translate(0,0)"/>
<path d="" fill="#000000" transform="translate(0,0)"/>
<path d="" fill="#000000" transform="translate(0,0)"/>
<path d="" fill="#000000" transform="translate(0,0)"/>
<path d="" fill="#000000" transform="translate(0,0)"/>
</svg>
