<svg width="76" height="79" viewBox="0 0 76 79" fill="none" xmlns="http://www.w3.org/2000/svg">
<path d="M68.8594 0.386719H7.14062C5.37942 0.386719 3.69035 1.08635 2.44499 2.33171C1.19963 3.57707 0.5 5.26614 0.5 7.02734V26.25C0.501647 27.5261 0.870946 28.7747 1.56371 29.8464C2.25647 30.9181 3.24334 31.7675 4.40625 32.293L28.8594 43.4062C25.2387 45.4324 22.3923 48.6022 20.766 52.4193C19.1397 56.2363 18.8254 60.485 19.8724 64.4998C20.9193 68.5146 23.2683 72.0687 26.5515 74.6056C29.8347 77.1424 33.8666 78.5186 38.0156 78.5186C42.1647 78.5186 46.1966 77.1424 49.4797 74.6056C52.7629 72.0687 55.1119 68.5146 56.1589 64.4998C57.2058 60.485 56.8915 56.2363 55.2653 52.4193C53.639 48.6022 50.7926 45.4324 47.1719 43.4062L71.5938 32.293C72.7567 31.7675 73.7435 30.9181 74.4363 29.8464C75.1291 28.7747 75.4984 27.5261 75.5 26.25V7.02734C75.5 5.26614 74.8004 3.57707 73.555 2.33171C72.3096 1.08635 70.6206 0.386719 68.8594 0.386719ZM25.5 6.63672H50.5V35.0234L38 40.7031L25.5 35.0234V6.63672ZM38 72.2617C35.5277 72.2617 33.111 71.5286 31.0554 70.1551C28.9998 68.7816 27.3976 66.8293 26.4515 64.5453C25.5054 62.2612 25.2579 59.7478 25.7402 57.3231C26.2225 54.8983 27.413 52.671 29.1612 50.9229C30.9093 49.1747 33.1366 47.9842 35.5614 47.5019C37.9861 47.0196 40.4995 47.2671 42.7835 48.2132C45.0676 49.1593 47.0199 50.7615 48.3934 52.8171C49.7669 54.8727 50.5 57.2894 50.5 59.7617C50.5 63.0769 49.183 66.2563 46.8388 68.6005C44.4946 70.9447 41.3152 72.2617 38 72.2617Z" fill="#753412"/>
</svg>
