<svg width="25" height="26" viewBox="0 0 25 26" fill="none" xmlns="http://www.w3.org/2000/svg">
<path d="M22.375 0.172852H2.625C2.06141 0.172852 1.52091 0.396735 1.1224 0.795249C0.723883 1.19376 0.5 1.73427 0.5 2.29785V8.4491C0.500527 8.85746 0.618703 9.25701 0.840386 9.59995C1.06207 9.9429 1.37787 10.2147 1.75 10.3829L9.575 13.9391C8.41637 14.5875 7.50552 15.6018 6.98511 16.8233C6.4647 18.0447 6.36413 19.4043 6.69916 20.689C7.03418 21.9738 7.78586 23.1111 8.83648 23.9229C9.8871 24.7347 11.1773 25.175 12.505 25.175C13.8327 25.175 15.1229 24.7347 16.1735 23.9229C17.2241 23.1111 17.9758 21.9738 18.3108 20.689C18.6459 19.4043 18.5453 18.0447 18.0249 16.8233C17.5045 15.6018 16.5936 14.5875 15.435 13.9391L23.25 10.3829C23.6221 10.2147 23.9379 9.9429 24.1596 9.59995C24.3813 9.25701 24.4995 8.85746 24.5 8.4491V2.29785C24.5 1.73427 24.2761 1.19376 23.8776 0.795249C23.4791 0.396735 22.9386 0.172852 22.375 0.172852ZM8.5 2.17285H16.5V11.2566L12.5 13.0741L8.5 11.2566V2.17285ZM12.5 23.1729C11.7089 23.1729 10.9355 22.9383 10.2777 22.4987C9.61992 22.0592 9.10723 21.4345 8.80448 20.7036C8.50173 19.9727 8.42252 19.1684 8.57686 18.3925C8.7312 17.6166 9.11216 16.9038 9.67157 16.3444C10.231 15.785 10.9437 15.4041 11.7196 15.2497C12.4956 15.0954 13.2998 15.1746 14.0307 15.4773C14.7616 15.7801 15.3864 16.2928 15.8259 16.9506C16.2654 17.6084 16.5 18.3817 16.5 19.1729C16.5 20.2337 16.0786 21.2511 15.3284 22.0013C14.5783 22.7514 13.5609 23.1729 12.5 23.1729Z" fill="#FAA200"/>
</svg>
