<svg width="32" height="33" viewBox="0 0 32 33" fill="none" xmlns="http://www.w3.org/2000/svg">
<path opacity="0.5" d="M4.22917 9.68312C5.35317 8.55778 6.97317 8.24312 9.66917 8.15512L11.6692 8.12312C12.1918 8.12045 12.7465 8.11956 13.3332 8.12045H18.6665C19.2549 8.12045 19.8096 8.12134 20.3305 8.12312L22.3305 8.15512C25.0265 8.24312 26.6465 8.55778 27.7705 9.68312C29.3332 11.2445 29.3332 13.7591 29.3332 18.7871C29.3332 23.8151 29.3332 26.3298 27.7705 27.8911C26.2078 29.4524 23.6945 29.4538 18.6665 29.4538H13.3332C8.30517 29.4538 5.7905 29.4538 4.22917 27.8911C2.66784 26.3284 2.6665 23.8151 2.6665 18.7871C2.6665 13.7591 2.6665 11.2445 4.22917 9.68312Z" fill="#941D58"/>
<path d="M17.0001 13.4538C17.0001 13.1886 16.8947 12.9342 16.7072 12.7467C16.5197 12.5591 16.2653 12.4538 16.0001 12.4538C15.7349 12.4538 15.4805 12.5591 15.293 12.7467C15.1055 12.9342 15.0001 13.1886 15.0001 13.4538V13.4671C13.5481 13.8324 12.3334 14.9778 12.3334 16.5644C12.3334 18.5071 14.1534 19.7871 16.0001 19.7871C17.0988 19.7871 17.6668 20.4978 17.6668 21.0098C17.6668 21.5218 17.0988 22.2311 16.0001 22.2311C14.9014 22.2311 14.3334 21.5218 14.3334 21.0098C14.3334 20.7446 14.2281 20.4902 14.0405 20.3027C13.853 20.1151 13.5986 20.0098 13.3334 20.0098C13.0682 20.0098 12.8139 20.1151 12.6263 20.3027C12.4388 20.4902 12.3334 20.7446 12.3334 21.0098C12.3334 22.5964 13.5481 23.7404 15.0001 24.1071V24.1204C15.0001 24.3857 15.1055 24.64 15.293 24.8276C15.4805 25.0151 15.7349 25.1204 16.0001 25.1204C16.2653 25.1204 16.5197 25.0151 16.7072 24.8276C16.8947 24.64 17.0001 24.3857 17.0001 24.1204V24.1071C18.4521 23.7418 19.6668 22.5964 19.6668 21.0098C19.6668 19.0671 17.8468 17.7871 16.0001 17.7871C14.9014 17.7871 14.3334 17.0764 14.3334 16.5644C14.3334 16.0524 14.9014 15.3431 16.0001 15.3431C17.0988 15.3431 17.6668 16.0524 17.6668 16.5644C17.6668 16.8297 17.7721 17.084 17.9597 17.2715C18.1472 17.4591 18.4016 17.5644 18.6668 17.5644C18.932 17.5644 19.1863 17.4591 19.3739 17.2715C19.5614 17.084 19.6668 16.8297 19.6668 16.5644C19.6668 14.9778 18.4521 13.8324 17.0001 13.4671V13.4538ZM16.0694 1.78711H15.9308C14.7334 1.78711 13.7334 1.78711 12.9414 1.89378C12.1041 2.00578 11.3481 2.25378 10.7414 2.86044C10.1334 3.46844 9.88543 4.22444 9.77343 5.06044C9.69743 5.62978 9.6761 6.98844 9.66943 8.15378L11.6694 8.12311C11.6761 6.99378 11.6961 5.77911 11.7561 5.32711C11.8388 4.71244 11.9814 4.44844 12.1561 4.27511C12.3308 4.10178 12.5921 3.95911 13.2081 3.87511C13.8521 3.78978 14.7148 3.78711 16.0001 3.78711C17.2854 3.78711 18.1494 3.78978 18.7934 3.87644C19.4081 3.95911 19.6721 4.10178 19.8454 4.27644C20.0188 4.45111 20.1628 4.71244 20.2454 5.32711C20.3054 5.78044 20.3254 6.99378 20.3308 8.12311L22.3308 8.15511C22.3254 6.98844 22.3041 5.62978 22.2268 5.06178C22.1148 4.22444 21.8668 3.46844 21.2601 2.86178C20.6521 2.25378 19.8961 2.00578 19.0601 1.89378C18.2668 1.78711 17.2681 1.78711 16.0694 1.78711Z" fill="#941D58"/>
</svg>
