<svg width="31" height="31" viewBox="0 0 31 31" fill="none" xmlns="http://www.w3.org/2000/svg">
<path d="M17.2773 15.5879L29.8756 28.2044C30.3608 28.6903 30.3605 29.4774 29.875 29.9629C29.3895 30.4484 28.6024 30.4487 28.1166 29.9635L15.5 17.3652L2.88345 29.9635C2.39759 30.4487 1.61051 30.4484 1.125 29.9629C0.63949 29.4774 0.639206 28.6903 1.12436 28.2044L13.7227 15.5879L1.12436 2.97134C0.639205 2.48548 0.63949 1.6984 1.125 1.21289C1.61051 0.727381 2.39759 0.727096 2.88345 1.21225L15.5 13.8105L28.1166 1.21225C28.6024 0.727096 29.3895 0.727381 29.875 1.21289C30.3605 1.6984 30.3608 2.48548 29.8756 2.97134L17.2773 15.5879Z" fill="black"/>
</svg>
