<svg width="48" height="49" viewBox="0 0 48 49" fill="none" xmlns="http://www.w3.org/2000/svg">
<rect y="0.600098" width="48" height="48" rx="6" fill="#2E8B57" fill-opacity="0.1"/>
<path d="M15.9688 20.4517C15.8594 20.4517 15.7617 20.4946 15.6758 20.5806C15.5898 20.6587 15.5469 20.7563 15.5469 20.8735C15.5469 20.9907 15.5898 21.0923 15.6758 21.1782C15.7617 21.2563 15.8594 21.2954 15.9688 21.2954H26.5977C26.5039 21.0142 26.5039 20.7329 26.5977 20.4517H15.9688ZM15.9805 17.9204H26.9609C27.0781 17.9204 27.1758 17.9634 27.2539 18.0493C27.3398 18.1274 27.3828 18.2251 27.3828 18.3423C27.3828 18.4595 27.3398 18.561 27.2539 18.647C27.1758 18.7251 27.0781 18.7642 26.9609 18.7642H15.9805C15.8633 18.7642 15.7617 18.7251 15.6758 18.647C15.5977 18.561 15.5586 18.4595 15.5586 18.3423C15.5586 18.2251 15.5977 18.1274 15.6758 18.0493C15.7617 17.9634 15.8633 17.9204 15.9805 17.9204ZM15.5586 23.4048C15.5586 23.522 15.5977 23.6235 15.6758 23.7095C15.7617 23.7876 15.8633 23.8267 15.9805 23.8267H26.9609C27.0781 23.8267 27.1758 23.7876 27.2539 23.7095C27.3398 23.6235 27.3828 23.522 27.3828 23.4048C27.3828 23.2876 27.3398 23.1899 27.2539 23.1118C27.1758 23.0259 27.0781 22.9829 26.9609 22.9829H15.9805C15.8633 22.9829 15.7617 23.0259 15.6758 23.1118C15.5977 23.1899 15.5586 23.2876 15.5586 23.4048ZM15.9805 25.5142H22.7305C22.8477 25.5142 22.9453 25.5571 23.0234 25.6431C23.1094 25.7212 23.1523 25.8188 23.1523 25.936C23.1523 26.0532 23.1094 26.1548 23.0234 26.2407C22.9453 26.3188 22.8477 26.3579 22.7305 26.3579H15.9805C15.8633 26.3579 15.7617 26.3188 15.6758 26.2407C15.5977 26.1548 15.5586 26.0532 15.5586 25.936C15.5586 25.8188 15.5977 25.7212 15.6758 25.6431C15.7617 25.5571 15.8633 25.5142 15.9805 25.5142ZM28.5312 19.7017L27.5234 20.5454C27.4219 20.6313 27.3711 20.7407 27.3711 20.8735C27.3711 21.0063 27.4219 21.1118 27.5234 21.1899L28.5312 22.0337C28.6094 22.104 28.6992 22.1392 28.8008 22.1392H31.1797C31.2969 22.1392 31.3945 22.1001 31.4727 22.022C31.5586 21.936 31.6016 21.8345 31.6016 21.7173V20.0298C31.6016 19.9126 31.5586 19.8149 31.4727 19.7368C31.3945 19.6509 31.2969 19.6079 31.1797 19.6079H28.8008C28.6992 19.6079 28.6094 19.6392 28.5312 19.7017ZM14.2812 9.47119H23.8906C24.4766 9.47119 24.9766 9.67822 25.3906 10.0923L29.7148 14.4165C29.8008 14.4946 29.8984 14.5337 30.0078 14.5337C30.1875 14.5337 30.3125 14.4517 30.3828 14.2876C30.4609 14.1157 30.4336 13.9673 30.3008 13.8423C30.0664 13.6001 29.7891 13.3228 29.4688 13.0103C29.1562 12.6899 28.8281 12.354 28.4844 12.0024H32.0234C32.375 12.0024 32.6719 12.1274 32.9141 12.3774C33.1641 12.6196 33.2891 12.9165 33.2891 13.2681V24.6704H32.1758C31.8711 24.6704 31.5977 24.772 31.3555 24.9751L30.3594 25.8188C30.0547 26.0688 29.9023 26.3931 29.9023 26.7915C29.9023 27.1821 30.0547 27.5024 30.3594 27.7524L31.3555 28.5962C31.5977 28.7993 31.8711 28.9009 32.1758 28.9009H33.2891V32.6978C33.2891 33.0493 33.1641 33.3462 32.9141 33.5884C32.6719 33.8384 32.375 33.9634 32.0234 33.9634H17.668C17.3867 33.9634 17.1367 33.8813 16.918 33.7173C16.707 33.561 16.5586 33.3618 16.4727 33.1196H14.2812C13.7031 33.1196 13.207 32.9126 12.793 32.4985C12.3789 32.0845 12.1719 31.5884 12.1719 31.0103V11.5806C12.1719 10.9946 12.3789 10.4985 12.793 10.0923C13.207 9.67822 13.7031 9.47119 14.2812 9.47119ZM13.8594 11.5806V31.0103C13.8594 31.1274 13.8984 31.2251 13.9766 31.3032C14.0625 31.3892 14.1641 31.4321 14.2812 31.4321H28.6484C28.7656 31.4321 28.8633 31.3892 28.9414 31.3032C29.0273 31.2251 29.0703 31.1274 29.0703 31.0103V22.9829H31.1797C31.5312 22.9829 31.8281 22.8618 32.0703 22.6196C32.3203 22.3696 32.4453 22.0688 32.4453 21.7173V20.0298C32.4453 19.6782 32.3203 19.3813 32.0703 19.1392C31.8281 18.8892 31.5312 18.7642 31.1797 18.7642H29.0703V16.3267C29.0703 16.2954 29.0664 16.2603 29.0586 16.2212H25.2617C24.918 16.2212 24.6211 16.1001 24.3711 15.8579C24.1211 15.6079 23.9961 15.3071 23.9961 14.9556V11.1704C23.9648 11.1626 23.9297 11.1587 23.8906 11.1587H14.2812C14.1641 11.1587 14.0625 11.2017 13.9766 11.2876C13.8984 11.3657 13.8594 11.4634 13.8594 11.5806ZM32.1758 25.5142H34.5547C34.6719 25.5142 34.7695 25.5571 34.8477 25.6431C34.9336 25.7212 34.9766 25.8188 34.9766 25.936V27.6235C34.9766 27.7407 34.9336 27.8423 34.8477 27.9282C34.7695 28.0142 34.6719 28.0571 34.5547 28.0571H32.1758C32.0742 28.0571 31.9844 28.022 31.9062 27.9517L30.8984 27.1079C30.8047 27.022 30.7578 26.9165 30.7578 26.7915C30.7578 26.6587 30.8047 26.5493 30.8984 26.4634L31.9062 25.6196C31.9844 25.5493 32.0742 25.5142 32.1758 25.5142Z" fill="#2E8B57"/>
</svg>
