<svg width="23" height="23" viewBox="0 0 23 23" fill="none" xmlns="http://www.w3.org/2000/svg">
<path d="M11.9863 1.51758L10.6848 6.72357C10.4309 7.73943 10.3039 8.24736 10.0394 8.66067C9.80548 9.02625 9.495 9.33673 9.12942 9.57066C8.71611 9.83513 8.20818 9.96212 7.19232 10.2161L1.98633 11.5176L7.19232 12.8191C8.20818 13.073 8.71611 13.2 9.12942 13.4645C9.495 13.6984 9.80548 14.0089 10.0394 14.3745C10.3039 14.7878 10.4309 15.2957 10.6848 16.3116L11.9863 21.5176L13.2878 16.3116C13.5418 15.2957 13.6688 14.7878 13.9332 14.3745C14.1672 14.0089 14.4777 13.6984 14.8432 13.4645C15.2566 13.2 15.7645 13.073 16.7803 12.8191L21.9863 11.5176L16.7803 10.2161C15.7645 9.96212 15.2566 9.83513 14.8432 9.57066C14.4777 9.33673 14.1672 9.02625 13.9332 8.66067C13.6688 8.24736 13.5418 7.73943 13.2878 6.72357L11.9863 1.51758Z" stroke="#00954B" stroke-width="2" stroke-linecap="round" stroke-linejoin="round"/>
</svg>
