<svg width="41" height="41" viewBox="0 0 41 41" fill="none" xmlns="http://www.w3.org/2000/svg">
<path d="M28.6437 22.7707C30.2523 22.7707 31.5587 21.4648 31.5587 19.8532C31.5587 18.2415 30.2498 16.9333 28.6427 16.9332L28.6437 22.7707ZM28.6437 22.7707C27.8689 22.7707 27.1263 22.4641 26.5788 21.9171C26.0311 21.3697 25.7231 20.6273 25.7225 19.853C25.7228 19.0788 26.0306 18.3363 26.5781 17.7888C27.1256 17.2413 27.8681 16.9335 28.6425 16.9332L28.6437 22.7707ZM19.1522 17.0307C19.9439 17.7522 20.731 18.7309 21.3873 19.9187L21.3877 19.9194C22.2485 21.4715 22.7141 23.0218 22.7888 24.2605C22.866 25.5393 22.5269 26.3032 22.0246 26.5824L22.0245 26.5824L22.0184 26.5859C21.8046 26.7087 21.5994 26.7252 21.3642 26.6502C21.1075 26.5682 20.8049 26.3716 20.4559 26.0372L19.3421 24.9697L19.618 26.4876C19.7454 27.188 19.82 27.9456 19.82 28.7394C19.82 30.5166 19.4713 32.0995 18.9329 33.2195C18.3767 34.3766 17.7078 34.8794 17.1375 34.8794C16.8281 34.8794 16.5781 34.7361 16.3511 34.3663C16.1098 33.9733 15.9284 33.3683 15.8068 32.5692L14.8181 32.5693C14.6958 33.3745 14.5144 33.9786 14.2731 34.3694C14.0471 34.7355 13.7963 34.8794 13.48 34.8794C12.9057 34.8794 12.2378 34.3766 11.6838 33.2206C11.1473 32.1008 10.8012 30.5178 10.8012 28.7394L10.8012 28.739C10.8006 27.9834 10.8678 27.2293 11.002 26.4858L11.2766 24.9644L10.1631 26.0368C9.81789 26.3693 9.51623 26.5643 9.25996 26.6457C9.02428 26.7205 8.81799 26.7038 8.60486 26.5824L8.60487 26.5824L8.59993 26.5797C8.09567 26.3001 7.75551 25.5357 7.83174 24.2572C7.90559 23.0185 8.37085 21.4684 9.23211 19.9171L9.23218 19.917C9.89124 18.7292 10.6769 17.7496 11.468 17.0281C12.5735 17.7496 13.8879 18.1832 15.3112 18.1832L15.3126 18.1832C16.68 18.1794 18.0136 17.7774 19.1522 17.0307ZM15.3098 15.9332L15.154 15.9332C13.9237 15.8942 12.7519 15.3886 11.8785 14.5158C10.9683 13.6062 10.4567 12.3723 10.4562 11.0855C10.4558 9.79871 10.9665 8.56444 11.8761 7.65422C12.7857 6.744 14.0196 6.23238 15.3064 6.23193C15.9434 6.23171 16.5742 6.35695 17.1628 6.60052C17.7514 6.84408 18.2862 7.20118 18.7368 7.65145L19.0902 7.29777L18.7368 7.65145C19.1874 8.10171 19.5449 8.63632 19.7888 9.22473L20.2507 9.03323L19.7888 9.22474C20.0328 9.81315 20.1585 10.4439 20.1587 11.0809C20.1589 11.7179 20.0337 12.3487 19.7901 12.9372C19.5466 13.5258 19.1895 14.0607 18.7392 14.5113C18.2889 14.9618 17.7543 15.3193 17.1659 15.5633C16.5775 15.8073 15.9468 15.933 15.3098 15.9332ZM24.4443 29.6003L24.4443 29.6003L24.4388 29.5972C24.2119 29.4713 23.9927 29.0802 24.0403 28.2814C24.0856 27.5223 24.3727 26.5578 24.9133 25.5848C25.2987 24.8917 25.7507 24.3146 26.2073 23.8773C26.9153 24.3117 27.7468 24.5707 28.6425 24.5707C29.5393 24.5707 30.3681 24.311 31.0771 23.8768C31.5092 24.2906 31.9368 24.8295 32.3062 25.4731V25.475L32.3689 25.5881C32.9084 26.5613 33.1957 27.5265 33.2418 28.286C33.2904 29.0864 33.072 29.4758 32.8486 29.5998L32.8486 29.5997L32.8414 29.6038C32.7516 29.6556 32.6733 29.6633 32.5677 29.6297C32.4406 29.5891 32.2704 29.4841 32.0572 29.2797L30.9415 28.2107L31.2194 29.7306C31.2992 30.1672 31.3462 30.6421 31.3462 31.1357C31.3462 32.251 31.1272 33.2352 30.7973 33.922C30.4495 34.6457 30.0678 34.8807 29.8125 34.8807C29.6909 34.8807 29.583 34.8354 29.4624 34.6393C29.3273 34.4196 29.2159 34.0621 29.1393 33.5591L28.1506 33.5595C28.074 34.0654 27.9621 34.4224 27.8267 34.6411C27.7064 34.8354 27.5976 34.8819 27.4725 34.8819C27.2145 34.8819 26.8334 34.6469 26.4873 33.9241C26.1586 33.2376 25.9413 32.2532 25.9412 31.1361C25.9416 30.6632 25.9826 30.1912 26.0638 29.7253L26.3266 28.2177L25.2244 29.2793C25.0142 29.4817 24.8451 29.5855 24.7186 29.6256C24.6125 29.6592 24.5334 29.6512 24.4443 29.6003Z" stroke="#00984C"/>
</svg>
