<svg width="71" height="71" viewBox="0 0 71 71" fill="none" xmlns="http://www.w3.org/2000/svg">
<path d="M31.1771 9.51569C32.611 6.06415 37.5003 6.06415 38.9343 9.51568L40.7072 13.7832C41.5958 15.9221 44.0482 16.938 46.189 16.0539L50.4603 14.2899C53.9148 12.8632 57.3721 16.3205 55.9454 19.7751L54.1815 24.0464C53.2974 26.1871 54.3132 28.6395 56.4521 29.5281L60.7197 31.3011C64.1712 32.735 64.1712 37.6244 60.7197 39.0583L56.4521 40.8312C54.3132 41.7198 53.2974 44.1722 54.1815 46.313L55.9454 50.5843C57.3721 54.0388 53.9148 57.4961 50.4603 56.0695L46.189 54.3055C44.0482 53.4214 41.5958 54.4372 40.7072 56.5761L38.9343 60.8437C37.5003 64.2952 32.611 64.2952 31.1771 60.8437L29.4041 56.5761C28.5155 54.4372 26.0631 53.4214 23.9223 54.3055L19.6511 56.0695C16.1965 57.4961 12.7392 54.0388 14.1659 50.5843L15.9298 46.313C16.8139 44.1722 15.7981 41.7198 13.6592 40.8312L9.39166 39.0583C5.94013 37.6244 5.94013 32.735 9.39166 31.3011L13.6592 29.5281C15.7981 28.6395 16.8139 26.1871 15.9298 24.0464L14.1659 19.7751C12.7392 16.3205 16.1965 12.8632 19.6511 14.2899L23.9223 16.0539C26.0631 16.938 28.5155 15.9221 29.4041 13.7832L31.1771 9.51569Z" fill="#F7F9FC"/>
<path d="M43.6435 37.2184C45.2521 37.2184 46.5585 35.9125 46.5585 34.3009C46.5585 32.6893 45.2496 31.381 43.6424 31.3809L43.6435 37.2184ZM43.6435 37.2184C42.8686 37.2184 42.126 36.9119 41.5786 36.3648C41.0309 35.8175 40.7228 35.0751 40.7222 34.3008C40.7226 33.5265 41.0303 32.784 41.5778 32.2366C42.1254 31.689 42.8679 31.3813 43.6422 31.3809L43.6435 37.2184ZM34.1519 31.4785C34.9437 32.2 35.7307 33.1786 36.3871 34.3665L36.3875 34.3672C37.2482 35.9192 37.7139 37.4696 37.7886 38.7082C37.8658 39.9871 37.5267 40.7509 37.0243 41.0302L37.0243 41.0301L37.0181 41.0336C36.8043 41.1565 36.5991 41.173 36.364 41.0979C36.1073 41.0159 35.8046 40.8193 35.4557 40.4849L34.3418 39.4175L34.6178 40.9354C34.7451 41.6358 34.8197 42.3933 34.8197 43.1872C34.8197 44.9643 34.4711 46.5472 33.9327 47.6673C33.3765 48.8244 32.7076 49.3272 32.1372 49.3272C31.8279 49.3272 31.5779 49.1839 31.3508 48.814C31.1095 48.421 30.9282 47.8161 30.8065 47.017L29.8179 47.0171C29.6956 47.8223 29.5142 48.4263 29.2729 48.8172C29.0468 49.1833 28.7961 49.3272 28.4797 49.3272C27.9055 49.3272 27.2376 48.8244 26.6836 47.6683C26.147 46.5486 25.801 44.9656 25.801 43.1872L25.801 43.1868C25.8003 42.4312 25.8675 41.6771 26.0018 40.9335L26.2764 39.4121L25.1629 40.4845C24.8176 40.817 24.516 41.0121 24.2597 41.0934C24.024 41.1682 23.8177 41.1515 23.6046 41.0302L23.6046 41.0301L23.5997 41.0274C23.0954 40.7478 22.7553 39.9834 22.8315 38.7049C22.9054 37.4663 23.3706 35.9161 24.2319 34.3649L24.2319 34.3648C24.891 33.177 25.6766 32.1974 26.4677 31.4759C27.5733 32.1973 28.8876 32.6309 30.311 32.6309L30.3124 32.6309C31.6798 32.6271 33.0134 32.2251 34.1519 31.4785ZM30.3096 30.3809L30.1537 30.381C28.9235 30.3419 27.7517 29.8364 26.8783 28.9636C25.968 28.054 25.4564 26.8201 25.456 25.5333C25.4555 24.2465 25.9663 23.0122 26.8759 22.102C27.7854 21.1917 29.0194 20.6801 30.3062 20.6797C30.9431 20.6795 31.5739 20.8047 32.1625 21.0483C32.7511 21.2918 33.286 21.6489 33.7366 22.0992L34.09 21.7455L33.7366 22.0992C34.1871 22.5495 34.5446 23.0841 34.7886 23.6725L35.2505 23.481L34.7886 23.6725C35.0326 24.2609 35.1583 24.8916 35.1585 25.5286C35.1587 26.1656 35.0335 26.7964 34.7899 27.385C34.5463 27.9736 34.1892 28.5084 33.739 28.959C33.2887 29.4096 32.7541 29.7671 32.1657 30.0111C31.5773 30.255 30.9465 30.3807 30.3096 30.3809ZM39.444 44.0481L39.4441 44.048L39.4385 44.045C39.2116 43.9191 38.9925 43.528 39.0401 42.7291C39.0853 41.9701 39.3725 41.0056 39.9131 40.0325C40.2985 39.3394 40.7505 38.7623 41.2071 38.325C41.9151 38.7594 42.7465 39.0184 43.6422 39.0184C44.539 39.0184 45.3679 38.7588 46.0769 38.3246C46.509 38.7384 46.9366 39.2772 47.306 39.9208V39.9228L47.3687 40.0359C47.9082 41.0091 48.1955 41.9742 48.2416 42.7337C48.2902 43.5342 48.0717 43.9235 47.8483 44.0475L47.8483 44.0474L47.8412 44.0516C47.7514 44.1033 47.673 44.1111 47.5675 44.0774C47.4403 44.0368 47.2702 43.9318 47.0569 43.7274L45.9413 42.6584L46.2191 44.1783C46.2989 44.6149 46.346 45.0898 46.346 45.5834C46.346 46.6988 46.127 47.683 45.797 48.3697C45.4493 49.0935 45.0675 49.3284 44.8122 49.3284C44.6907 49.3284 44.5828 49.2832 44.4622 49.0871C44.327 48.8674 44.2157 48.5099 44.139 48.0069L43.1504 48.0073C43.0737 48.5131 42.9619 48.8702 42.8265 49.0888C42.7062 49.2832 42.5974 49.3297 42.4722 49.3297C42.2142 49.3297 41.8332 49.0947 41.4871 48.3719C41.1584 47.6854 40.941 46.7009 40.941 45.5838C40.9413 45.1109 40.9823 44.6389 41.0635 44.1731L41.3264 42.6654L40.2241 43.7271C40.014 43.9294 39.8449 44.0333 39.7183 44.0734C39.6123 44.107 39.5331 44.099 39.444 44.0481Z" stroke="#00984C"/>
</svg>
