<svg width="71" height="71" viewBox="0 0 71 71" fill="none" xmlns="http://www.w3.org/2000/svg">
<path d="M31.1771 9.92389C32.611 6.47235 37.5003 6.47235 38.9343 9.92389L40.7072 14.1914C41.5958 16.3304 44.0482 17.3462 46.189 16.4621L50.4603 14.6981C53.9148 13.2715 57.3721 16.7287 55.9454 20.1833L54.1815 24.4546C53.2974 26.5953 54.3132 29.0478 56.4521 29.9363L60.7197 31.7093C64.1712 33.1432 64.1712 38.0326 60.7197 39.4665L56.4521 41.2394C54.3132 42.128 53.2974 44.5805 54.1815 46.7212L55.9454 50.9925C57.3721 54.447 53.9148 57.9043 50.4603 56.4777L46.189 54.7137C44.0482 53.8296 41.5958 54.8454 40.7072 56.9843L38.9343 61.2519C37.5003 64.7034 32.611 64.7034 31.1771 61.2519L29.4041 56.9843C28.5155 54.8454 26.0631 53.8296 23.9223 54.7137L19.6511 56.4777C16.1965 57.9043 12.7392 54.447 14.1659 50.9925L15.9298 46.7212C16.8139 44.5804 15.7981 42.128 13.6592 41.2394L9.39166 39.4665C5.94013 38.0326 5.94013 33.1432 9.39166 31.7093L13.6592 29.9363C15.7981 29.0478 16.8139 26.5953 15.9298 24.4546L14.1659 20.1833C12.7392 16.7287 16.1965 13.2714 19.6511 14.6981L23.9223 16.4621C26.0631 17.3462 28.5155 16.3303 29.4041 14.1914L31.1771 9.92389Z" fill="#FCF7FA"/>
<path d="M43.6435 37.6266C45.2521 37.6266 46.5585 36.3207 46.5585 34.7091C46.5585 33.0975 45.2496 31.7892 43.6424 31.7891L43.6435 37.6266ZM43.6435 37.6266C42.8686 37.6266 42.126 37.3201 41.5786 36.773C41.0309 36.2257 40.7228 35.4833 40.7222 34.709C40.7226 33.9347 41.0303 33.1923 41.5778 32.6448C42.1254 32.0972 42.8679 31.7895 43.6422 31.7891L43.6435 37.6266ZM34.1519 31.8867C34.9437 32.6082 35.7307 33.5868 36.3871 34.7747L36.3875 34.7754C37.2482 36.3274 37.7139 37.8778 37.7886 39.1164C37.8658 40.3953 37.5267 41.1591 37.0243 41.4384L37.0243 41.4383L37.0181 41.4419C36.8043 41.5647 36.5991 41.5812 36.364 41.5061C36.1073 41.4241 35.8046 41.2275 35.4557 40.8931L34.3418 39.8257L34.6178 41.3436C34.7451 42.044 34.8197 42.8015 34.8197 43.5954C34.8197 45.3725 34.4711 46.9554 33.9327 48.0755C33.3765 49.2326 32.7076 49.7354 32.1372 49.7354C31.8279 49.7354 31.5779 49.5921 31.3508 49.2222C31.1095 48.8292 30.9282 48.2243 30.8065 47.4252L29.8179 47.4253C29.6956 48.2305 29.5142 48.8345 29.2729 49.2254C29.0468 49.5915 28.7961 49.7354 28.4797 49.7354C27.9055 49.7354 27.2376 49.2326 26.6836 48.0765C26.147 46.9568 25.801 45.3738 25.801 43.5954L25.801 43.595C25.8003 42.8394 25.8675 42.0853 26.0018 41.3417L26.2764 39.8203L25.1629 40.8928C24.8176 41.2252 24.516 41.4203 24.2597 41.5016C24.024 41.5764 23.8177 41.5597 23.6046 41.4384L23.6046 41.4384L23.5997 41.4356C23.0954 41.156 22.7553 40.3916 22.8315 39.1131C22.9054 37.8745 23.3706 36.3243 24.2319 34.7731L24.2319 34.773C24.891 33.5852 25.6766 32.6056 26.4677 31.8841C27.5733 32.6055 28.8876 33.0391 30.311 33.0391L30.3124 33.0391C31.6798 33.0353 33.0134 32.6333 34.1519 31.8867ZM30.3096 30.7891L30.1537 30.7892C28.9235 30.7501 27.7517 30.2446 26.8783 29.3718C25.968 28.4622 25.4564 27.2283 25.456 25.9415C25.4555 24.6547 25.9663 23.4204 26.8759 22.5102C27.7854 21.6 29.0194 21.0883 30.3062 21.0879C30.9431 21.0877 31.5739 21.2129 32.1625 21.4565C32.7511 21.7 33.286 22.0571 33.7366 22.5074L34.09 22.1537L33.7366 22.5074C34.1871 22.9577 34.5446 23.4923 34.7886 24.0807L35.2505 23.8892L34.7886 24.0807C35.0326 24.6691 35.1583 25.2998 35.1585 25.9368C35.1587 26.5738 35.0335 27.2046 34.7899 27.7932C34.5463 28.3818 34.1892 28.9166 33.739 29.3672C33.2887 29.8178 32.7541 30.1753 32.1657 30.4193C31.5773 30.6632 30.9465 30.7889 30.3096 30.7891ZM39.444 44.4563L39.4441 44.4562L39.4385 44.4532C39.2116 44.3273 38.9925 43.9362 39.0401 43.1373C39.0853 42.3783 39.3725 41.4138 39.9131 40.4407C40.2985 39.7476 40.7505 39.1705 41.2071 38.7332C41.9151 39.1676 42.7465 39.4266 43.6422 39.4266C44.539 39.4266 45.3679 39.167 46.0769 38.7328C46.509 39.1466 46.9366 39.6854 47.306 40.329V40.331L47.3687 40.4441C47.9082 41.4173 48.1955 42.3824 48.2416 43.1419C48.2902 43.9424 48.0717 44.3317 47.8483 44.4557L47.8483 44.4556L47.8412 44.4598C47.7514 44.5115 47.673 44.5193 47.5675 44.4856C47.4403 44.445 47.2702 44.34 47.0569 44.1356L45.9413 43.0666L46.2191 44.5865C46.2989 45.0231 46.346 45.498 46.346 45.9916C46.346 47.107 46.127 48.0912 45.797 48.7779C45.4493 49.5017 45.0675 49.7366 44.8122 49.7366C44.6907 49.7366 44.5828 49.6914 44.4622 49.4953C44.327 49.2756 44.2157 48.9181 44.139 48.4151L43.1504 48.4155C43.0737 48.9213 42.9619 49.2784 42.8265 49.497C42.7062 49.6914 42.5974 49.7379 42.4722 49.7379C42.2142 49.7379 41.8332 49.5029 41.4871 48.7801C41.1584 48.0936 40.941 47.1091 40.941 45.992C40.9413 45.5191 40.9823 45.0471 41.0635 44.5813L41.3264 43.0736L40.2241 44.1353C40.014 44.3376 39.8449 44.4415 39.7183 44.4816C39.6123 44.5152 39.5331 44.5072 39.444 44.4563Z" stroke="#941D58"/>
</svg>
