<svg width="32" height="32" viewBox="0 0 32 32" fill="none" xmlns="http://www.w3.org/2000/svg">
<path d="M19.5422 2.31663C19.5846 2.15799 19.6579 2.00927 19.7578 1.87896C19.8578 1.74865 19.9824 1.6393 20.1246 1.55718C20.2668 1.47505 20.4238 1.42174 20.5866 1.40031C20.7494 1.37887 20.9148 1.38973 21.0735 1.43225C23.3907 2.03686 25.505 3.24826 27.1984 4.94168C28.8918 6.63511 30.1032 8.74934 30.7078 11.0666C30.7504 11.2252 30.7612 11.3907 30.7398 11.5535C30.7183 11.7163 30.665 11.8733 30.5829 12.0155C30.5008 12.1577 30.3914 12.2823 30.2611 12.3822C30.1308 12.4822 29.9821 12.5554 29.8235 12.5979C29.7179 12.6256 29.6092 12.6398 29.5 12.6401C29.2246 12.6401 28.9568 12.5491 28.7384 12.3812C28.52 12.2134 28.3631 11.9781 28.2922 11.7119C27.7991 9.82025 26.8104 8.0943 25.4281 6.71198C24.0458 5.32965 22.3198 4.34098 20.4281 3.84788C20.2694 3.80561 20.1205 3.73246 19.99 3.63261C19.8595 3.53275 19.75 3.40815 19.6677 3.26593C19.5854 3.12371 19.532 2.96666 19.5105 2.80377C19.4889 2.64088 19.4997 2.47534 19.5422 2.31663ZM19.1781 8.84788C21.3328 9.42288 22.7172 10.8073 23.2922 12.9619C23.3631 13.2281 23.52 13.4634 23.7384 13.6312C23.9568 13.7991 24.2246 13.8901 24.5 13.8901C24.6092 13.8898 24.7179 13.8756 24.8235 13.8479C24.9821 13.8054 25.1308 13.7322 25.2611 13.6322C25.3914 13.5323 25.5008 13.4077 25.5829 13.2655C25.665 13.1233 25.7183 12.9663 25.7398 12.8035C25.7612 12.6407 25.7504 12.4752 25.7078 12.3166C24.9078 9.32288 22.8172 7.23225 19.8235 6.43225C19.5031 6.34668 19.1619 6.39186 18.8749 6.55786C18.5879 6.72386 18.3786 6.99708 18.293 7.31741C18.2074 7.63774 18.2526 7.97895 18.4186 8.26596C18.5846 8.55298 18.8578 8.7623 19.1781 8.84788ZM31.9813 23.7463C31.7027 25.8635 30.6629 27.807 29.0561 29.2136C27.4494 30.6202 25.3855 31.3939 23.25 31.3901C10.8438 31.3901 0.750014 21.2963 0.750014 8.89007C0.746186 6.75458 1.51984 4.69072 2.92647 3.08396C4.33311 1.4772 6.27653 0.437419 8.39376 0.158815C8.92916 0.0934411 9.47134 0.202974 9.93937 0.471063C10.4074 0.739151 10.7762 1.15142 10.9906 1.64631L14.2906 9.0135V9.03225C14.4548 9.41109 14.5227 9.82469 14.488 10.2361C14.4534 10.6476 14.3174 11.044 14.0922 11.3901C14.0641 11.4323 14.0344 11.4713 14.0031 11.5104L10.75 15.3666C11.9203 17.7448 14.4078 20.2104 16.8172 21.3838L20.6203 18.1479C20.6577 18.1165 20.6968 18.0873 20.7375 18.0604C21.0833 17.8298 21.4811 17.689 21.895 17.6508C22.3088 17.6126 22.7257 17.6782 23.1078 17.8416L23.1281 17.851L30.4891 21.1494C30.9848 21.3631 31.3981 21.7316 31.6671 22.1997C31.9361 22.6678 32.0463 23.2104 31.9813 23.7463ZM29.5 23.4338C29.5 23.4338 29.4891 23.4338 29.4828 23.4338L22.1391 20.1448L18.3344 23.3807C18.2975 23.412 18.2589 23.4412 18.2188 23.4682C17.859 23.7082 17.4431 23.8508 17.0118 23.882C16.5805 23.9132 16.1484 23.832 15.7578 23.6463C12.8313 22.2323 9.91408 19.3369 8.49845 16.4416C8.311 16.0539 8.22688 15.6243 8.25426 15.1945C8.28163 14.7647 8.41957 14.3493 8.6547 13.9885C8.6812 13.9461 8.71098 13.9059 8.74376 13.8682L12 10.0073L8.71876 2.6635C8.71815 2.65727 8.71815 2.65099 8.71876 2.64475C7.20354 2.84241 5.81232 3.58563 4.80566 4.73524C3.79899 5.88486 3.24592 7.36201 3.25001 8.89007C3.2558 14.1926 5.3648 19.2763 9.11427 23.0258C12.8637 26.7753 17.9475 28.8843 23.25 28.8901C24.7771 28.8953 26.2539 28.3442 27.4042 27.3397C28.5544 26.3352 29.2995 24.9462 29.5 23.4323V23.4338Z" fill="#4380BE"/>
</svg>
