<svg width="48" height="48" viewBox="0 0 48 48" fill="none" xmlns="http://www.w3.org/2000/svg">
<rect width="48" height="48" rx="6" fill="#2E8B57" fill-opacity="0.1"/>
<path d="M18.6055 9.71484C19.5898 9.71484 20.4961 9.93359 21.3242 10.3711C22.1602 10.8008 22.8594 11.3867 23.4219 12.1289C23.9922 12.8711 24.3633 13.707 24.5352 14.6367C24.582 14.8867 24.6133 15.1406 24.6289 15.3984H24.6406V15.7969L24.6758 15.75C24.7695 15.6328 24.8711 15.5156 24.9805 15.3984L25.0039 15.375C25.1367 15.2266 25.2812 15.0859 25.4375 14.9531C25.4453 14.9453 25.4531 14.9414 25.4609 14.9414C25.4688 14.9336 25.4766 14.9258 25.4844 14.918C25.9062 14.5508 26.375 14.25 26.8906 14.0156C27.4141 13.7734 27.9688 13.6133 28.5547 13.5352C28.7266 13.5117 28.8984 13.4922 29.0703 13.4766C29.1719 13.4766 29.2812 13.4766 29.3984 13.4766H35.8203C35.8203 13.7578 35.8008 14.0391 35.7617 14.3203C35.6289 15.3047 35.2812 16.1875 34.7188 16.9688C34.1562 17.75 33.4453 18.3711 32.5859 18.832C31.7344 19.293 30.8008 19.5234 29.7852 19.5234H24.6406V25.8281C25.8828 25.9922 27 26.4297 27.9922 27.1406C28.9844 27.8438 29.7695 28.7344 30.3477 29.8125C30.9258 30.8906 31.2148 32.0703 31.2148 33.3516H16.0273C16.0273 32.1719 16.2734 31.0742 16.7656 30.0586C17.2656 29.0508 17.9453 28.1914 18.8047 27.4805C19.6719 26.7695 20.6523 26.2734 21.7461 25.9922V15.75H18.207C17.1914 15.75 16.2539 15.5234 15.3945 15.0703C14.543 14.6094 13.8359 13.9883 13.2734 13.207C12.7188 12.418 12.3711 11.5352 12.2305 10.5586C12.1914 10.2773 12.1719 9.99609 12.1719 9.71484H18.6055ZM23.7969 25.7695V18.6797H29.7852C30.6445 18.6797 31.4375 18.4883 32.1641 18.1055C32.8906 17.7227 33.4961 17.2031 33.9805 16.5469C34.4648 15.8906 34.7734 15.1484 34.9062 14.3203H29.0938C28.3281 14.3672 27.6172 14.5703 26.9609 14.9297C26.3047 15.2812 25.7539 15.7422 25.3086 16.3125L23.7969 18.2461V15.5625L23.7852 15.4453C23.7305 14.5391 23.4648 13.7188 22.9883 12.9844C22.5195 12.2422 21.9023 11.6523 21.1367 11.2148C20.3711 10.7773 19.5273 10.5586 18.6055 10.5586H13.0859C13.2188 11.3789 13.5273 12.1172 14.0117 12.7734C14.4961 13.4297 15.1016 13.9492 15.8281 14.332C16.5547 14.7148 17.3477 14.9062 18.207 14.9062H22.6016V25.8281C22.9297 25.7812 23.2695 25.7578 23.6211 25.7578C23.6602 25.7578 23.7188 25.7617 23.7969 25.7695Z" fill="#2E8B57"/>
</svg>
