<svg width="33" height="33" viewBox="0 0 33 33" fill="none" xmlns="http://www.w3.org/2000/svg">
<path d="M15.25 15.3379V1.58789C15.25 1.25637 15.3817 0.938428 15.6161 0.704007C15.8505 0.469587 16.1685 0.337891 16.5 0.337891C16.8315 0.337891 17.1495 0.469587 17.3839 0.704007C17.6183 0.938428 17.75 1.25637 17.75 1.58789V15.3379H31.5C31.8315 15.3379 32.1495 15.4696 32.3839 15.704C32.6183 15.9384 32.75 16.2564 32.75 16.5879C32.75 16.9194 32.6183 17.2374 32.3839 17.4718C32.1495 17.7062 31.8315 17.8379 31.5 17.8379H17.75V31.5879C17.75 31.9194 17.6183 32.2374 17.3839 32.4718C17.1495 32.7062 16.8315 32.8379 16.5 32.8379C16.1685 32.8379 15.8505 32.7062 15.6161 32.4718C15.3817 32.2374 15.25 31.9194 15.25 31.5879V17.8379H1.5C1.16848 17.8379 0.850537 17.7062 0.616116 17.4718C0.381696 17.2374 0.25 16.9194 0.25 16.5879C0.25 16.2564 0.381696 15.9384 0.616116 15.704C0.850537 15.4696 1.16848 15.3379 1.5 15.3379H15.25Z" fill="black"/>
</svg>
