<svg width="388" height="424" viewBox="0 0 388 424" fill="none" xmlns="http://www.w3.org/2000/svg">
<g clip-path="url(#clip0_622_5780)">
<path d="M139.504 196.755L177.475 159.664C177.772 157.206 177.883 154.826 177.811 152.525C177.729 150.255 177.601 148.036 177.387 145.891C177.385 145.434 177.374 145.008 177.393 144.59C177.42 141.698 177.556 139.814 177.818 138.877C179.329 133.467 182.533 128.4 187.369 123.658C192.245 118.895 197.4 115.807 202.858 114.431C213.308 111.714 222.413 111.488 230.197 113.662C233.847 114.681 237.065 116.199 239.882 118.224C240.763 118.796 241.589 119.45 242.389 120.195L242.886 120.627C244.798 122.399 246.496 124.469 247.92 126.822L313.277 109.988C313.805 109.843 314.326 109.727 314.854 109.582C332.492 105.353 346.182 107.222 355.908 115.249L358.482 117.564C368.573 127.778 370.845 142.813 365.308 162.638C358.142 188.297 347.53 214.296 333.512 240.614C319.494 266.932 305.352 293.346 291.064 319.817L219.155 338.339L226.38 312.469L200.244 319.179L193.011 345.079L121.14 363.579L119.632 303.538L119.47 296.781L85.8818 294.307L111.086 204.065L139.504 196.755ZM223.304 193.185L288.69 176.359L295.915 150.49L268.057 157.662L230.529 167.315L223.304 193.185ZM168.579 227.844C170.406 229.69 173.184 230.107 176.867 229.149C180.579 228.198 184.041 226.168 187.221 223.049C190.431 219.938 192.526 216.516 193.547 212.859C194.568 209.202 194.196 206.459 192.37 204.614C190.574 202.776 187.805 202.329 184.092 203.279C180.409 204.238 176.947 206.268 173.728 209.409C170.548 212.528 168.433 215.912 167.403 219.599C166.373 223.286 166.783 226.007 168.579 227.844Z" stroke="#C2D280"/>
<path d="M197.356 79.4034L228.325 107.438L239.95 117.982L242.389 120.195L242.886 120.627C244.798 122.399 246.496 124.47 247.92 126.823L313.277 109.989C313.805 109.843 314.325 109.728 314.854 109.582C332.491 105.353 346.182 107.223 355.908 115.25L306.584 70.4905C296.493 60.2766 281.422 57.7612 261.38 62.9145L197.356 79.4034Z" stroke="#C2D280"/>
<path d="M268.057 157.663L295.916 150.49L288.69 176.36L223.304 193.185L230.53 167.316L268.057 157.663ZM173.729 209.409C176.948 206.269 180.409 204.238 184.092 203.28C187.805 202.329 190.574 202.777 192.37 204.614C194.196 206.46 194.569 209.203 193.547 212.86C192.526 216.517 190.431 219.939 187.221 223.049C184.041 226.168 180.579 228.199 176.867 229.149C173.184 230.108 170.406 229.69 168.58 227.845C166.784 226.007 166.382 223.256 167.403 219.599C168.424 215.942 170.548 212.528 173.729 209.409ZM242.39 120.196C241.59 119.451 240.763 118.797 239.882 118.225L239.95 117.983L242.39 120.196ZM268.057 157.663L295.916 150.49L288.69 176.36L223.304 193.185L230.53 167.316L268.057 157.663ZM173.729 209.409C176.948 206.269 180.409 204.238 184.092 203.28C187.805 202.329 190.574 202.777 192.37 204.614C194.196 206.46 194.569 209.203 193.547 212.86C192.526 216.517 190.431 219.939 187.221 223.049C184.041 226.168 180.579 228.199 176.867 229.149C173.184 230.108 170.406 229.69 168.58 227.845C166.784 226.007 166.382 223.256 167.403 219.599C168.424 215.942 170.548 212.528 173.729 209.409ZM268.057 157.663L295.916 150.49L288.69 176.36L223.304 193.185L230.53 167.316L268.057 157.663ZM173.729 209.409C176.948 206.269 180.409 204.238 184.092 203.28C187.805 202.329 190.574 202.777 192.37 204.614C194.196 206.46 194.569 209.203 193.547 212.86C192.526 216.517 190.431 219.939 187.221 223.049C184.041 226.168 180.579 228.199 176.867 229.149C173.184 230.108 170.406 229.69 168.58 227.845C166.784 226.007 166.382 223.256 167.403 219.599C168.424 215.942 170.548 212.528 173.729 209.409ZM173.729 209.409C176.948 206.269 180.409 204.238 184.092 203.28C187.805 202.329 190.574 202.777 192.37 204.614C194.196 206.46 194.569 209.203 193.547 212.86C192.526 216.517 190.431 219.939 187.221 223.049C184.041 226.168 180.579 228.199 176.867 229.149C173.184 230.108 170.406 229.69 168.58 227.845C166.784 226.007 166.382 223.256 167.403 219.599C168.424 215.942 170.548 212.528 173.729 209.409ZM268.057 157.663L295.916 150.49L288.69 176.36L223.304 193.185L230.53 167.316L268.057 157.663ZM173.729 209.409C176.948 206.269 180.409 204.238 184.092 203.28C187.805 202.329 190.574 202.777 192.37 204.614C194.196 206.46 194.569 209.203 193.547 212.86C192.526 216.517 190.431 219.939 187.221 223.049C184.041 226.168 180.579 228.199 176.867 229.149C173.184 230.108 170.406 229.69 168.58 227.845C166.784 226.007 166.382 223.256 167.403 219.599C168.424 215.942 170.548 212.528 173.729 209.409ZM268.057 157.663L295.916 150.49L288.69 176.36L223.304 193.185L230.53 167.316L268.057 157.663Z" stroke="#C2D280"/>
<path d="M59.1884 156.992L111.086 204.066L139.503 196.756L123.623 182.351L115.081 174.622L115.09 174.592L87.6062 149.682L59.1884 156.992Z" stroke="#C2D280"/>
<path d="M87.6068 149.681L115.09 174.592L115.081 174.622L123.623 182.351L139.504 196.755L177.475 159.665L125.578 112.591L87.6068 149.681Z" stroke="#C2D280"/>
<path d="M59.1872 156.991L33.9826 247.233L85.8799 294.307L111.084 204.065L59.1872 156.991Z" stroke="#C2D280"/>
<path d="M68.2906 278.349L69.2444 316.505L121.141 363.58L119.634 303.538L119.472 296.781L85.884 294.307L68.2906 278.349Z" stroke="#C2D280"/>
<path d="M125.92 91.8033C125.625 92.8611 125.491 95.202 125.489 98.8178C125.703 100.963 125.832 103.181 125.913 105.452C125.986 107.753 125.874 110.133 125.578 112.591L177.475 159.665C177.771 157.207 177.883 154.827 177.81 152.526C177.729 150.256 177.6 148.037 177.386 145.892C177.384 145.435 177.373 145.009 177.392 144.59C177.419 141.698 177.556 139.814 177.817 138.878C179.328 133.468 182.532 128.401 187.368 123.659C192.244 118.896 197.399 115.807 202.857 114.432C213.308 111.715 222.412 111.489 230.196 113.663C233.847 114.682 237.065 116.2 239.882 118.225L239.949 117.983L228.324 107.438L197.355 79.4041L192.031 74.594C188.404 70.8118 183.811 68.1606 178.299 66.5884C170.515 64.4144 161.41 64.6407 150.96 67.358C145.502 68.7332 140.347 71.8218 135.471 76.585C130.635 81.3264 127.431 86.3937 125.92 91.8033Z" stroke="#C2D280"/>
<path d="M268.057 157.663L288.69 176.36" stroke="#C2D280"/>
<path d="M200.242 319.179L199.795 320.78L219.152 338.339L226.378 312.47L200.242 319.179Z" stroke="#C2D280"/>
</g>
<defs>
<clipPath id="clip0_622_5780">
<rect width="313.237" height="351.437" fill="white" transform="matrix(-0.963138 -0.269006 -0.269006 0.963138 396.42 84.5515)"/>
</clipPath>
</defs>
</svg>
