<svg width="553" height="609" viewBox="0 0 553 609" fill="none" xmlns="http://www.w3.org/2000/svg">
<g opacity="0.32">
<path d="M-236.404 320.245C-154.002 143.533 56.0516 67.0803 232.763 149.482C409.475 231.884 485.928 441.938 403.526 618.65C321.124 795.361 111.071 871.815 -65.6409 789.413C-242.353 707.01 -318.806 496.957 -236.404 320.245Z" stroke="#F99650"/>
<path d="M-203.852 335.424C-129.833 176.69 58.8506 108.015 217.585 182.034C376.319 256.053 444.994 444.737 370.975 603.471C296.956 762.205 108.273 830.88 -50.4615 756.861C-209.196 682.842 -277.871 494.159 -203.852 335.424Z" stroke="#FF5F08"/>
<path d="M-171.302 350.599C-105.667 209.843 61.6472 148.946 202.404 214.581C343.16 280.217 404.057 447.531 338.421 588.287C272.786 729.044 105.472 789.941 -35.2846 724.305C-176.041 658.67 -236.938 491.356 -171.302 350.599Z" stroke="#F99650"/>
<path d="M-138.75 365.778C-81.4977 243 64.4465 189.88 187.225 247.133C310.004 304.386 363.123 450.33 305.871 573.109C248.618 695.887 102.674 749.007 -20.105 691.754C-142.884 634.501 -196.003 488.557 -138.75 365.778Z" stroke="#941D58"/>
<path d="M-106.198 380.957C-57.3285 276.156 67.246 230.814 172.047 279.684C276.848 328.553 322.189 453.128 273.32 557.929C224.45 662.73 99.8758 708.071 -4.92511 659.201C-109.726 610.332 -155.067 485.758 -106.198 380.957Z" stroke="#F99650"/>
<path d="M-73.6498 396.134C-33.1635 309.311 70.0414 271.748 156.865 312.234C243.688 352.72 281.251 455.925 240.765 542.748C200.279 629.572 97.0738 667.135 10.2506 626.649C-76.5727 586.162 -114.136 482.958 -73.6498 396.134Z" stroke="#4380BE"/>
<path d="M-41.0929 411.324C-8.98969 342.479 72.8455 312.693 141.691 344.796C210.537 376.9 240.322 458.735 208.219 527.58C176.116 596.426 94.2807 626.212 25.435 594.108C-43.4106 562.005 -73.1962 480.17 -41.0929 411.324Z" stroke="#F99650"/>
<path d="M-8.54071 426.503C15.1793 375.635 75.6448 353.627 126.513 377.347C177.38 401.067 199.388 461.533 175.668 512.4C151.948 563.268 91.4825 585.276 40.6147 561.556C-10.2531 537.836 -32.2608 477.37 -8.54071 426.503Z" stroke="#945123"/>
<path d="M24.0084 441.68C39.3453 408.79 78.4411 394.56 111.331 409.897C144.221 425.234 158.451 464.33 143.114 497.22C127.777 530.11 88.6815 544.34 55.7913 529.003C22.9012 513.666 8.67147 474.57 24.0084 441.68Z" stroke="#F99650"/>
<path d="M56.5605 456.858C63.5143 441.946 81.2403 435.494 96.1527 442.448C111.065 449.401 117.517 467.127 110.563 482.04C103.609 496.952 85.8833 503.404 70.9709 496.45C56.0585 489.496 49.6068 471.77 56.5605 456.858Z" stroke="#00954B"/>
</g>
</svg>
