<svg width="546" height="608" viewBox="0 0 546 608" fill="none" xmlns="http://www.w3.org/2000/svg">
<g clip-path="url(#clip0_339_1519)">
<g opacity="0.32">
<path d="M793.81 326.315C713.246 148.758 503.997 70.129 326.44 150.693C148.882 231.257 70.2535 440.506 150.817 618.063C231.381 795.62 440.63 874.249 618.187 793.685C795.745 713.121 874.374 503.872 793.81 326.315Z" stroke="#F99650"/>
<path d="M761.102 341.156C688.734 181.662 500.773 111.032 341.279 183.4C181.786 255.768 111.156 443.729 183.524 603.223C255.892 762.717 443.853 833.346 603.347 760.978C762.84 688.61 833.47 500.649 761.102 341.156Z" stroke="#FF5F08"/>
<path d="M728.397 355.992C664.225 214.562 497.552 151.932 356.122 216.103C214.692 280.275 152.062 446.948 216.234 588.378C280.405 729.808 447.078 792.438 588.508 728.266C729.938 664.095 792.568 497.422 728.397 355.992Z" stroke="#F99650"/>
<path d="M695.689 370.832C639.713 247.466 494.328 192.835 370.962 248.811C247.596 304.786 192.965 450.172 248.94 573.538C304.916 696.904 450.301 751.535 573.667 695.559C697.033 639.584 751.664 494.199 695.689 370.832Z" stroke="#941D58"/>
<path d="M662.981 385.672C615.201 280.37 491.104 233.738 385.802 281.517C280.499 329.297 233.868 453.394 281.647 558.696C329.426 663.999 453.524 710.63 558.826 662.851C664.128 615.072 710.76 490.974 662.981 385.672Z" stroke="#F99650"/>
<path d="M630.277 400.511C590.694 313.272 487.884 274.64 400.645 314.223C313.407 353.807 274.774 456.616 314.358 543.855C353.941 631.093 456.75 669.726 543.989 630.143C631.228 590.559 669.86 487.75 630.277 400.511Z" stroke="#4380BE"/>
<path d="M597.564 415.363C566.177 346.187 484.655 315.554 415.48 346.941C346.305 378.329 315.672 459.85 347.059 529.025C378.446 598.2 459.968 628.834 529.143 597.446C598.318 566.059 628.951 484.538 597.564 415.363Z" stroke="#F99650"/>
<path d="M564.856 430.202C541.665 379.091 481.431 356.457 430.32 379.648C379.209 402.839 356.575 463.073 379.766 514.184C402.957 565.295 463.191 587.929 514.302 564.738C565.413 541.547 588.047 481.313 564.856 430.202Z" stroke="#945123"/>
<path d="M532.151 445.041C517.156 411.994 478.21 397.359 445.163 412.354C412.115 427.349 397.481 466.295 412.475 499.342C427.47 532.39 466.416 547.024 499.464 532.03C532.511 517.035 547.146 478.089 532.151 445.041Z" stroke="#F99650"/>
<path d="M499.443 459.88C492.644 444.897 474.986 438.261 460.003 445.06C445.019 451.859 438.384 469.517 445.182 484.5C451.981 499.484 469.639 506.119 484.623 499.321C499.606 492.522 506.242 474.864 499.443 459.88Z" stroke="#00954B"/>
</g>
</g>
<defs>
<clipPath id="clip0_339_1519">
<rect width="712.623" height="343.236" fill="white" transform="translate(0.616211 294.941) rotate(-24.4054)"/>
</clipPath>
</defs>
</svg>
