<svg width="20" height="23" viewBox="0 0 20 23" fill="none" xmlns="http://www.w3.org/2000/svg">
<path d="M10 1.69979V11.1998M10 11.1998L18.5 6.4775M10 11.1998L1.5 6.4775M10 11.1998V20.6998M18.5 15.922L10.777 11.6315C10.4934 11.4739 10.3516 11.3951 10.2015 11.3643C10.0685 11.3369 9.93146 11.3369 9.79855 11.3643C9.64838 11.3951 9.50658 11.4739 9.22297 11.6315L1.5 15.922M19 15.2583V7.14124C19 6.79859 19 6.62727 18.9495 6.47447C18.9049 6.3393 18.8318 6.21522 18.7354 6.11053C18.6263 5.99219 18.4766 5.90899 18.177 5.74258L10.777 1.63147C10.4934 1.47392 10.3516 1.39514 10.2015 1.36425C10.0685 1.33692 9.93146 1.33692 9.79855 1.36425C9.64838 1.39514 9.50658 1.47392 9.22297 1.63147L1.82297 5.74259C1.52345 5.90899 1.37369 5.99219 1.26463 6.11053C1.16816 6.21522 1.09515 6.3393 1.05048 6.47448C1 6.62727 1 6.7986 1 7.14124V15.2583C1 15.601 1 15.7723 1.05048 15.9251C1.09515 16.0603 1.16816 16.1844 1.26463 16.2891C1.37369 16.4074 1.52345 16.4906 1.82297 16.657L9.22297 20.7681C9.50658 20.9257 9.64838 21.0044 9.79855 21.0353C9.93146 21.0627 10.0685 21.0627 10.2015 21.0353C10.3516 21.0044 10.4934 20.9257 10.777 20.7681L18.177 16.657C18.4766 16.4906 18.6263 16.4074 18.7354 16.2891C18.8318 16.1844 18.9049 16.0603 18.9495 15.9251C19 15.7723 19 15.601 19 15.2583Z" stroke="#00954B" stroke-width="2" stroke-linecap="round" stroke-linejoin="round"/>
</svg>
