<svg width="56" height="57" viewBox="0 0 56 57" fill="none" xmlns="http://www.w3.org/2000/svg">
<rect x="4" y="4.58838" width="48" height="48" rx="24" fill="#FFF2EB"/>
<rect x="4" y="4.58838" width="48" height="48" rx="24" stroke="#FFF9F5" stroke-width="8"/>
<g clip-path="url(#clip0_667_3193)">
<path d="M39 26.5884V19.5884C39 19.3232 38.8946 19.0688 38.7071 18.8813C38.5196 18.6937 38.2652 18.5884 38 18.5884H18C17.7348 18.5884 17.4804 18.6937 17.2929 18.8813C17.1054 19.0688 17 19.3232 17 19.5884V26.5884C17 38.5884 28 41.5884 28 41.5884C28 41.5884 39 38.5884 39 26.5884Z" stroke="#E78020" stroke-width="2" stroke-linecap="round" stroke-linejoin="round"/>
<path d="M23 29.5884L26 32.5884L33 25.5884" stroke="#E78020" stroke-width="2" stroke-linecap="round" stroke-linejoin="round"/>
</g>
<defs>
<clipPath id="clip0_667_3193">
<rect width="32" height="32" fill="white" transform="translate(12 12.5884)"/>
</clipPath>
</defs>
</svg>
