<svg width="22" height="23" viewBox="0 0 22 23" fill="none" xmlns="http://www.w3.org/2000/svg">
<path d="M11 1.69922L9.6985 6.90521C9.44454 7.92107 9.31756 8.429 9.05308 8.84231C8.81915 9.2079 8.50868 9.51837 8.14309 9.7523C7.72978 10.0168 7.22185 10.1438 6.20599 10.3977L1 11.6992L6.20599 13.0007C7.22185 13.2547 7.72978 13.3817 8.14309 13.6461C8.50868 13.8801 8.81915 14.1905 9.05309 14.5561C9.31756 14.9694 9.44454 15.4774 9.6985 16.4932L11 21.6992L12.3015 16.4932C12.5555 15.4774 12.6824 14.9694 12.9469 14.5561C13.1808 14.1905 13.4913 13.8801 13.8569 13.6461C14.2702 13.3817 14.7782 13.2547 15.794 13.0007L21 11.6992L15.794 10.3977C14.7782 10.1438 14.2702 10.0168 13.8569 9.7523C13.4913 9.51837 13.1808 9.2079 12.9469 8.84231C12.6824 8.429 12.5555 7.92107 12.3015 6.90521L11 1.69922Z" stroke="#00954B" stroke-width="2" stroke-linecap="round" stroke-linejoin="round"/>
</svg>
