<svg width="24" height="25" viewBox="0 0 24 25" fill="none" xmlns="http://www.w3.org/2000/svg">
<path d="M12 2.69501L10.6985 7.901C10.4445 8.91686 10.3176 9.42478 10.0531 9.8381C9.81915 10.2037 9.50868 10.5142 9.14309 10.7481C8.72978 11.0126 8.22185 11.1395 7.20599 11.3935L2 12.695L7.20599 13.9965C8.22185 14.2505 8.72978 14.3775 9.14309 14.6419C9.50868 14.8759 9.81915 15.1863 10.0531 15.5519C10.3176 15.9652 10.4445 16.4732 10.6985 17.489L12 22.695L13.3015 17.489C13.5555 16.4732 13.6824 15.9652 13.9469 15.5519C14.1808 15.1863 14.4913 14.8759 14.8569 14.6419C15.2702 14.3775 15.7782 14.2505 16.794 13.9965L22 12.695L16.794 11.3935C15.7782 11.1395 15.2702 11.0126 14.8569 10.7481C14.4913 10.5142 14.1808 10.2037 13.9469 9.8381C13.6824 9.42478 13.5555 8.91686 13.3015 7.901L12 2.69501Z" stroke="#00954B" stroke-width="2" stroke-linecap="round" stroke-linejoin="round"/>
</svg>
