<svg width="22" height="22" viewBox="0 0 22 22" fill="none" xmlns="http://www.w3.org/2000/svg">
<path d="M11 1.00879L9.6985 6.21478C9.44454 7.23064 9.31756 7.73857 9.05308 8.15188C8.81915 8.51747 8.50868 8.82794 8.14309 9.06187C7.72978 9.32634 7.22185 9.45333 6.20599 9.70729L1 11.0088L6.20599 12.3103C7.22185 12.5643 7.72978 12.6912 8.14309 12.9557C8.50868 13.1896 8.81915 13.5001 9.05309 13.8657C9.31756 14.279 9.44454 14.7869 9.6985 15.8028L11 21.0088L12.3015 15.8028C12.5555 14.7869 12.6824 14.279 12.9469 13.8657C13.1808 13.5001 13.4913 13.1896 13.8569 12.9557C14.2702 12.6912 14.7782 12.5643 15.794 12.3103L21 11.0088L15.794 9.70729C14.7782 9.45333 14.2702 9.32634 13.8569 9.06187C13.4913 8.82794 13.1808 8.51747 12.9469 8.15188C12.6824 7.73857 12.5555 7.23064 12.3015 6.21478L11 1.00879Z" stroke="#941D58" stroke-width="2" stroke-linecap="round" stroke-linejoin="round"/>
</svg>
