<svg width="14" height="14" viewBox="0 0 14 14" fill="none" xmlns="http://www.w3.org/2000/svg">
<path d="M3.81624 0.871284C3.79236 0.759309 3.73077 0.658923 3.64176 0.586902C3.55276 0.51488 3.44174 0.475586 3.32724 0.475586C3.21275 0.475586 3.10172 0.51488 3.01272 0.586902C2.92372 0.658923 2.86213 0.759309 2.83824 0.871284C2.68358 1.60195 2.47158 2.09462 2.17824 2.44528C1.89224 2.78928 1.49224 3.04062 0.878242 3.22262C0.774916 3.25328 0.684265 3.31652 0.6198 3.4029C0.555335 3.48927 0.520508 3.59417 0.520508 3.70195C0.520508 3.80973 0.555335 3.91463 0.6198 4.001C0.684265 4.08738 0.774916 4.15062 0.878242 4.18128C1.46824 4.35595 1.86491 4.59262 2.15558 4.93128C2.45158 5.27528 2.67691 5.77128 2.83824 6.53262C2.86213 6.64459 2.92372 6.74498 3.01272 6.817C3.10172 6.88902 3.21275 6.92832 3.32724 6.92832C3.44174 6.92832 3.55276 6.88902 3.64176 6.817C3.73077 6.74498 3.79236 6.64459 3.81624 6.53262C3.97758 5.77062 4.20291 5.27528 4.49891 4.93128C4.78958 4.59262 5.18558 4.35595 5.77691 4.18128C5.88023 4.15062 5.97089 4.08738 6.03535 4.001C6.09982 3.91463 6.13464 3.80973 6.13464 3.70195C6.13464 3.59417 6.09982 3.48927 6.03535 3.4029C5.97089 3.31652 5.88023 3.25328 5.77691 3.22262C5.18624 3.04795 4.78958 2.81128 4.49891 2.47262C4.20291 2.12862 3.97758 1.63262 3.81624 0.871284ZM9.35158 3.03862C9.32522 2.92958 9.26296 2.83258 9.17481 2.7632C9.08667 2.69383 8.97775 2.65611 8.86558 2.65611C8.7534 2.65611 8.64449 2.69383 8.55634 2.7632C8.46819 2.83258 8.40593 2.92958 8.37958 3.03862C8.01024 4.56662 7.61891 5.48795 7.06491 6.13062C6.51824 6.76528 5.76691 7.18128 4.55158 7.59195C4.4525 7.62544 4.36643 7.68915 4.30546 7.77412C4.24449 7.85909 4.2117 7.96104 4.2117 8.06562C4.2117 8.1702 4.24449 8.27214 4.30546 8.35711C4.36643 8.44208 4.4525 8.50579 4.55158 8.53928C5.82091 8.96795 6.58224 9.42062 7.11958 10.0673C7.66558 10.7246 8.02758 11.6373 8.37958 13.092C8.40593 13.201 8.46819 13.298 8.55634 13.3674C8.64449 13.4367 8.7534 13.4745 8.86558 13.4745C8.97775 13.4745 9.08667 13.4367 9.17481 13.3674C9.26296 13.298 9.32522 13.201 9.35158 13.092C9.72091 11.5646 10.1129 10.6433 10.6662 10.0006C11.2129 9.36595 11.9642 8.94995 13.1796 8.53928C13.2786 8.50579 13.3647 8.44208 13.4257 8.35711C13.4867 8.27214 13.5195 8.1702 13.5195 8.06562C13.5195 7.96104 13.4867 7.85909 13.4257 7.77412C13.3647 7.68915 13.2786 7.62544 13.1796 7.59195C11.9082 7.16262 11.1482 6.71195 10.6116 6.06528C10.0662 5.40928 9.70491 4.49728 9.35158 3.03862Z" fill="#E78020"/>
</svg>
