<svg width="88" height="88" viewBox="0 0 88 88" fill="none" xmlns="http://www.w3.org/2000/svg">
<path d="M44 54.3125L52.0208 59.1042C52.7847 59.5903 53.5319 59.5736 54.2625 59.0542C54.9931 58.5347 55.2528 57.8222 55.0417 56.9167L52.9583 47.8542L60.0417 41.7083C60.7361 41.0833 60.9444 40.3375 60.6667 39.4708C60.3889 38.6042 59.7639 38.1347 58.7917 38.0625L49.5208 37.3333L45.875 28.6875C45.5278 27.8542 44.9028 27.4375 44 27.4375C43.0972 27.4375 42.4722 27.8542 42.125 28.6875L38.4792 37.3333L29.2083 38.0625C28.2361 38.1319 27.6111 38.6014 27.3333 39.4708C27.0556 40.3403 27.2639 41.0861 27.9583 41.7083L35.0417 47.8542L32.9583 56.9167C32.75 57.8194 33.0111 58.5319 33.7417 59.0542C34.4722 59.5764 35.2181 59.5931 35.9792 59.1042L44 54.3125ZM30.0417 77.3333H19C16.7083 77.3333 14.7472 76.5181 13.1167 74.8875C11.4861 73.2569 10.6694 71.2944 10.6667 69V57.9583L2.64583 49.8333C1.88194 49 1.29167 48.0806 0.875 47.075C0.458333 46.0694 0.25 45.0444 0.25 44C0.25 42.9556 0.458333 41.9319 0.875 40.9292C1.29167 39.9264 1.88194 39.0056 2.64583 38.1667L10.6667 30.0417V19C10.6667 16.7083 11.4833 14.7472 13.1167 13.1167C14.75 11.4861 16.7111 10.6694 19 10.6667H30.0417L38.1667 2.64583C39 1.88194 39.9208 1.29167 40.9292 0.875C41.9375 0.458333 42.9611 0.25 44 0.25C45.0389 0.25 46.0639 0.458333 47.075 0.875C48.0861 1.29167 49.0056 1.88194 49.8333 2.64583L57.9583 10.6667H69C71.2917 10.6667 73.2542 11.4833 74.8875 13.1167C76.5208 14.75 77.3361 16.7111 77.3333 19V30.0417L85.3542 38.1667C86.118 39 86.7083 39.9208 87.125 40.9292C87.5417 41.9375 87.75 42.9611 87.75 44C87.75 45.0389 87.5417 46.0639 87.125 47.075C86.7083 48.0861 86.118 49.0056 85.3542 49.8333L77.3333 57.9583V69C77.3333 71.2917 76.5181 73.2542 74.8875 74.8875C73.2569 76.5208 71.2944 77.3361 69 77.3333H57.9583L49.8333 85.3542C49 86.118 48.0806 86.7083 47.075 87.125C46.0694 87.5417 45.0444 87.75 44 87.75C42.9556 87.75 41.9319 87.5417 40.9292 87.125C39.9264 86.7083 39.0056 86.118 38.1667 85.3542L30.0417 77.3333Z" fill="#00984C"/>
</svg>
