<svg width="48" height="48" viewBox="0 0 48 48" fill="none" xmlns="http://www.w3.org/2000/svg">
<rect width="48" height="48" rx="6" fill="#2E8B57" fill-opacity="0.1"/>
<path d="M26.5273 14.0156C26.5273 14.0156 26.5273 14.0117 26.5273 14.0039C26.5273 14.4102 26.5859 14.8125 26.7031 15.2109L26.8672 15.7852L25.9297 16.5469L24.0664 18.0234C23.5977 18.3984 23.3086 18.875 23.1992 19.4531C23.0898 20.0234 23.168 20.5586 23.4336 21.0586L22.5195 21.9727C22.3789 22.1133 22.3086 22.2852 22.3086 22.4883C22.3086 22.6914 22.3789 22.8672 22.5195 23.0156C22.668 23.1562 22.8398 23.2266 23.0352 23.2266C23.2383 23.2266 23.4141 23.1562 23.5625 23.0156L24.4648 22.1016C24.9727 22.3672 25.5117 22.4453 26.082 22.3359C26.6602 22.2266 27.1367 21.9375 27.5117 21.4688L29.7617 18.6445L30.3945 18.8203C30.5273 18.8672 30.668 18.9023 30.8164 18.9258C31.0508 18.9727 31.2852 19 31.5195 19.0078C32.1367 19.0234 32.7344 18.9141 33.3125 18.6797C33.8984 18.4375 34.4102 18.0859 34.8477 17.625L35.5977 16.8633C35.8008 16.6523 35.8672 16.4023 35.7969 16.1133C35.7266 15.8242 35.5508 15.6367 35.2695 15.5508L32.4453 14.7773V14.7891C32.4531 14.5938 32.4258 14.4023 32.3633 14.2148L33.0664 13.5C33.2148 13.3594 33.2891 13.1875 33.2891 12.9844C33.2891 12.7812 33.2148 12.6094 33.0664 12.4688C32.9258 12.3203 32.7539 12.2461 32.5508 12.2461C32.3477 12.2461 32.1758 12.3203 32.0352 12.4688L31.3203 13.1719C31.1406 13.1094 30.9531 13.082 30.7578 13.0898L29.9141 10.2773C29.8359 9.99609 29.6523 9.82031 29.3633 9.75C29.082 9.67188 28.8398 9.73828 28.6367 9.94922L27.8867 10.6992C27.4336 11.1367 27.0898 11.6445 26.8555 12.2227C26.6289 12.8008 26.5195 13.3984 26.5273 14.0156ZM29.3867 20.4609L30.0664 19.6172L30.1602 19.6406C30.6445 19.7812 31.1367 19.8516 31.6367 19.8516C31.6992 19.8516 31.7773 19.8477 31.8711 19.8398C32.2539 20.9336 32.4453 22.0625 32.4453 23.2266C32.4453 24.625 32.1836 25.9375 31.6602 27.1641C31.1367 28.3906 30.4102 29.4688 29.4805 30.3984C28.5508 31.3281 27.4727 32.0547 26.2461 32.5781C25.0195 33.1016 23.707 33.3633 22.3086 33.3633C20.9102 33.3633 19.5977 33.1016 18.3711 32.5781C17.1445 32.0547 16.0664 31.3281 15.1367 30.3984C14.2148 29.4688 13.4883 28.3906 12.957 27.1641C12.4336 25.9375 12.1719 24.625 12.1719 23.2266C12.1719 21.8281 12.4336 20.5195 12.957 19.3008C13.4883 18.0742 14.2148 16.9961 15.1367 16.0664C16.0664 15.1367 17.1445 14.4102 18.3711 13.8867C19.5977 13.3555 20.9102 13.0898 22.3086 13.0898C23.4727 13.0898 24.6016 13.2852 25.6953 13.6758C25.6641 14.2695 25.7305 14.8555 25.8945 15.4336L25.9062 15.4805L25.0742 16.1484C24.1914 15.7969 23.2695 15.6211 22.3086 15.6211C21.2617 15.6211 20.2773 15.8203 19.3555 16.2188C18.4414 16.6094 17.6328 17.1562 16.9297 17.8594C16.2344 18.5547 15.6875 19.3633 15.2891 20.2852C14.8984 21.1992 14.7031 22.1797 14.7031 23.2266C14.7031 24.2812 14.8984 25.2695 15.2891 26.1914C15.6875 27.1055 16.2344 27.9102 16.9297 28.6055C17.6328 29.3008 18.4414 29.8438 19.3555 30.2344C20.2773 30.6328 21.2617 30.832 22.3086 30.832C23.3555 30.832 24.3398 30.6328 25.2617 30.2344C26.1836 29.8438 26.9922 29.3008 27.6875 28.6055C28.3828 27.9102 28.9258 27.1055 29.3164 26.1914C29.7148 25.2695 29.9141 24.2812 29.9141 23.2266C29.9141 22.2734 29.7383 21.3516 29.3867 20.4609ZM24.8398 23.1445C25.4336 23.2773 26.0156 23.2539 26.5859 23.0742C26.8594 22.9883 27.1133 22.8711 27.3477 22.7227C27.3711 22.8945 27.3828 23.0625 27.3828 23.2266C27.3828 24.1641 27.1523 25.0156 26.6914 25.7812C26.2383 26.5469 25.625 27.1602 24.8516 27.6211C24.0859 28.0742 23.2383 28.3008 22.3086 28.3008C21.3789 28.3008 20.5273 28.0742 19.7539 27.6211C18.9883 27.1602 18.3789 26.5469 17.9258 25.7812C17.4727 25.0156 17.2461 24.1641 17.2461 23.2266C17.2461 22.2969 17.4727 21.4492 17.9258 20.6836C18.3789 19.9102 18.9883 19.2969 19.7539 18.8438C20.5273 18.3906 21.3789 18.1641 22.3086 18.1641C22.4805 18.1641 22.6484 18.1719 22.8125 18.1875C22.6641 18.4219 22.5508 18.6758 22.4727 18.9492C22.2852 19.5273 22.2617 20.1094 22.4023 20.6953C22.3633 20.6953 22.332 20.6953 22.3086 20.6953C21.6055 20.6953 21.0078 20.9453 20.5156 21.4453C20.0234 21.9375 19.7773 22.5312 19.7773 23.2266C19.7773 23.9297 20.0234 24.5273 20.5156 25.0195C21.0078 25.5117 21.6055 25.7578 22.3086 25.7578C23.0117 25.7578 23.6094 25.5117 24.1016 25.0195C24.5938 24.5273 24.8398 23.9297 24.8398 23.2266C24.8398 23.2109 24.8398 23.1836 24.8398 23.1445Z" fill="#2E8B57"/>
</svg>
