<svg width="33" height="33" viewBox="0 0 33 33" fill="none" xmlns="http://www.w3.org/2000/svg">
<g clip-path="url(#clip0_650_3044)">
<path d="M19.041 26.5745V9.57446H5.04102C4.7758 9.57446 4.52145 9.67982 4.33391 9.86736C4.14637 10.0549 4.04102 10.3092 4.04102 10.5745V25.5745C4.04102 25.8397 4.14637 26.094 4.33391 26.2816C4.52145 26.4691 4.7758 26.5745 5.04102 26.5745H19.041Z" fill="#1E1E1E"/>
<path d="M27.041 9.57446H5.04102C4.48873 9.57446 4.04102 10.0222 4.04102 10.5745V25.5745C4.04102 26.1267 4.48873 26.5745 5.04102 26.5745H27.041C27.5933 26.5745 28.041 26.1267 28.041 25.5745V10.5745C28.041 10.0222 27.5933 9.57446 27.041 9.57446Z" stroke="#CCCCCC" stroke-width="2" stroke-linecap="round" stroke-linejoin="round"/>
<path d="M10.041 3.57446L16.041 9.57446L22.041 3.57446" stroke="black" stroke-width="2" stroke-linecap="round" stroke-linejoin="round"/>
<path d="M23.541 16.5745C24.3694 16.5745 25.041 15.9029 25.041 15.0745C25.041 14.246 24.3694 13.5745 23.541 13.5745C22.7126 13.5745 22.041 14.246 22.041 15.0745C22.041 15.9029 22.7126 16.5745 23.541 16.5745Z" fill="black"/>
<path d="M23.541 22.5745C24.3694 22.5745 25.041 21.9029 25.041 21.0745C25.041 20.246 24.3694 19.5745 23.541 19.5745C22.7126 19.5745 22.041 20.246 22.041 21.0745C22.041 21.9029 22.7126 22.5745 23.541 22.5745Z" fill="black"/>
<path d="M19.041 26.5745V9.57446" stroke="#CCCCCC" stroke-width="2" stroke-linecap="round" stroke-linejoin="round"/>
</g>
<defs>
<clipPath id="clip0_650_3044">
<rect width="32" height="32" fill="white" transform="translate(0.0410156 0.574463)"/>
</clipPath>
</defs>
</svg>
