<svg width="69" height="69" viewBox="0 0 69 69" fill="none" xmlns="http://www.w3.org/2000/svg">
<path d="M43 42.5884C43 44.9355 44.9029 46.8384 47.25 46.8384C49.5971 46.8384 51.5 44.9355 51.5 42.5884C51.5 40.2412 49.5971 38.3384 47.25 38.3384C44.9029 38.3384 43 40.2412 43 42.5884Z" stroke="#00984C" stroke-width="2"/>
<path d="M43.0108 22.1956C27.6325 21.13 14.9633 18.8481 9 17.0876V42.7617C9 48.4125 9 51.2379 10.7555 53.5423C12.511 55.8466 14.9195 56.4974 19.7365 57.7991C27.5193 59.902 35.6999 61.1543 43.03 61.8706C50.627 62.6129 54.4254 62.9841 57.2128 60.4369C60 57.8897 60 53.7981 60 45.6143V39.9091C60 31.9619 60 27.9883 57.7132 25.5221C55.4267 23.0559 51.2881 22.7692 43.0108 22.1956Z" stroke="#F99650" stroke-width="2" stroke-linecap="round" stroke-linejoin="round"/>
<path d="M50.4398 22.755C51.5099 18.7224 52.4783 11.3883 49.5932 7.74661C47.7645 5.43843 45.0465 5.6602 42.3818 5.89457C28.3741 7.1265 18.4787 9.62904 12.9469 11.3292C10.5682 12.0603 9 14.3831 9 16.9762" stroke="#F99650" stroke-width="2" stroke-linejoin="round"/>
</svg>
