<svg width="33" height="33" viewBox="0 0 33 33" fill="none" xmlns="http://www.w3.org/2000/svg">
<g clip-path="url(#clip0_650_3033)">
<path d="M16.6475 27.14C17.4759 27.14 18.1475 26.4684 18.1475 25.64C18.1475 24.8116 17.4759 24.14 16.6475 24.14C15.819 24.14 15.1475 24.8116 15.1475 25.64C15.1475 26.4684 15.819 27.14 16.6475 27.14Z" fill="#CD95B1"/>
<path d="M29.6475 11.7888C25.982 8.78259 21.388 7.13965 16.6475 7.13965C11.9069 7.13965 7.3129 8.78259 3.64746 11.7888" stroke="#E6C0D3" stroke-width="2" stroke-linecap="round" stroke-linejoin="round"/>
<path d="M25.6475 16.265C23.0859 14.2371 19.9145 13.1338 16.6475 13.1338C13.3804 13.1338 10.209 14.2371 7.64746 16.265" stroke="#941D58" stroke-width="2" stroke-linecap="round" stroke-linejoin="round"/>
<path d="M21.6475 20.7651C20.1945 19.7082 18.4441 19.1389 16.6475 19.1389C14.8508 19.1389 13.1004 19.7082 11.6475 20.7651" stroke="#E6C0D3" stroke-width="2" stroke-linecap="round" stroke-linejoin="round"/>
</g>
<defs>
<clipPath id="clip0_650_3033">
<rect width="32" height="32" fill="white" transform="translate(0.647461 0.140015)"/>
</clipPath>
</defs>
</svg>
